<svg xmlns="http://www.w3.org/2000/svg" width="65" height="31" viewBox="0 0 65 31"><path fill="#747C81" fill-rule="evenodd" d="M17.203 0h2.946c.148 0 .272.124.272.272v29.48a.275.275 0 0 1-.272.273h-2.946a.275.275 0 0 1-.272-.273V.272c0-.148.123-.272.272-.272zM37.45 24.257V25c0 .322-.049.767-.173 1.337-.099.544-.396 1.113-.866 1.658-.47.545-1.163 1.04-2.104 1.436-.94.396-2.228.594-3.886.594-1.659 0-2.946-.198-3.886-.594-.94-.396-1.634-.867-2.104-1.436-.47-.545-.768-1.114-.867-1.683-.099-.57-.173-.99-.173-1.312V8.218c0-.149.124-.272.272-.272h2.946c.148 0 .272.123.272.272v15.718c0 .52.074.89.149 1.188.074.297.222.594.445.841.223.273.57.495 1.04.669.445.173 1.064.272 1.832.272.792 0 1.435-.1 1.905-.272.47-.174.817-.396 1.065-.644.247-.247.42-.52.495-.817.074-.297.173-.544.173-1.262V8.218c0-.149.124-.272.272-.272h2.946c.148 0 .272.123.272.272v16.04h-.025zM47.475 7.946h1.98c.174 0 .297.173.248.346l-.668 2.574c-.025.124-.149.198-.248.198h-1.386c-.743 0-1.337.1-1.807.297-.445.198-.817.421-1.064.693a1.991 1.991 0 0 0-.47.817c-.075.297-.1.57-.1.817v16.089a.275.275 0 0 1-.272.273h-2.97a.275.275 0 0 1-.272-.273V12.995c0-.297.049-.743.173-1.312.099-.57.396-1.114.866-1.683.47-.545 1.164-1.04 2.104-1.436.916-.42 2.228-.618 3.886-.618zm-40.47 0c2.4 0 4.158.47 5.297 1.41 1.114.941 1.683 2.13 1.683 3.54V25.025c0 .495-.099 1.04-.272 1.609-.173.594-.52 1.138-1.04 1.609-.52.495-1.237.89-2.128 1.237-.892.322-2.08.495-3.515.495-1.46 0-2.624-.173-3.515-.495s-1.61-.742-2.129-1.237c-.52-.495-.866-1.04-1.04-1.61-.173-.593-.272-1.138-.272-1.608v-1.93c0-1.04.273-1.981.792-2.823.545-.841 1.287-1.46 2.278-1.807.495-.173 1.04-.346 1.683-.569.619-.223 1.237-.42 1.831-.644.594-.198 1.09-.396 1.535-.544.446-.173.718-.248.817-.297.099-.05.247-.124.42-.223.174-.099.347-.247.52-.42.174-.199.298-.421.421-.644.124-.248.174-.545.174-.867v-.767c0-.272-.05-.544-.174-.841-.099-.298-.297-.545-.569-.793-.272-.247-.644-.445-1.09-.594-.445-.148-1.014-.222-1.707-.222-1.361 0-2.277.272-2.772.841a3.019 3.019 0 0 0-.718 1.782c0 .149-.124.248-.272.248H.273A.275.275 0 0 1 0 13.639v-.718c0-.693.124-1.337.396-1.93.248-.595.668-1.14 1.262-1.585.57-.446 1.288-.817 2.179-1.064.866-.248 1.93-.396 3.168-.396zm3.515 10.866a.917.917 0 0 1-.421.619c-.223.148-.42.222-.619.297-.42.148-.866.297-1.336.47-.47.173-.916.347-1.337.47-.495.174-.965.322-1.386.495a4.148 4.148 0 0 0-.94.57c-.248.222-.471.495-.67.841-.197.347-.296.768-.296 1.287 0 1.04.247 1.807.742 2.327.495.495 1.411.767 2.748.767 1.361 0 2.302-.272 2.797-.792.495-.544.743-1.287.743-2.277v-5.074h-.025zm47.5-10.866c2.4 0 4.158.47 5.297 1.41 1.114.941 1.683 2.13 1.683 3.54V25.025c0 .495-.099 1.04-.272 1.609-.174.594-.52 1.138-1.04 1.609-.52.495-1.238.89-2.129 1.237-.89.322-2.079.495-3.514.495-1.46 0-2.624-.173-3.515-.495s-1.61-.742-2.129-1.237c-.52-.495-.866-1.04-1.04-1.61-.173-.593-.272-1.138-.272-1.608v-1.93c0-1.04.272-1.981.792-2.823.545-.841 1.287-1.46 2.277-1.807.495-.173 1.04-.346 1.684-.569.618-.223 1.237-.42 1.831-.644.594-.198 1.09-.396 1.535-.544.445-.173.718-.248.817-.297.099-.05.247-.124.42-.223.174-.099.347-.247.52-.42.174-.199.297-.421.421-.644.124-.248.173-.545.173-.867v-.767c0-.272-.05-.544-.173-.841-.099-.298-.297-.545-.57-.793-.271-.247-.643-.445-1.088-.594-.446-.148-1.015-.222-1.708-.222-1.362 0-2.277.272-2.772.841a3.019 3.019 0 0 0-.718 1.782c0 .149-.124.248-.273.248h-2.97a.275.275 0 0 1-.272-.272v-.718c0-.693.124-1.337.396-1.93.247-.595.668-1.14 1.262-1.585.57-.446 1.287-.817 2.178-1.064.892-.248 1.931-.396 3.169-.396zm3.515 10.866a.917.917 0 0 1-.421.619c-.223.148-.42.222-.619.297-.42.148-.866.297-1.337.47-.47.173-.915.347-1.336.47-.495.174-.966.322-1.386.495a4.148 4.148 0 0 0-.941.57c-.247.222-.47.495-.668.841-.198.347-.297.768-.297 1.287 0 1.04.247 1.807.742 2.327.495.495 1.411.767 2.748.767 1.361 0 2.302-.272 2.797-.792.495-.544.742-1.287.742-2.277v-5.074h-.024z"/></svg>