<?xml version="1.0" encoding="UTF-8" standalone="no"?>
<svg xmlns:dc="http://purl.org/dc/elements/1.1/" xmlns:cc="http://creativecommons.org/ns#" xmlns:rdf="http://www.w3.org/1999/02/22-rdf-syntax-ns#" xmlns:svg="http://www.w3.org/2000/svg" xmlns="http://www.w3.org/2000/svg" xmlns:sodipodi="http://sodipodi.sourceforge.net/DTD/sodipodi-0.dtd" xmlns:inkscape="http://www.inkscape.org/namespaces/inkscape" width="269.13" height="55.010406" viewBox="0 0 269.13 55.010406" version="1.1" id="svg11" sodipodi:docname="logo.svg" inkscape:version="0.92.4 (5da689c313, 2019-01-14)">
  <metadata id="metadata17">
    <rdf:RDF>
      <cc:Work rdf:about="">
        <dc:format>image/svg+xml</dc:format>
        <dc:type rdf:resource="http://purl.org/dc/dcmitype/StillImage"/>
        <dc:title/>
      </cc:Work>
    </rdf:RDF>
  </metadata>
  <defs id="defs15"/>
  <sodipodi:namedview pagecolor="#ffffff" bordercolor="#666666" borderopacity="1" objecttolerance="10" gridtolerance="10" guidetolerance="10" inkscape:pageopacity="0" inkscape:pageshadow="2" inkscape:window-width="1920" inkscape:window-height="1001" id="namedview13" showgrid="false" inkscape:pagecheckerboard="true" fit-margin-top="0" fit-margin-left="0" fit-margin-right="0" fit-margin-bottom="0" inkscape:zoom="4.6340282" inkscape:cx="115.30376" inkscape:cy="37.857018" inkscape:window-x="-9" inkscape:window-y="-9" inkscape:window-maximized="1" inkscape:current-layer="svg11"/>
  <g id="Page-1" style="fill:none;fill-rule:evenodd;stroke:none;stroke-width:0" transform="translate(-0.9,-0.49)">
    <g id="Community-Hover-Header" transform="translate(-199,-17)" style="fill:#2a2a2a;fill-rule:nonzero">
      <g id="Layer_1" transform="translate(199,17)">
        <g id="Layer_2-2">
          <g id="Layer_1-2">
            <g id="Horizontal">
              <path d="m 38.73,7.47 h -1 C 27.92,7.47 20.52,1.11 20.44,1.04 L 20.32,0.93 19.82,0.49 19.32,0.93 19.19,1.04 C 19.12,1.1 11.71,7.47 1.9,7.47 h -1 V 33.63 C 1,49 19.68,55.44 19.86,55.5 20.04,55.56 38.73,49 38.73,33.63 Z m -1.9,26.15 c 0,13 -14.69,19 -17,19.82 -2.27,-0.84 -17,-6.81 -17,-19.82 V 9.3 c 6.1725491,-0.3526765 12.096092,-2.5548406 17,-6.32 4.904211,3.7646124 10.827579,5.9667116 17,6.32 z" id="Shape" inkscape:connector-curvature="0"/>
              <path d="m 3.87,10.36 v 22.95 c 0,12.27 13.86,17.9 16,18.7 2.14,-0.8 16,-6.43 16,-18.7 V 10.36 c -5.813862,-0.352519 -11.3879,-2.4427831 -16,-6 -4.612705,3.5561297 -10.1863974,5.646264 -16,6 z m 20.2,26.25 h -2.93 c 0,0.32 0,3.51 0,4.06 0.07841,0.140091 0.172333,0.270914 0.28,0.39 0.138941,0.160665 0.289335,0.311058 0.45,0.45 0,0 -0.75,1.1 -1.47,0.65 0,0 0.91,0.54 -0.52,3.19 -1.42,-2.65 -0.52,-3.19 -0.52,-3.19 -0.72,0.46 -1.47,-0.65 -1.47,-0.65 0.160665,-0.138942 0.311058,-0.289335 0.45,-0.45 0.107667,-0.119086 0.201591,-0.249909 0.28,-0.39 0,-0.55 0,-3.74 0,-4.06 h -2.93 c -0.532663,-0.0051 -0.977101,-0.40827 -1.033938,-0.937917 -0.05684,-0.529647 0.291937,-1.017931 0.811388,-1.135943 0.519451,-0.118013 1.044963,0.171646 1.22255,0.67386 h 1.09 l 0.64,-8.44 1.49,-1.15 1.49,1.16 0.64,8.44 h 1.09 c 0.177587,-0.502214 0.703099,-0.791872 1.22255,-0.67386 0.519451,0.118012 0.868226,0.606296 0.811388,1.135943 C 25.107101,36.21173 24.662663,36.614893 24.13,36.62 Z M 12.17,28.88 14.46,23 h 5.32 z M 20,23 h 5.32 l 2.29,5.87 z m 0.44,-7.59 c 0.72,-0.46 1.86,0.65 1.86,0.65 -0.161244,0.138318 -0.311682,0.288756 -0.45,0.45 -0.3401,0.362765 -0.54186,0.833538 -0.57,1.33 -0.02329,0.507208 0.116929,1.008487 0.4,1.43 0.422209,0.657294 1.122415,1.084787 1.9,1.16 0.211807,0.01104 0.424085,-0.0092 0.63,-0.06 0.608297,-0.158651 1.098742,-0.607914 1.31,-1.2 0.193895,-0.651901 0.118248,-1.35433 -0.21,-1.95 -0.08544,-0.168652 -0.185842,-0.329297 -0.3,-0.48 C 24.91339,16.608382 24.802736,16.487671 24.68,16.38 24.482179,16.20749 24.250594,16.078075 24,16 c 0.853153,-0.290846 1.794677,-0.145134 2.52,0.39 0,0 2.75,-2.67 4.22,-2.83 l -5.21,8.56 -0.05,0.12 H 14.21 L 14.16,22.12 8.95,13.56 c 1.46,0.15 4.22,2.83 4.22,2.83 0.725323,-0.535134 1.666847,-0.680846 2.52,-0.39 -0.215445,0.07708 -0.415287,0.192241 -0.59,0.34 -0.122411,0.108002 -0.233029,0.228677 -0.33,0.36 -0.113442,0.151195 -0.213804,0.311775 -0.3,0.48 -0.329343,0.595324 -0.405038,1.298204 -0.21,1.95 0.211258,0.592086 0.701703,1.041349 1.31,1.2 0.205866,0.05111 0.418187,0.07133 0.63,0.06 0.777585,-0.07521 1.477791,-0.502706 1.9,-1.16 0.284382,-0.420907 0.424724,-0.92263 0.4,-1.43 -0.02814,-0.496462 -0.2299,-0.967235 -0.57,-1.33 -0.139118,-0.160501 -0.289499,-0.310882 -0.45,-0.45 0,0 1.14,-1.1 1.86,-0.65 -0.521605,-1.587372 -0.332033,-3.32269 0.52,-4.76 0.852032,1.43731 1.041605,3.172628 0.52,4.76 z M 62.2,18.9 h 4.65 l 7.4,17.51 H 69 L 67.73,33.3 h -6.71 l -1.24,3.11 h -5.07 z m 4.22,10.66 -1.94,-4.94 -2,4.94 z M 77.88,19 h 8.22 c 2.66,0 4.5,0.7 5.66,1.89 1.0442,1.063127 1.601674,2.511112 1.54,4 0.07952,2.364753 -1.362266,4.515356 -3.58,5.34 l 4.15,6.06 h -5.56 l -3.5,-5.27 H 82.7 v 5.27 h -4.82 z m 8,8.35 c 1.64,0 2.58,-0.79 2.58,-2.06 0,-1.37 -1,-2.06 -2.61,-2.06 H 82.7 V 27.4 Z M 97.74,19 h 5.09 L 107,25.76 111.13,19 h 5.09 v 17.42 h -4.79 v -10 L 107,33.24 h -0.1 l -4.42,-6.76 v 9.94 h -4.72 z m 22,8.74 c 0.16514,-5.053064 4.30924,-9.063936 9.365,-9.063936 5.05576,0 9.19986,4.010872 9.365,9.063936 -0.16514,5.053064 -4.30924,9.063936 -9.365,9.063936 -5.05576,0 -9.19986,-4.010872 -9.365,-9.063936 z m 13.81,0 c 0.0605,-1.24165 -0.39296,-2.453426 -1.25383,-3.350239 C 131.43531,23.492948 130.24309,22.990274 129,23 c -1.20882,0.0067 -2.36241,0.507086 -3.19326,1.385143 -0.83085,0.878058 -1.26679,2.057508 -1.20674,3.264857 -0.0487,1.217595 0.39637,2.403256 1.23417,3.288125 0.8378,0.884869 1.99739,1.393975 3.21583,1.411875 1.21139,-0.0041 2.36851,-0.502991 3.2031,-1.381018 0.8346,-0.878026 1.2742,-2.058941 1.2169,-3.268982 z M 142.44,19 h 8.22 c 2.66,0 4.5,0.7 5.66,1.89 1.0442,1.063127 1.60167,2.511112 1.54,4 0.0795,2.364753 -1.36227,4.515356 -3.58,5.34 l 4.15,6.06 h -5.56 l -3.5,-5.27 h -2.11 v 5.27 h -4.82 z m 8,8.35 c 1.64,0 2.58,-0.79 2.58,-2.06 0,-1.37 -1,-2.06 -2.61,-2.06 h -3.15 v 4.17 z m 26.26,9.34 c -2.41705,0.102995 -4.76657,-0.812098 -6.47724,-2.522764 C 168.5121,32.45657 167.597,30.107053 167.7,27.69 c -0.0724,-4.887453 3.8228,-8.912365 8.71,-9 h 0.26 c 2.4494,-0.115728 4.8469,0.731292 6.68,2.36 l -1.94,2.31 c -1.31238,-1.24139 -3.06422,-1.910472 -4.87,-1.86 -1.56811,0.05951 -3.04711,0.744423 -4.10681,1.90182 -1.05969,1.157397 -1.61185,2.69091 -1.53319,4.25818 0,3.6 2.36,6.23 5.91,6.23 1.5045,0.01613 2.97523,-0.446097 4.2,-1.32 v -3.21 h -4.45 V 26.7 H 184 V 34 c -2.01279,1.744706 -4.5863,2.706668 -7.25,2.71 z m 30.86,-0.3 h -3.23 l -1.76,-4.2 h -8.22 l -1.79,4.2 h -3.13 l 7.65,-17.51 h 2.83 z m -9.12,-13.86 -3,7 h 6 z m 23.13,9.59 h -0.1 L 216,24 v 12.42 h -3 V 19 h 3.25 l 5.29,8.22 5.32,-8.22 h 3.25 v 17.42 h -3.06 V 23.94 Z M 250,21.76 h -9.84 v 4.52 h 8.72 V 29 h -8.72 v 4.67 h 10 v 2.73 h -13 V 19 H 250 Z m 14.44,4.57 c 3.68,0.89 5.59,2.21 5.59,5.12 0,3.28 -2.56,5.22 -6.21,5.22 -2.67933,0.01284 -5.26615,-0.979077 -7.25,-2.78 l 1.84,-2.19 c 1.45608,1.434826 3.4062,2.25781 5.45,2.3 1.89,0 3.08,-0.87 3.08,-2.21 0,-1.34 -0.7,-1.94 -3.93,-2.68 -3.7,-0.89 -5.79,-2 -5.79,-5.22 0,-3 2.48,-5.07 5.94,-5.07 2.29585,-0.04808 4.53345,0.724973 6.31,2.18 l -1.64,2.31 c -1.33523,-1.096809 -2.99325,-1.72559 -4.72,-1.79 -1.79,0 -2.83,0.92 -2.83,2.09 0,1.37 0.79,2 4.12,2.76 z" id="path3" inkscape:connector-curvature="0"/>
            </g>
          </g>
        </g>
      </g>
    </g>
  </g>
</svg>