<?xml version="1.0" encoding="UTF-8"?>
<!-- Generator: Adobe Illustrator 24.2.1, SVG Export Plug-In . SVG Version: 6.00 Build 0)  -->
<svg version="1.1" id="Layer_1" xmlns:cc="http://creativecommons.org/ns#" xmlns:dc="http://purl.org/dc/elements/1.1/" xmlns:rdf="http://www.w3.org/1999/02/22-rdf-syntax-ns#" xmlns="http://www.w3.org/2000/svg" xmlns:xlink="http://www.w3.org/1999/xlink" x="0px" y="0px" viewBox="0 0 595.3 184.4" style="enable-background:new 0 0 595.3 184.4;" xml:space="preserve">
<style type="text/css">
	.st0{fill:#EE1144;}
</style>
<path class="st0" d="M226.3,156.6c-6.8,0-13.4-0.7-20-2c-6.5-1.3-12.6-3.2-18.3-5.7c-6.3-2.9-11.5-6.4-15.8-10.4s-7.3-8.7-9.2-13.8  c-1.5-4.6-1.5-9,0.1-13.1c1.6-4.1,4.4-7,8.4-8.8c4-1.8,7.6-2.6,10.6-2.5c3.1,0.1,5.6,0.8,7.7,2.2c2.1,1.4,3.9,2.9,5.4,4.5  c1.8,2,3.6,3.8,5.5,5.3c7.8,6.3,16.4,9.4,26,9.4c4.9,0.1,9.6-0.4,14-1.7c4.5-1.3,6.8-4,7.1-8.3c0-3.5-1.3-6.1-4-7.9  c-2.7-1.8-6.7-3.5-12.1-5.1l-18.1-6.2c-22.5-7.7-36.1-16-41-25.1c-4.9-9.1-6.8-17.3-5.8-24.6v-0.2c0.5-11.7,6.6-21.6,18.3-29.7  C196.5,4.6,210.8,0.4,227.6,0c13.4,0,25,2.1,34.8,6.4s17.1,10.4,22,18.3c3.3,5.1,4.4,9.7,3.4,13.7c-0.6,2.1-1.7,3.9-3.1,5.3  c-1.4,1.4-2.9,2.4-4.2,3.2c-5.5,2.8-10,4.1-13.6,4.1c-2.6,0-5.1-0.6-7.3-1.9c-2.3-1.3-4.7-2.8-7.3-4.7l-1.5-1.1  c-6.4-4.6-12.9-7-19.4-7c-5.6,0-10.1,0.9-13.3,2.6c-3.2,1.8-4.8,4.1-4.8,7.1s1.3,5.3,3.9,7c2.6,1.7,6,3.2,10.3,4.4l24.3,7.7  c16.7,5.1,28.6,12.9,35.8,23.3c3,4.5,5,8.7,5.8,12.5c0.9,3.8,1.3,6.8,1.1,8.9c0,7.3-1.8,13.9-5.5,19.9c-3.6,6-9,11.1-16,15.3  c-6.3,3.6-13.4,6.5-21.5,8.5C243.5,155.6,235.1,156.6,226.3,156.6L226.3,156.6z M409.8,175.6c-0.1-3.4,0.6-5.9,2.1-7.6  c1.5-1.7,3.1-2.8,4.9-3.3c3-1.1,5.7-2.7,8-4.7s4.1-4.4,5.4-7.2c1.3-3.1,2.3-6.8,3-11.1c0.4-1.8,0.6-3.5,0.8-5.1c0.3-1,0.4-2,0.4-3  l0.6-3l1.1-8.7l0.6-3c0-1,0.1-2,0.4-3l0.6-3.8c0-0.8,0.1-1.5,0.4-2.3l0.2-1.9l2.1-14.7l0.6-4.9l1.3-8.7c0.3-0.4,0.3-0.6,0-0.6  c0.1-0.1-0.1-0.2-0.6-0.2h-5.8c-2.1,0-3.6-0.9-4.5-2.8c-0.3-0.6-0.4-1.3-0.4-2.1c0.3-2.6,0.6-5.3,1.1-7.9c0.4-1.5,1.2-2.6,2.4-3.4  c1.3-0.8,2.6-1.2,4-1.3h6.2c0.3-0.8,0.4-1.4,0.4-2.1c0.3-1.8,0.6-3.4,0.9-4.9c0.9-4.4,2.4-8.3,4.7-11.9c2.9-4.5,6.6-7.9,11.1-10.2  l3.4-1.5c1.1-0.6,2.4-1.1,3.8-1.3c1.8-0.5,4-0.9,6.8-1.3c3-0.4,5.8-0.6,8.5-0.6h1.7c2.3,0.1,4.5,0.4,6.6,0.8c1.1,0.1,2.1,0.7,3,1.7  c0.9,1,1.3,2.3,1.2,3.9c-0.1,1.6-0.3,3.2-0.7,5c-0.1,1.1-0.3,2.3-0.6,3.4l-0.2,0.9c-0.1,0.9-0.6,1.6-1.3,2.3  c-0.8,0.6-1.6,0.9-2.4,0.9h-6.4c-0.9-0.1-1.9-0.2-3-0.2H480c-1.6,0.1-3.3,0.6-5.1,1.5c-2.4,1.1-4.2,3-5.5,5.6c-1,2-1.7,4.6-2.1,7.9  h30.7v0.2h0.2v-0.2h0.2c1.6,0.1,3,0.8,4,1.9c1.1,1.1,1.6,2.6,1.6,4.3c-0.1,0.6-0.2,1.3-0.2,1.9V70c0.3-0.3,0.4-0.4,0.6-0.4l2.1-1.9  c1.3-1,2.6-2,4.1-3c1.5-1,3.1-1.8,4.9-2.4c2.4-0.9,4.7-1.4,7-1.7s4.2-0.4,5.8-0.4c2.5,0,3.8,0.1,4,0.2c2.4,0.1,4.9,0.9,7.5,2.3  c3,1.6,5.4,4.1,7.2,7.3l0.8,1.9l1.1-1.1c0.4-0.5,0.9-0.9,1.5-1.3c5.9-5.1,11.6-8.2,17.1-9c1.5-0.3,3.1-0.4,4.9-0.4  c1.8,0,3.6,0.1,5.6,0.4c3,0.4,5.8,1.2,8.3,2.4c2.8,1.5,4.9,3.7,6.3,6.6c1.4,2.9,2.3,6.1,2.5,9.8c0.1,3.1-0.1,6.3-0.6,9.6v0.6  l-0.8,6.6l-0.6,3.2L593,102c-0.3,1-0.4,2-0.6,3.1s-0.2,2.1-0.2,3.1l-0.8,4.1l-0.4,3l-0.4,1.9l-0.2,2.1l-1.1,7.9l-0.8,6.4l-0.8,4.1  l-1.3,10.5l-0.2,0.4c-0.1,1.5-0.4,2.9-0.9,4.3c-0.8,1.8-2,2.9-3.8,3.4c-1,0.3-2.1,0.4-3.4,0.4h-10c-2.3,0-3.8-0.9-4.7-2.8  c-0.4-1-0.6-1.8-0.6-2.3l0.6-4.3l0.4-1.7v-0.6c0.3-0.9,0.4-1.7,0.4-2.4c0.3-1.1,0.4-2.3,0.4-3.4c0.4-1.9,0.6-3.7,0.8-5.5  c0.4-2.3,0.7-4.5,0.9-6.8l0.6-3.4l1.3-10l0.4-2.3c0.1-1.9,0.4-3.6,0.8-5.3c0.3-1.1,0.4-2.2,0.4-3.2c0.4-1.8,0.6-3.5,0.8-5.1l0.2-0.4  c0.4-3.3,0.7-6.6,0.9-10c0.3-2.1-0.1-4-1.1-5.5c-1-1.5-2.3-2.4-3.8-2.6c-1-0.3-2-0.4-3-0.4c-1.4,0-2.8,0.3-4.1,0.8l-1.1,0.6  c-2.8,1.1-5.5,3.1-8.1,5.8c-0.1,0.3-0.4,0.5-0.8,0.8c-0.4,0.5-0.6,1.1-0.8,1.7l-0.9,8.7l-1.9,12.6c0,1-0.1,2-0.2,3.1  c-0.1,1.1-0.3,2.1-0.6,3.1l-0.6,4.1l-0.4,2.1c0,1.1-0.1,2.1-0.4,3l-0.4,2.8c-0.4,2.5-0.7,4.9-0.9,7.2l-0.6,4.3  c-0.1,1.5-0.4,3.1-0.8,4.7c0,0.5-0.1,1.1-0.2,1.7c-0.1,1.6-0.4,3.3-0.8,5.1c-0.9,3.6-3.1,5.5-6.6,5.6H523c-2.8,0-4.5-1.2-5.1-3.6  c-0.3-0.9-0.3-1.9-0.2-3v-0.4c0.3-0.8,0.4-1.5,0.4-2.3l0.4-1.5l1.1-8.8c0.3-2.1,0.6-4.3,0.9-6.4l0.4-3.4l1.5-9.8l1.3-10.2l1.3-8.1  c0-1.1,0.1-2.1,0.4-3c0.6-3.6,0.8-7.2,0.6-10.7c-0.1-2.9-1.3-4.8-3.4-5.6c-1.4-0.6-2.8-0.9-4.1-0.9l-1.7,0.2  c-2.9,0.5-5.4,1.5-7.5,3.1c-2.1,1.6-4,3.2-5.6,5c-0.4,0.4-0.6,0.9-0.8,1.5l-0.2,2.4c-0.3,1-0.4,2-0.4,3l-1.1,6.4v0.8l-0.4,2.1  l-0.4,3.4c-0.1,1.8-0.4,3.5-0.8,5.3c-0.3,2.3-0.6,4.5-0.9,6.8l-0.4,3.2l-3.2,22.4c-0.3,2.3-0.6,4.6-1.1,7c-0.3,1.3-0.8,2.3-1.6,3.2  s-1.8,1.4-2.9,1.7c-0.8,0.3-1.6,0.4-2.6,0.4h-10.7c-2.4,0-3.9-1.1-4.5-3.2c-0.3-1.1-0.3-2.4-0.2-3.8c0-0.9,0.1-1.7,0.4-2.4l0.2-1.3  c0.5-3.4,0.9-6.7,1.3-9.8c0.3-1,0.4-2,0.4-3l0.6-3.4c0-1.1,0.1-2.2,0.4-3.2c0.3-1,0.4-1.9,0.4-2.8l0.6-3.2c0-0.9,0.1-1.9,0.4-3  l2.4-18.1l0.8-4.7l0.6-4.3c0.3-1,0.4-2.1,0.4-3.2c0.3-0.9,0.4-1.9,0.4-3l0.9-5.3h-15.6c-0.4,0-0.6,0.3-0.8,0.8l-0.8,4.7l-0.2,1.9  c-0.1,0.3-0.2,0.6-0.2,0.9l-0.4,1.9c0,1.1-0.1,2.2-0.4,3.2c-0.1,1.8-0.4,3.6-0.8,5.5l-1.1,8.5l-0.6,3.2c0,1.1-0.1,2.2-0.4,3.2  s-0.4,2.1-0.4,3.2l-0.6,3l-1.7,11.9l-1.5,11.9c-3.3,18.4-8.4,30-15.4,34.7c-7,4.7-12.9,7-17.7,6.9c-2.6,0.4-5.1,0.1-7.5-0.9  c-1.4-0.5-2.6-1.4-3.7-2.6C410.7,179.5,410.1,177.8,409.8,175.6L409.8,175.6z M131.8,1.7c-10.8,0.5-17.4,3.4-19.7,8.6  c-2.3,5.2-3.2,9.9-2.7,14v3.2l-1.1-3c0-0.1-0.6-1.1-1.9-3c-1.3-1.9-3.4-4.1-6.4-6.6c-2.8-2.4-6.9-4.6-12.4-6.6  c-5.5-2-12.6-3.1-21.3-3.2c-19.1,0.5-34.8,7.7-47.2,21.5S0.4,57.9,0,79.2c0.4,22.1,6.4,40.1,18.2,54.1s26.9,21.2,45.5,21.7h2.4  c9.8-0.5,18.6-2.8,26.5-7c6.7-3.5,11.9-8.3,15.6-14.3l1.1-2.1v4c-0.3,4.8,1,9.4,3.8,13.8c2.8,4.5,9,6.8,18.6,7.1  c9.5,0,16-3.5,19.4-10.4c1.4-2.9,2.2-5.7,2.4-8.6c0.3-2.8,0.4-5.1,0.4-6.7V32.9c0.5-6.8-0.4-13.6-2.7-20.3  C148.9,5.8,142.4,2.2,131.8,1.7L131.8,1.7z M73.8,114.6c-8.7-0.1-15.3-3.2-20-9.2s-7.1-13.9-7.1-23.7c0-11.4,2.4-19.8,7.1-25  s11.4-7.8,20-7.7c7.8-0.1,13.9,2.4,18.4,7.4c4.5,5.1,6.8,13.5,7,25.3c-0.1,9.9-2.4,17.9-7,23.8S81.6,114.5,73.8,114.6z M325.3,156.6  c-10.3-0.5-16.7-3.8-19.1-10c-2.4-6.1-3.5-12.3-3.3-18.4v-99c-0.3-6.3,0.8-12.6,3.3-18.9c2.4-6.3,8.8-9.8,19.1-10.3  c7.8,0,13.5,1.9,17.1,5.6c2.6,2.9,4.2,6.1,4.7,9.7c0.5,3.6,0.7,6.8,0.6,9.7c-0.1,0.8-0.2,1.4-0.2,2.1v19.6l28-31.8  c1.9-2.1,3.6-3.9,5.3-5.3c5.1-4.5,10-6.8,14.7-6.8c3.8,0,7.6,1.3,11.5,4c1.6,1.1,3,2.3,4.1,3.4c4.5,5.1,6.4,10.1,5.6,15  C416,30,414,34,410.6,37.3l-30.7,32.9l38,54.8c3.1,4.4,4.4,9.1,3.8,14.2s-3.1,9.4-7.3,13.1c-3.6,2.9-7.9,4.3-12.8,4.3h-0.8  c-3.4-0.1-6.6-1-9.5-2.7c-2.9-1.7-5.4-4-7.4-6.9l-36.3-53.5v34.3c0.4,7.3-0.8,13.8-3.4,19.6S335.2,156.2,325.3,156.6z"/>
</svg>