<?xml version="1.0" encoding="iso-8859-1"?>
<!-- Generator: Adobe Illustrator 18.0.0, SVG Export Plug-In . SVG Version: 6.00 Build 0)  -->
<!DOCTYPE svg PUBLIC "-//W3C//DTD SVG 1.1//EN" "http://www.w3.org/Graphics/SVG/1.1/DTD/svg11.dtd">
<svg version="1.1" id="Capa_1" xmlns="http://www.w3.org/2000/svg" xmlns:xlink="http://www.w3.org/1999/xlink" x="0px" y="0px"
	 viewBox="0 0 455.731 455.731" style="enable-background:new 0 0 455.731 455.731;" xml:space="preserve">
<g>
	<rect x="0" y="0" style="fill:#0071B9;" width="455.731" height="455.731"/>
	<g>
		<g id="XMLID_5_">
			<g>
				<rect x="280.887" y="131.1" style="fill:#FFFFFF;" width="88.812" height="22.092"/>
				<path style="fill:#FFFFFF;" d="M405.047,255.26c0,3.985-0.159,7.821-0.477,11.488H290.608h-0.265
					c-1.06,25.185,17.32,40.173,38.22,40.173c14.811,0,27.828-7.856,35.33-21.173h37.389c-10.26,37.442-40.403,53.022-75.989,53.022
					c-46.615,0-79.754-37.389-79.754-83.509s35.71-83.509,79.754-83.509S405.047,209.14,405.047,255.26z M290.343,238.868h70.254
					c-2.792-20.749-17.453-33.978-35.127-33.978C307.796,204.889,293.135,218.118,290.343,238.868z"/>
				<path style="fill:#FFFFFF;" d="M231.842,258.795c2.872,32.034-2.872,51.917-35.569,68.045
					c-12.239,6.036-27.58,7.927-41.976,7.927H50.684V116.962c0,0,99.858,0,113.997,0s57.811,8.395,58.059,50.371
					c0.168,29.021-16.26,42.285-29.984,48.639C192.756,215.971,228.97,226.761,231.842,258.795z M185.174,268.012
					c0-30.567-34.517-29.772-34.517-29.772H98.625v59.543h52.032C150.657,297.784,185.174,298.579,185.174,268.012z
					 M176.611,179.483c0-25.627-28.941-24.964-28.941-24.964H98.625v49.929h49.045C147.67,204.448,176.611,205.11,176.611,179.483z"
					/>
			</g>
		</g>
	</g>
</g>
<g>
</g>
<g>
</g>
<g>
</g>
<g>
</g>
<g>
</g>
<g>
</g>
<g>
</g>
<g>
</g>
<g>
</g>
<g>
</g>
<g>
</g>
<g>
</g>
<g>
</g>
<g>
</g>
<g>
</g>
</svg>
