<svg width="1254.337px" height="1254.337px" viewBox="16.27 -506.1 1254.337 1254.337" xmlns="http://www.w3.org/2000/svg"><g fill="#ee3624"><path d="M16.27 10.128c35.312.046 70.638-.484 105.933.325 27.207.624 48.524 19.104 53.113 44.346 5.194 28.574-9.632 52.972-32.504 59.519-.581.166-1.054.705-1.835 1.25 21.801 6.241 34.814 20.671 38.478 42.29 6.042 35.67-13.632 64.98-50.803 69.127-8.244.918-16.615.895-24.929.938-29.15.155-58.302.15-87.452.206L16.27 10.128zm46.945 176.381c.606.208 1.211.597 1.814.597 14.632.024 29.29.543 43.89-.149 15.108-.717 24.092-10.002 24.492-23.685.403-13.748-7.895-23.664-22.691-25.44-9.353-1.123-18.906-.608-28.37-.741-6.271-.087-12.545-.016-19.135-.016v49.434zm-.32-89.998c13.64 0 26.591.023 39.542-.02 2.492-.009 5.041.012 7.465-.476 9.145-1.836 16.032-6.525 18.427-16.057 3.819-15.197-5.867-28.326-21.591-29.105-7.311-.361-14.652-.1-21.979-.107-7.106-.009-14.214-.002-21.541-.002-.146 1.574-.311 2.534-.312 3.494-.017 13.805-.011 27.61-.011 42.273zM858.27 232.128c-5.521-1.026-11.098-1.813-16.551-3.121-42.695-10.233-64.45-46.981-60.72-87.586 3.125-33.999 20.264-58.855 52.909-70.362 45.576-16.066 98.431 5.625 106.229 66.268 1.029 8.012.979 16.163 1.469 24.969h-117.7c2.729 14.94 10.263 25.421 23.4 30.992 21.348 9.054 41.347 4.541 60.203-7.595 1.114-.717 2.142-1.569 3.225-2.34.107-.076.317-.01 1.072-.01 5.769 8.491 11.725 17.26 18.418 27.114-6.071 3.787-11.672 7.892-17.79 10.966-11.254 5.655-23.354 8.653-35.927 9.7-1.432.119-2.827.659-4.239 1.004l-13.998.001zm42.711-98.528c.819-19.579-17.835-34.531-41.453-33.599-19.646.775-37.11 17.412-35.014 33.599h76.467zM1027.27 232.128c-6.792-1.367-13.695-2.333-20.358-4.171-31.819-8.778-53.77-35.686-56.657-68.573-2.727-31.021 6.266-57.311 31.168-76.881 37.735-29.655 111.896-22.928 126.628 47.237 1.056 5.027 1.676 10.188 1.994 15.318.339 5.447.076 10.934.076 17.235h-116.93c1.018 8.771 4.424 15.823 10.075 21.656 12.933 13.348 29.072 15.86 46.51 12.8 11.114-1.951 21.372-6.172 30.604-14.082l18.823 27.594c-4.899 3.279-9.34 6.747-14.217 9.415-12.121 6.632-25.242 10.132-38.979 11.417-1.597.149-3.157.68-4.735 1.033-4.669.002-9.335.002-14.002.002zm-33.8-98.556h76.544c.983-18.978-17.23-34.052-40.117-33.605-20.309.395-37.889 16.457-36.427 33.605zM253.27 232.128c-5.002-1.024-10.037-1.911-15.001-3.095-30.748-7.328-48.911-30.344-48.938-61.982-.024-30.326-.005-60.653-.005-90.979v-5.435h41.562v5.791c0 28.661.084 57.321-.038 85.981-.057 13 3.92 24.009 16.238 29.666 13.351 6.131 27.023 5.907 39.374-2.89 9.047-6.441 11.604-16.301 11.623-26.895.055-28.494.02-56.988.02-85.481v-6.266h41.11l.002 5.617c0 29.994.014 59.987-.005 89.981-.021 36.193-22.548 61.072-58.65 64.865-1.782.188-3.527.737-5.29 1.118-7.335.004-14.669.004-22.002.004zM645.709 227.628V10.275h151.178v21.084c0 4.666-.313 9.359.088 13.991.398 4.612-1.454 5.507-5.698 5.483-29.829-.17-59.66-.09-89.49-.09h-9.435v45.768h5.63c22.498 0 44.997.129 67.492-.106 4.548-.047 5.612 1.398 5.508 5.693-.279 11.452-.096 22.915-.096 34.941h-78.873v90.589h-46.304zM1120.653 227.543v-5.718c0-48.642-.001-97.281.002-145.923 0-6.385.007-6.441 6.597-6.38 22.811.21 45.713-.762 68.404.995 32.335 2.502 57.643 17.065 69.623 48.983 12.176 32.434 2.896 69.45-21.844 89.729-14.575 11.947-31.727 17.83-50.199 18.496-23.457.849-46.966.268-70.451.285-.478.001-.955-.201-2.132-.467zm39.636-33.359c7.967 0 15.426.002 22.885 0 26.839-.009 43.738-15.134 46.746-41.839 2.158-19.174-8.213-38.245-24.729-45.016-14.549-5.962-29.748-2.792-44.899-3.635-.003 30.449-.003 60.053-.003 90.49zM423 106.14h-70.419V70.474h127.306c0 6.729-.338 13.491.099 20.205.402 6.189-1.481 10.97-5.388 15.829-21.173 26.348-42.012 52.961-62.96 79.488-1.124 1.423-2.193 2.889-3.944 5.201h73.038v36.351H352.195c0-9.929-.146-19.854.138-29.768.049-1.702 1.759-3.476 2.964-5.009 21.491-27.371 43.025-54.707 64.537-82.062.895-1.141 1.659-2.387 3.166-4.569zM492.108 106.18c0-11.255-.01-21.572.015-31.89.002-1.138.19-2.276.324-3.752h126.912c0 9.589.105 19.024-.111 28.452-.033 1.421-1.435 2.918-2.438 4.193-21.853 27.732-43.741 55.436-65.61 83.155-1.08 1.369-2.044 2.831-3.726 5.173h6.371c20.657 0 41.316.087 61.975-.075 3.838-.029 5.271.914 5.159 5.004-.281 10.289-.093 20.592-.093 31.199H492.232c0-10.275-.082-20.38.104-30.479.022-1.266 1.351-2.588 2.256-3.74 20.984-26.72 41.996-53.418 63-80.124 1.604-2.041 3.174-4.109 5.494-7.117l-70.978.001z"/></g></svg>