<?xml version="1.0" encoding="UTF-8" standalone="no"?>
<!-- Created with Inkscape (http://www.inkscape.org/) -->
<svg width="516" height="155" viewBox="0 0 26.458333 7.9374998" version="1.1" id="svg5" inkscape:version="1.1 (c68e22c387, 2021-05-23)" sodipodi:docname="Chaturbate_logo.svg" xmlns:inkscape="http://www.inkscape.org/namespaces/inkscape" xmlns:sodipodi="http://sodipodi.sourceforge.net/DTD/sodipodi-0.dtd" xmlns:xlink="http://www.w3.org/1999/xlink" xmlns="http://www.w3.org/2000/svg" xmlns:svg="http://www.w3.org/2000/svg" xmlns:rdf="http://www.w3.org/1999/02/22-rdf-syntax-ns#" xmlns:cc="http://creativecommons.org/ns#" xmlns:dc="http://purl.org/dc/elements/1.1/">
  <title id="title7982">Cahturbate logo</title>
  <sodipodi:namedview id="namedview7" pagecolor="#ffffff" bordercolor="#111111" borderopacity="1" inkscape:pageshadow="0" inkscape:pageopacity="0" inkscape:pagecheckerboard="1" inkscape:document-units="px" showgrid="false" objecttolerance="1" gridtolerance="1" guidetolerance="1" units="px" inkscape:zoom="8" inkscape:cx="48.5625" inkscape:cy="21.125" inkscape:window-width="1366" inkscape:window-height="746" inkscape:window-x="-8" inkscape:window-y="-8" inkscape:window-maximized="1" inkscape:current-layer="layer1" height="30px"/>
  <defs id="defs2">
    <linearGradient inkscape:collect="always" xlink:href="#linearGradient44337" id="linearGradient44339" x1="708.56342" y1="-13.334791" x2="708.56342" y2="328.56567" gradientUnits="userSpaceOnUse"/>
    <linearGradient inkscape:collect="always" id="linearGradient44337">
      <stop style="stop-color:#f47320;stop-opacity:1;" offset="0" id="stop44333"/>
      <stop style="stop-color:#fec549;stop-opacity:1" offset="1" id="stop44335"/>
    </linearGradient>
    <linearGradient inkscape:collect="always" xlink:href="#linearGradient53219" id="linearGradient51077" gradientUnits="userSpaceOnUse" x1="711.18878" y1="4.8622079" x2="705.93805" y2="284.37296" gradientTransform="translate(44.769386,562.70186)"/>
    <linearGradient inkscape:collect="always" id="linearGradient53219">
      <stop style="stop-color:#f57f22;stop-opacity:1" offset="0" id="stop53215"/>
      <stop style="stop-color:#fecc68;stop-opacity:1" offset="1" id="stop53217"/>
    </linearGradient>
  </defs>
  <g inkscape:label="Capa 1" inkscape:groupmode="layer" id="layer1">
    <g id="g3548">
      <g id="#ffffffff" transform="matrix(0.01719996,0,0,0.01767501,-0.31847685,-9.4730566)" style="fill:url(#linearGradient44339);fill-opacity:1">
        <path id="path2" style="fill:url(#linearGradient51077);fill-opacity:1;stroke-width:1" d="m 308.76925,563.06198 c -24.31,-0.13001 -48.04042,9.59957 -66.52042,25.14957 -24.69,20.61 -47.62823,41.55112 -57.78823,71.73112 -26.52,-6.25 -43.39187,-11.91249 -61.04187,-33.20249 -13.2,-15.68 -22.98976,-34.9577 -23.679759,-55.3477 -11.279996,5.38 -22.239246,11.52954 -32.229243,19.06954 -7.299999,5.62 -17.658795,11.06693 -22.168796,19.21693 -3.519993,6.25 -1.581892,14.86253 0.498107,21.84253 2.49,8.75001 9.100275,15.58025 16.170275,20.95025 10.849999,8.07 23.389492,13.53056 36.089492,17.98056 28.230004,9.63 53.822164,15.00117 83.472164,17.42117 -3.79,17.23001 -1.94093,34.18892 -1.75093,51.84892 0.4,27.81999 6.32926,56.45916 22.07926,79.81916 12.08,18.11004 30.92039,31.57967 52.1104,36.72963 17.95999,4.33003 37.41018,5.11099 54.96018,-1.37898 20.70999,-7.54004 37.6891,-23.50082 48.4991,-42.50082 6.11,-10.92 10.57052,-23.0901 10.93053,-35.7001 0.24999,-8.72001 1.73894,-19.31288 -4.49106,-25.71287 -7.23,-7.42001 -23.84885,-14.95203 -33.90884,-14.63203 -3.24001,18.71 -18.3089,31.66254 -32.6089,43.80254 -9.38,7.67 -14.15209,16.68542 -26.70209,15.62542 -9.9,-0.45 -16.95035,0.97269 -23.35035,-6.84731 -8.39,-10.09001 -10.4999,-22.48802 -10.3799,-35.21802 0.49,-22.87 3.39045,-44.15704 12.99045,-64.75704 0.5,-1.61 2.57071,-1.08059 3.82071,-1.39059 24.55,-2.19001 49.08982,-7.69948 71.27982,-18.67948 15.08,-7.61 29.27004,-17.91014 38.97004,-31.94013 7.21999,-10.43 11.67944,-23.47037 9.36944,-36.20037 -1.72,-10.23 -8.11952,-19.22973 -16.48952,-25.15973 -13.89,-9.82 -31.45006,-12.63969 -48.13006,-12.51968 z m 702.72435,1.86185 c -5.6775,0.2375 -11.2843,1.53798 -16.39427,4.10798 -11.44,5.62 -20.03056,15.56996 -26.80057,26.13996 -9.76001,15.47 -16.23902,32.7597 -21.36901,50.2397 -7.25001,-1.37 -15.05015,-0.84977 -21.53014,2.91024 -10.62999,5.97 -17.44048,16.69014 -22.77044,27.31014 -7.41999,15.54 -11.65953,21.30426 -14.86953,38.18426 -0.38,-10.71 0.54997,-10.64484 -1.68005,-21.24484 -1.91999,-10 -7.08057,-19.68954 -15.5406,-25.62954 -15.51997,-10.92 -37.98008,-8.65935 -52.39006,3.13065 -7.61997,6.1 -13.88925,17.07277 -14.40923,26.85276 9.87998,-1.84 20.25037,-3.1292 28.91037,3.1408 8.93,6.77 8.04061,17.51679 8.48067,27.9968 0.52995,27.52 -0.94099,54.2091 -1.83099,81.65909 -0.21002,9.19 -0.45063,19.02975 3.99938,27.37976 3.34998,6.41 10.48011,9.67978 17.3901,10.49979 12.83003,1.58997 30.48927,-2.77516 43.21928,-4.41517 -1.71005,-3.87998 -3.89086,-8.31219 -5.64087,-12.17215 -5.50998,-10.98 -10.84914,-20.02226 -10.46914,-32.29226 0.47004,-25.12 1.36055,-50.82043 12.26054,-73.73043 7.61007,-16.07 16.92113,-26.46984 33.77116,-33.01984 -6.83006,40.52 -10.6902,77.36005 -10.89024,118.42006 0.01,9.19 4.39014,19.23998 8.3701,27.76996 2.56,5.54003 8.34943,8.75962 14.20941,9.61964 8.71001,1.34995 17.6005,0.51124 26.33052,-0.39883 3.47003,-0.22992 7.10876,-1.71054 10.4487,-0.0405 13.87006,4.26997 29.11111,-1.04934 39.48111,-10.65934 12.6,-11.45997 20.6296,-27.0509 26.0596,-42.9909 6.2,-18.93 9.1207,-39.22917 6.5007,-59.07917 -1.7401,-12.01 -5.9513,-24.8599 -16.1513,-32.3099 -9.41,-6.77 -21.9697,-5.65038 -32.5397,-2.63038 -13.75003,4.03 -21.49047,6.64143 -29.83046,17.91143 0.48999,-12.76 0.84982,-14.90506 1.9898,-27.61506 15.02999,-1.68 32.00976,-5.44929 45.09966,-13.17929 15.6701,-9.1 25.7413,-25.48437 31.7813,-42.67437 5.0401,-14.23 3.8994,-31.8928 -2.5607,-45.77279 -4.56,-9.95001 -13.359,-17.86036 -23.8189,-21.15035 -5.39,-1.68 -11.1386,-2.50538 -16.8162,-2.26788 z m -554.58524,0.001 c -1.35892,0.0345 -2.71439,0.12041 -4.05936,0.25666 -9.99002,1.18 -19.08949,6.44056 -26.22949,13.35056 -10.37,9.91 -17.61072,22.55885 -23.48072,35.51885 -8.66,19.38 -16.55812,37.66502 -20.87812,58.39502 -7.29,-1.07 -16.53996,-1.24641 -23.75996,-2.69641 -1.05,2.86 3.02892,7.44231 5.52893,9.6723 4.88,4.74001 6.90067,6.38148 13.31066,7.60148 -6.91999,39.71 -4.35126,79.40765 -4.70126,119.67765 0.13,10.33 -0.97896,21.47086 4.30104,30.83088 3.56,6.39998 10.89927,9.42929 17.87926,10.17928 12.65001,1.39004 30.77914,-1.61248 43.31914,-3.2225 -6.78,-9.67 -12.13963,-21.30934 -14.26964,-32.66934 -3.83999,-23.72 -6.74877,-47.13725 -6.61877,-71.12725 0.16,-1.83 -0.53054,-4.02087 0.96946,-5.46087 3,-3.6 6.82973,-6.88024 11.53973,-7.83025 5.93,-1 12.58061,1.23035 15.95061,6.39036 4.08999,6.15 -3.61855,13.77039 -3.15855,20.96039 0.94,26.6 3.73858,53.13041 6.71859,79.71041 1.2,9.95002 3.81992,20.36948 10.78997,27.93945 9.10994,9.63004 24.25952,12.0597 36.55952,8.07964 10.14001,-3.63 22.1595,-15.78455 30.31954,-22.76451 -8.32005,-1.00999 -14.15065,-2.43658 -20.03066,-8.6866 -7.79998,-7.99997 -14.32398,-14.60887 -15.074,-25.36888 -1.15003,-20.37999 1.12465,-40.59982 2.66464,-60.85982 0.88003,-12.38 1.72062,-25.09975 -1.54936,-37.21975 -1.99002,-7.56 -4.12027,-16.34354 -11.44031,-19.57354 -8.68999,-3.78 -23.32994,-6.17586 -32.22993,-2.83586 -13.14,4.82 -20.6898,8.6175 -29.3498,19.4975 0.34,-11.56999 1.61965,-11.85318 2.77965,-23.36318 11.89,-1.35 21.30052,-6.45478 32.21052,-11.43479 14.41996,-6.49999 27.23949,-16.90043 35.73948,-30.32043 8.95999,-14.02999 13.28988,-31.42963 10.02994,-47.91963 -2.00006,-10.66999 -7.79024,-20.79973 -16.75023,-27.08973 -7.81371,-5.55625 -17.51801,-7.85853 -27.03052,-7.61709 z M 1504.9198,589.5611 c -18.46,24.03999 -46.2407,39.1704 -75.0507,47.2004 -24.63,6.98 -50.2496,9.76003 -75.7595,10.71003 -35.4101,1.53 -68.3312,-3.09239 -103.6412,-4.96239 0.4999,-11.52 1.5104,-22.83701 -2.5596,-34.06701 -2.38,-6.96 -9.2091,-11.51143 -16.3591,-12.25144 -12.2801,-1.44999 -27.8098,2.78199 -39.4198,6.38199 6.78,11.94 7.9201,25.02813 9.1601,38.39813 -17.6299,0.04 -32.4009,0.18044 -49.7409,3.78044 -6.57,1.55 -13.4992,3.4702 -18.4591,8.31021 -3.59,3.36999 -7.2602,8.82985 -5.6702,13.39985 2.43,7.38001 12.2093,16.88906 17.2693,22.57906 17.06,-14.9 34.6218,-14.78003 56.4818,-16.74003 0.11,52.53 -1.1711,96.91172 -3.8011,149.33171 -0.18,7.94001 -2.78,8.6616 -1.5996,16.56158 -4.5999,-3.93002 -2.0612,-6.39453 -4.7912,-11.85453 -5.86,-11.37 -9.5652,-20.06361 -10.1652,-32.62361 -0.8199,-24 0.5993,-47.99907 0.3193,-71.99907 0.09,-3.63 -4.8038,-6.05502 -8.3038,-7.01501 -7.18,-2.12001 -13.3077,-2.50448 -20.4277,-1.00448 -2.75,-8.59 -8.3015,-15.48483 -16.2915,-20.36484 -6.73,-4.2 -15.1799,-3.54005 -22.5699,-1.74005 -12.6,3.2 -23.0101,11.96898 -30.7501,22.11898 -10.58,13.95 -19.3837,30.76372 -23.4736,47.68372 -4.07,17.46999 -3.4059,35.53595 -0.3659,53.29595 2.05,11.01 6.0787,22.48076 14.9386,29.86074 8.12,6.87001 19.9802,7.54969 29.7003,4.02972 9.0999,-3.42005 16.09,-10.65043 21.82,-18.26043 5.08,-6.86 9.4008,-14.25887 13.1609,-21.91887 0.54,-1.27 0.9586,0.94474 2.0586,0.10474 1.39,15.45 2.6602,27.94523 7.8102,42.72523 2.7,7.63003 7.2909,15.37892 15.0309,18.7389 8.56,3.79 18.3605,1.71032 26.6204,-1.90966 8.3501,-3.46006 15.7393,-8.72911 23.1293,-13.82911 13.9901,-1.48997 30.1896,-8.04342 42.5696,-14.4734 -7.06,-17.61 -8.0904,-37.10039 -9.3705,-55.87039 -2.1199,-40.5 -1.9696,-77.10075 1.1104,-117.49075 45.89,1.67 89.5206,11.24392 135.0506,16.70392 28.82,3.56 59.1303,4.80656 88.1903,5.22656 16.58,0.49 35.8589,-1.44967 49.3989,-11.93967 10.3101,-7.8 13.5605,-23.32631 13.6005,-36.12631 v -4.92 c -2.17,-18.52 -12.4393,-36.41082 -28.8493,-45.78081 z m -838.46423,6.29754 c -10.27384,0.0726 -27.4965,3.01903 -37.24399,6.07278 4.61998,7.38 9.97866,16.4205 11.18859,24.9105 1.71005,12.91999 0.13115,23.65494 0.26117,36.68495 -13.00001,1.75999 -22.31502,5.16513 -35.43499,5.58513 -6.12001,10.02 4.91251,24.62927 16.50253,23.48927 8.01998,0.09 12.9817,2.93664 21.01165,2.86664 -1.37999,40.59 -4.29496,78.41322 -6.54493,118.96322 -0.42004,9.9 0.20462,11.22002 0.77461,21.13005 -6.49003,-5.13007 -5.91187,-5.82463 -8.40192,-13.65463 -3.4,-10.69 -4.72015,-20.01465 -5.07015,-31.15465 -0.43,-22.7 -2.7694,-45.3999 -2.99936,-68.0999 0.16998,-3.64 -0.0303,-9.64697 -3.5003,-10.60698 -7.19004,-2.13 -17.1193,-0.0186 -24.24927,1.43137 -2.7,-8.56 -6.83021,-15.1347 -14.7102,-20.0747 -7.67005,-4.76 -23.7984,-4.50241 -32.00837,-1.96241 -16.02998,5.36 -23.95113,17.92734 -31.97118,32.26734 -13.69909,17.0461 -13.15006,41.80461 -14.64004,63.04461 -0.84996,14.59 0.0807,29.72008 5.86066,43.32008 3.48997,8.17999 9.54947,15.87015 18.17947,18.92018 11.11999,3.89 23.97986,0.83032 32.77992,-6.8297 11.60997,-9.89 19.0694,-23.57079 25.81938,-37.00079 0.72003,0.69 1.09027,1.54033 1.12027,2.53032 0.67001,9.58001 1.54029,19.16969 3.22034,28.62968 1.97,10.2 4.61976,21.02081 11.94978,28.80081 5.86995,6.29998 15.21968,8.00926 23.37964,6.2192 12.45004,-2.68994 23.23082,-9.93985 33.40082,-17.25984 13.62,-1.6 30.48837,-10.05743 42.55842,-16.31746 -7.82001,-19.65998 -10.25941,-38.11253 -11.38942,-59.02253 -1.18002,-28.64 -3.04923,-57.3195 -1.36928,-85.9195 8.62003,-0.01 17.23017,0.0594 25.8502,-0.0406 5.97995,-0.26 12.79974,-1.349 16.78975,-6.299 3.62995,-4.74 2.83998,-11.24096 1.10999,-16.56096 -2.68995,-7.81 -6.99044,-15.2091 -12.97047,-20.96909 -9.01997,3.71999 -18.4392,6.37996 -27.96918,8.38995 0.64999,-8.10999 1.43952,-16.2013 2.19958,-24.30129 0.84996,-9.04001 2.09979,-18.82949 -2.34017,-27.16949 -3.15999,-6.18 -10.0597,-9.40031 -16.72968,-9.86031 -1.47507,-0.115 -2.94615,-0.16262 -4.41387,-0.15225 z m 666.32453,98.70309 c -17.5,0.11001 -33.8907,8.96015 -46.1107,21.04015 -16.2799,16 -26.5501,38.23954 -27.2501,61.12954 -0.35,16.97 2.5897,34.71036 12.2397,49.03036 8.04,12.16003 21.0308,20.56916 35.0908,24.05914 17.46,4.32001 36.3389,2.71014 52.8689,-4.32981 7.39,-3.29999 14.7601,-7.83984 19.0201,-14.93983 3.52,-5.8 5.0397,-15.12365 0.4097,-20.07365 -4.74,-5.28 -14.3285,-10.85821 -21.1285,-11.71821 -2.16,5.47 -7.6696,12.12322 -11.8896,16.28322 -5.36,5.57001 -8.0815,8.26762 -15.9115,7.10762 -6.99,-0.91 -11.5107,-3.47381 -14.9907,-9.40381 -4.79,-8.05 -9.8587,-15.25542 -10.1987,-24.46542 14.73,3.85999 30.6794,5.91107 45.4193,0.94108 11.3101,-3.68001 20.86,-11.96055 26.6,-22.32055 8.0601,-14.50999 10.3399,-31.99963 7.1098,-48.20963 -1.56,-6.77001 -4.0086,-14.17117 -9.9786,-18.31117 -4.5,-3.03 -10.7601,-4.82931 -15.04,-2.5193 -8.15,-4.73 -16.81,-3.50972 -26.2599,-3.29973 z m -531.95866,3.25869 c -2.98686,0.0716 -5.76696,0.25119 -8.70321,0.80619 -3.32,0.77 -8.68853,0.82735 -10.70854,3.80734 -1.7,4.59 -2.3435,12.44691 -3.27354,17.24691 -4.00995,23.77 -7.23591,42.67851 -6.57594,66.73851 -1.72999,4.47 -0.54037,5.88228 -5.00035,7.97228 -4.04999,1.84 -5.00131,6.79022 -6.88133,3.40021 -4.48997,-7.82999 -5.60003,-17.04039 -6.36002,-25.88039 -1.45999,-22.39 -0.68934,-46.43354 4.3407,-68.19354 -12.45003,-2.04 -27.35205,-4.41577 -39.64201,-0.63577 -4.75007,1.66 -11.96726,5.6766 -12.70731,11.1966 -2.71993,17.58 -1.38012,36.65261 -1.64007,54.44261 -0.04,18.43 1.02916,37.25964 7.25916,54.76964 3.96999,11.09 11.14008,22.06016 22.52009,26.54017 7.45996,2.78 16.81051,4.21072 23.5305,-1.10926 10.47997,-8.02002 15.92044,-20.54007 21.02044,-32.32007 2.33004,15.6 5.31938,31.63014 13.50941,45.35011 4.15001,6.89006 10.85996,13.09976 19.24995,13.67974 15.45002,0.77999 33.07007,-9.01876 42.62007,-21.49874 -7.64995,-2.08005 -12.64117,-5.81816 -17.47116,-12.14813 -8.47998,-10.89002 -13.13497,-22.23177 -14.96498,-35.66177 -2.88999,-23.53001 -1.81208,-46.50441 2.32789,-69.77441 1.94997,-9.59999 2.33845,-19.87756 6.74841,-28.71756 -3.65995,-3.71 -6.63101,-6.89257 -11.63098,-7.94258 -4.86876,-1.01249 -12.5891,-2.18742 -17.56718,-2.06809 z" sodipodi:nodetypes="ccccccccccccccccccccccccccccccsccccccccccccccccccccccccccccccccccccssscccccccccccccccccccccccccccccccccsscccccccccccccccccccccccccccccccccccccccccssscccccccccccccccccccccccccccccccccccccscccccccccccccccccccscccccccccccccccccccccccs"/>
      </g>
      <path style="fill:#ffd37e;fill-opacity:1;stroke:#000000;stroke-width:0;stroke-miterlimit:4;stroke-dasharray:none;stroke-opacity:1" d="M 3.539948,7.5527525 C 3.0647806,7.4179805 2.8618846,7.3206256 2.6976038,7.1485688 2.3414609,6.7755727 2.968508,6.3491522 4.167523,6.1489606 c 1.6030746,-0.2676583 3.1193305,-0.2428963 9.44941,0.1543135 1.592935,0.099956 2.521534,0.1296151 4.057882,0.1296151 2.397213,0 3.073576,-0.071266 4.002876,-0.4217741 l 0.281348,-0.1061182 0.380003,0.1033764 c 0.557607,0.1516851 0.883222,0.3054881 1.066955,0.5039657 0.192079,0.2074955 0.188708,0.316799 -0.01462,0.473746 -0.303803,0.2345007 -0.58823,0.2561359 -3.339613,0.2540319 -2.496556,-0.00191 -2.648292,-0.00786 -4.9681,-0.1946392 C 11.601503,6.7651058 11.061097,6.7345129 9.5230424,6.7306762 8.1057512,6.7271419 7.6593516,6.7629622 6.6515723,6.9610909 6.0268663,7.0839091 4.9670343,7.3893731 4.5665268,7.5620453 4.2145874,7.7137769 4.1041489,7.7127781 3.539948,7.5527525 Z" id="path66070"/>
      <path style="fill:#0c5874;fill-opacity:1;stroke-width:0.0270875" d="M 4.2401046,7.920944 C 3.431764,7.7810529 3.0545284,7.6755999 2.7510526,7.5046879 2.291136,7.2456658 2.1982994,6.8003003 2.5295626,6.4421253 2.727833,6.2277504 3.1679709,6.0317756 3.736001,5.9049556 3.8162368,5.8870403 3.8144776,5.8851219 3.6406294,5.8011322 3.0556127,5.5185033 2.700668,5.0614005 2.5032444,4.3363886 2.4374586,4.0948038 2.4316619,4.0300616 2.4299322,3.5175886 L 2.4280554,2.9611164 2.2781867,2.9428006 C 2.031274,2.9126307 1.5536712,2.8012146 1.2878321,2.7117671 0.73337112,2.5252088 0.35082535,2.2563369 0.1762091,1.93046 0.12358988,1.8322611 0.11275888,1.7710824 0.11236988,1.5698526 0.11196763,1.3599385 0.12184493,1.307506 0.18619281,1.1780284 0.27301403,1.0033364 0.50702557,0.76055008 0.73862692,0.60488377 0.82854799,0.54444419 1.0891155,0.4008297 1.3176651,0.28574009 L 1.7332099,0.07648264 1.7334111,0.35194687 C 1.7336827,0.71112233 1.7723679,0.93994356 1.8664919,1.1390212 1.9989982,1.4192831 2.2913671,1.6869655 2.614433,1.823814 L 2.7368463,1.875664 2.8466838,1.6617498 C 3.1645179,1.0427441 3.5812774,0.60931017 4.0902294,0.36845258 4.3633883,0.2391796 4.5706201,0.18497994 4.869375,0.16467699 c 0.6915892,-0.0470023 1.301071,0.23208903 1.4880238,0.68139613 0.02694,0.0647474 0.055114,0.11767497 0.062607,0.11761481 0.00749,-1.719e-4 0.041494,-0.0483362 0.075558,-0.10728026 C 6.6065855,0.66428853 6.8761574,0.40534548 7.0563722,0.31771324 7.6052219,0.05082848 8.2657214,0.25240893 8.5263567,0.7663465 8.629011,0.96876926 8.6631689,1.1562248 8.6476229,1.4318523 8.626814,1.8007899 8.4648889,2.1686875 8.2084727,2.4296057 l -0.095546,0.097224 0.13357,0.1234629 c 0.073463,0.067905 0.1412244,0.1472982 0.1505803,0.1764265 0.014954,0.046559 0.037929,0.033114 0.1899781,-0.1111686 0.2264648,-0.2148905 0.467299,-0.3285001 0.7319616,-0.3452843 0.1066042,-0.00676 0.2404782,4.47e-4 0.2974984,0.015997 0.077453,0.021133 0.1059706,0.020217 0.1127585,-0.00362 0.03082,-0.1082325 0.1030847,-0.2858606 0.1324309,-0.3255211 0.026977,-0.036456 0.092109,-0.049998 0.2991835,-0.062207 l 0.264699,-0.015605 -0.0011,-0.083557 C 10.42391,1.8497965 10.408107,1.7273754 10.389389,1.6237067 10.359713,1.4593613 10.33542,1.4098562 10.199728,1.2372149 10.114134,1.1283136 10.044102,1.0309261 10.044102,1.0207996 c 0,-0.010128 0.168603,-0.0712658 0.374672,-0.13586534 0.317554,-0.0995448 0.418289,-0.11922378 0.660785,-0.12908389 0.272194,-0.0110703 0.293396,-0.007926 0.435792,0.0645978 0.25227,0.12847537 0.379129,0.34712023 0.394196,0.67937633 0.0061,0.1339177 0.01206,0.1459643 0.07596,0.1526959 0.276818,0.029164 0.589735,0.4655756 0.597197,0.8328853 l 0.0023,0.1130561 0.174568,0.031786 c 0.150446,0.027394 0.192633,0.025443 0.305333,-0.014111 0.117758,-0.04133 0.139702,-0.06292 0.220534,-0.2169843 0.284704,-0.5426309 1.035664,-0.7159856 1.566886,-0.3617024 0.07229,0.048212 0.139534,0.077841 0.149432,0.065839 0.0099,-0.012002 0.06414,-0.079324 0.120539,-0.1496034 0.126496,-0.1576277 0.29958,-0.2779636 0.461269,-0.3206994 0.121304,-0.032061 0.123588,-0.034823 0.206516,-0.2497275 0.374727,-0.97107814 1.095894,-1.3873274 1.81841,-1.04955849 0.741258,0.34652715 0.804616,1.44422069 0.123896,2.14659879 -0.09527,0.098304 -0.09717,0.1038938 -0.04497,0.1323981 0.07033,0.038407 0.241186,0.2072565 0.279372,0.2760951 0.02764,0.049825 0.03744,0.044585 0.147379,-0.078841 0.133276,-0.1496206 0.389916,-0.3235425 0.545304,-0.3695495 l 0.104272,-0.030871 V 2.2539802 c 0,-0.1916138 0.03262,-0.2810784 0.14473,-0.3969588 0.162081,-0.1675359 0.439708,-0.2651503 0.829416,-0.2916296 0.163928,-0.011137 0.252053,-0.028105 0.252053,-0.048529 0,-0.017274 -0.07518,-0.130992 -0.167064,-0.2527066 -0.09189,-0.1217128 -0.16239,-0.2255465 -0.156681,-0.2307379 0.0057,-0.00519 0.16979,-0.0607043 0.364618,-0.12336135 0.289706,-0.0931691 0.403872,-0.11635651 0.626722,-0.12728239 0.335687,-0.0164593 0.459079,0.014094 0.619122,0.15330614 0.140522,0.122232 0.224424,0.2942373 0.251069,0.5147214 l 0.01816,0.1502206 0.427788,0.031574 c 1.131976,0.083548 1.994826,-0.017709 2.648578,-0.3108203 0.25161,-0.1128137 0.531084,-0.34935146 0.749772,-0.63458813 l 0.09868,-0.12871087 0.166757,0.0883198 c 0.252963,0.13397613 0.516989,0.4024699 0.632225,0.6429218 0.30763,0.6419058 0.104109,1.3088539 -0.48662,1.5946905 -0.326358,0.1579113 -0.773537,0.1838938 -1.689313,0.098149 -0.16294,-0.015258 -0.300173,-0.023872 -0.304961,-0.019141 -0.0048,0.00473 0.01059,0.073622 0.03416,0.1530964 0.03212,0.1082841 0.03957,0.2193926 0.02974,0.4433147 -0.01524,0.3469363 -0.08556,0.5712228 -0.250056,0.797481 -0.10108,0.1390334 -0.101307,0.1399445 -0.04455,0.1792302 0.03138,0.021719 0.09347,0.1022454 0.13799,0.1789466 0.06661,0.1147716 0.08098,0.170123 0.0812,0.3127112 5.5e-4,0.3667167 -0.19155,0.5688902 -0.762714,0.8027618 l -0.06812,0.027894 0.08174,0.031617 c 0.369945,0.1430851 0.688231,0.3796503 0.780324,0.5799673 0.0597,0.1298695 0.06617,0.382784 0.01301,0.5085228 -0.120489,0.2849651 -0.518024,0.4587289 -1.202062,0.5254324 -0.63591,0.062009 -1.757136,0.090352 -2.956501,0.074735 C 18.325589,7.5617153 17.488319,7.5188592 14.839901,7.3322511 11.881997,7.1238377 10.508561,7.0643436 9.1094576,7.0840157 8.3558282,7.0946132 8.0169604,7.1107304 7.6734523,7.1523213 6.6133743,7.2806678 5.7721896,7.4643209 4.921318,7.7531846 4.4214758,7.9228779 4.3512292,7.940176 4.2400972,7.920944 Z M 4.5959365,7.4779508 C 5.5394106,7.1368762 6.7398727,6.8796144 7.9186993,6.7658673 9.106245,6.6512813 11.128519,6.7063405 14.3903,6.94206 c 1.331429,0.096217 2.792216,0.1900013 3.80122,0.2440394 0.706316,0.037828 3.902606,0.018897 4.291693,-0.025417 0.408236,-0.046499 0.688149,-0.106933 0.834349,-0.1801413 0.141407,-0.07081 0.187483,-0.1298608 0.187483,-0.2402765 0,-0.2815632 -0.455463,-0.5283427 -1.296759,-0.7026153 -0.328893,-0.068129 -0.343605,-0.068935 -0.454839,-0.024889 -0.466709,0.1848015 -0.991662,0.2929103 -1.858875,0.3828236 -0.395792,0.041032 -0.713173,0.04771 -2.179914,0.045863 -0.953227,-0.0012 -1.977215,-0.016458 -2.302529,-0.034311 -0.322217,-0.01768 -0.923051,-0.049902 -1.33519,-0.071603 C 13.664796,6.3138356 12.788067,6.2656644 12.128644,6.2284861 11.469224,6.1913113 10.653802,6.148665 10.316598,6.1337201 9.9793939,6.118777 9.4643906,6.0943467 9.1721465,6.0794328 8.2469215,6.0322139 6.1596147,6.0154383 5.5889225,6.050638 4.440315,6.1214775 3.6918296,6.241076 3.2141365,6.4300924 2.7208505,6.6252799 2.5740189,6.8450662 2.7836911,7.0744031 c 0.1477116,0.1615676 0.5098545,0.2983817 1.1158017,0.421542 0.3946516,0.080211 0.4271054,0.079372 0.6964437,-0.017994 z M 18.907298,6.0894304 19.359297,6.0718177 19.266545,5.9517756 c -0.05101,-0.066019 -0.107777,-0.1610879 -0.126136,-0.21126 -0.03865,-0.1056318 -0.05727,-0.1104157 -0.149832,-0.038471 -0.113578,0.088289 -0.353243,0.1626608 -0.524169,0.1626608 -0.294574,0 -0.531289,-0.1236553 -0.699935,-0.365632 L 17.665484,5.354175 17.523121,5.4909049 c -0.0783,0.0752 -0.191493,0.1656846 -0.251546,0.2010716 -0.160019,0.094297 -0.450956,0.1544063 -0.633246,0.1308321 -0.08243,-0.010658 -0.279452,-0.016837 -0.437831,-0.013733 -0.228902,0.00449 -0.32186,-0.00563 -0.453228,-0.049366 l -0.16526,-0.055015 -0.36424,0.052955 c -0.20033,0.029123 -0.413285,0.053883 -0.473233,0.05502 -0.08864,0.00168 -0.122851,0.018579 -0.183179,0.090481 l -0.07418,0.088413 0.204881,0.017114 c 0.112679,0.00941 0.593628,0.029756 1.068761,0.045206 0.475136,0.01545 0.919065,0.031548 0.986506,0.035775 0.264712,0.016583 1.732565,0.01643 2.159969,-2.062e-4 z M 12.968613,5.8445091 c -0.02578,-0.040726 -0.04928,-0.077798 -0.0522,-0.082382 -0.0029,-0.00458 -0.05244,0.016624 -0.110027,0.047124 -0.05758,0.0305 -0.129406,0.057174 -0.1596,0.059274 -0.07315,0.00509 0.135596,0.041371 0.265898,0.046212 l 0.102813,0.00382 z m 1.00512,0.020741 c 0.135626,-0.050177 0.348444,-0.1964235 0.348444,-0.2394394 0,-0.010757 -0.04241,-0.034713 -0.09425,-0.053237 -0.204827,-0.073191 -0.382348,-0.361525 -0.451673,-0.7336393 -0.0741,-0.397698 -0.01686,-1.2145142 0.114584,-1.6350454 0.03886,-0.1243275 0.04529,-0.1798937 0.02379,-0.2054963 -0.07538,-0.089754 -0.548581,-0.1395027 -0.677652,-0.071242 -0.0319,0.016872 -0.07079,0.054294 -0.08643,0.083163 -0.05102,0.094199 -0.108551,0.5693044 -0.127155,1.050105 -0.0181,0.4677502 -0.01875,0.4715612 -0.09335,0.5452713 -0.04131,0.040824 -0.08888,0.074229 -0.105699,0.074229 -0.05785,0 -0.160618,-0.1286352 -0.196516,-0.2459802 -0.05555,-0.1816109 -0.04099,-0.9194208 0.02396,-1.2139692 L 12.703556,2.985199 12.584439,2.967547 c -0.06551,-0.00971 -0.216859,-0.012059 -0.336327,-0.00522 -0.24192,0.013838 -0.347584,0.066621 -0.38107,0.190352 -0.07279,0.2689665 -0.103253,1.1709378 -0.05066,1.5003164 0.08825,0.5527317 0.335612,0.8616628 0.689938,0.8616628 0.09967,0 0.138148,-0.016693 0.232754,-0.100975 0.06234,-0.055539 0.159459,-0.1884491 0.215826,-0.2953546 l 0.102489,-0.1943779 0.04901,0.2396027 c 0.06182,0.3021842 0.212469,0.6086589 0.341023,0.6937351 0.118474,0.078406 0.327373,0.081569 0.526301,0.00797 z m 6.286591,-0.1114522 c 0.08359,-0.046127 0.171275,-0.1005797 0.19487,-0.1210081 0.02359,-0.020425 0.133948,-0.06041 0.245237,-0.088854 0.207602,-0.053058 0.515939,-0.1804902 0.515411,-0.2130135 -1.89e-4,-0.010022 -0.01924,-0.078805 -0.04239,-0.152854 -0.08197,-0.2621369 -0.119731,-0.6845677 -0.120274,-1.3456282 -4.3e-4,-0.5298863 0.04178,-1.515691 0.06605,-1.5423336 0.02477,-0.027201 0.864585,0.066666 2.235946,0.2499201 0.815754,0.1090079 1.670008,0.1620575 1.936695,0.1202707 0.467914,-0.073315 0.736198,-0.3242801 0.768233,-0.7186346 0.02449,-0.3015842 -0.142714,-0.6728579 -0.385428,-0.8557994 l -0.09535,-0.071866 -0.171992,0.1732206 C 24.740102,1.8592249 23.584072,2.1132861 21.82924,1.973572 21.559474,1.952095 21.297324,1.934264 21.246686,1.933944 l -0.09208,-5.673e-4 0.01907,-0.2408817 c 0.01645,-0.2078066 0.01167,-0.2574011 -0.0348,-0.361209 -0.05642,-0.1260464 -0.118731,-0.1734853 -0.273034,-0.2078771 -0.09418,-0.020987 -0.34526,0.00803 -0.525652,0.060749 l -0.09935,0.029034 0.04165,0.097554 c 0.0417,0.097676 0.119798,0.5409292 0.100712,0.5716148 -0.0056,0.00897 -0.197508,0.023134 -0.426515,0.031487 -0.548214,0.019993 -0.774835,0.092335 -0.836456,0.267012 -0.03411,0.096708 0.02172,0.2470785 0.145475,0.3917554 l 0.07462,0.087235 0.08637,-0.063965 c 0.0475,-0.035181 0.135421,-0.088105 0.195368,-0.1176079 0.140975,-0.069389 0.538268,-0.1679227 0.67706,-0.1679227 h 0.108083 l -0.01742,0.6125885 c -0.0096,0.3369232 -0.03535,0.8609907 -0.05726,1.1645913 -0.02191,0.3036007 -0.04848,0.7268703 -0.05905,0.9405954 l -0.01922,0.388589 -0.06554,-0.078931 C 19.978864,5.0850401 19.951565,4.9321087 19.950202,4.0014302 19.949308,3.4021346 19.941071,3.2208158 19.913436,3.1936198 19.890048,3.1705974 19.809932,3.1596405 19.68019,3.1617188 l -0.197623,0.00317 -0.08011,-0.150891 C 19.289514,2.8012747 19.179069,2.7333971 18.96811,2.7470476 c -0.21741,0.01407 -0.347792,0.079794 -0.548216,0.2763426 -0.607777,0.5960192 -0.749676,2.0367933 -0.235757,2.3937238 0.0968,0.067231 0.139246,0.079096 0.27833,0.077801 0.284124,-0.00265 0.492636,-0.1686928 0.719097,-0.5726461 l 0.113212,-0.2019518 0.02102,0.1750256 c 0.06101,0.5081342 0.154685,0.7908492 0.296798,0.8956953 0.158078,0.1166281 0.393451,0.1031014 0.647737,-0.037231 z M 18.714267,4.8625997 c -0.08392,-0.082926 -0.0094,-0.6649368 0.129872,-1.0140356 0.06464,-0.1620592 0.234038,-0.4342144 0.270266,-0.4342144 0.09437,0 0.116122,0.6766552 0.03055,0.9504245 -0.09495,0.3038034 -0.340186,0.587261 -0.430689,0.4978255 z m 2.464997,0.9614844 c 0.137084,-0.037132 0.29516,-0.086472 0.351285,-0.1096455 0.09538,-0.039382 0.09907,-0.045074 0.05647,-0.087166 -0.0426,-0.042091 -0.05727,-0.039036 -0.224775,0.04678 -0.09856,0.050499 -0.254524,0.1194799 -0.346582,0.1532924 -0.222717,0.081803 -0.144705,0.080247 0.163601,-0.00326 z M 10.560915,5.7764476 c 0.06795,-0.029235 0.179254,-0.092222 0.247347,-0.1399703 0.06809,-0.047748 0.172319,-0.095665 0.23161,-0.1064792 0.112633,-0.02054 0.501394,-0.165547 0.537242,-0.2003875 0.01139,-0.011063 0.0023,-0.079978 -0.02008,-0.1531462 -0.09393,-0.3064266 -0.128156,-0.6832905 -0.127637,-1.4054421 2.92e-4,-0.3888194 0.0088,-0.7725007 0.01893,-0.8526244 l 0.01842,-0.145679 0.294987,-0.00904 c 0.248206,-0.00761 0.307174,-0.01801 0.371824,-0.065603 0.112198,-0.082597 0.119916,-0.2621077 0.01968,-0.4578728 -0.116443,-0.227422 -0.137381,-0.2387123 -0.327978,-0.1768666 -0.08792,0.028527 -0.194752,0.059948 -0.237414,0.069824 l -0.07757,0.017955 0.02307,-0.2637046 c 0.03373,-0.3855379 0.02389,-0.5304365 -0.04328,-0.6378405 -0.09689,-0.154922 -0.319082,-0.190505 -0.681255,-0.1091024 l -0.186135,0.041837 0.04982,0.1295704 c 0.06542,0.1701419 0.11238,0.5306307 0.102004,0.7830536 l -0.0083,0.2019517 -0.299737,0.031133 c -0.164856,0.017123 -0.313737,0.032267 -0.330845,0.033659 -0.05453,0.00443 -0.06813,0.1344471 -0.02373,0.2268925 0.06689,0.1392964 0.164108,0.1795413 0.433714,0.1795413 h 0.234225 l 7.24e-4,0.08751 c 3.97e-4,0.048132 -0.03283,0.6314424 -0.07385,1.2962434 l -0.07458,1.2087298 -0.08621,-0.098558 C 10.383967,5.0768972 10.359736,4.9262349 10.344144,4.0074965 l -0.01393,-0.8205189 -0.06812,-0.035349 c -0.04609,-0.023915 -0.121253,-0.030201 -0.232403,-0.01944 l -0.1642799,0.015902 -0.03569,-0.097532 C 9.7460693,2.821949 9.5452605,2.6933 9.3197524,2.7238429 8.9052651,2.7799833 8.5249262,3.2301878 8.3496774,3.8721091 8.2662077,4.1778515 8.2584708,4.8292531 8.3357111,5.0480234 8.4987373,5.5097691 8.9533187,5.6174877 9.2984726,5.2761587 9.4209203,5.1550681 9.6626224,4.7948286 9.6626224,4.7334178 c 0,-0.014615 0.012262,-0.026572 0.027249,-0.026572 0.014987,0 0.027342,0.051497 0.027455,0.1144381 6.12e-4,0.3402649 0.1097991,0.7381554 0.2431596,0.8861052 0.148885,0.1651706 0.328913,0.185874 0.600427,0.069059 z M 9.087047,4.7943559 C 9.020419,4.6256992 9.1331064,4.037235 9.2979818,3.6928342 9.3755704,3.530763 9.4927425,3.380343 9.5257161,3.4004826 9.5721011,3.4288081 9.6153305,3.7775803 9.600485,4.0037078 9.5775503,4.3530473 9.420521,4.7088294 9.2367536,4.827816 9.1482897,4.8850944 9.1204328,4.8788699 9.087047,4.7943559 Z m 3.135378,1.0448175 c -0.09998,-0.029981 -0.18986,-0.080002 -0.291724,-0.1623514 l -0.08895,-0.071907 -0.229672,0.1097006 -0.229665,0.1096989 0.223248,0.01518 c 0.350546,0.023832 0.696718,0.023651 0.616762,-3.267e-4 z M 8.348646,5.7591546 C 8.434393,5.7159116 8.5433756,5.6517523 8.5908303,5.6165766 l 0.08628,-0.063955 -0.1407779,-0.049129 C 8.3691463,5.4451472 8.2180779,5.2998275 8.1685941,5.1497444 8.1060379,4.9600147 8.1000612,4.6233562 8.1499715,4.1007756 8.2087368,3.4854745 8.1983699,3.2293351 8.1073559,3.0478668 7.9275664,2.6893945 7.4282314,2.7095255 7.0161261,3.0918592 6.9373865,3.1649127 6.8697688,3.2215223 6.8658643,3.2176649 6.8510545,3.2030295 6.8919355,2.7169911 6.9104691,2.6873592 6.9211571,2.670269 7.0266962,2.6348733 7.1450001,2.6087 7.8333341,2.4564184 8.3001833,1.9448359 8.3001833,1.3428346 8.3001833,1.0229741 8.1910248,0.81140803 7.9419477,0.6485237 7.8516451,0.58947134 7.7936511,0.57511951 7.6059912,0.56538489 7.4078219,0.55510707 7.3627076,0.56168047 7.2487613,0.61744269 6.8759895,0.79986331 6.5781011,1.3112001 6.364497,2.1353185 6.3002736,2.3831036 6.2796077,2.4305219 6.2380612,2.4254337 6.210746,2.4220868 6.1240217,2.4113294 6.0453407,2.4015329 5.9148031,2.3852696 5.9022842,2.3883826 5.9022842,2.4371004 c 0,0.075845 0.075719,0.133928 0.226594,0.1738017 0.1101437,0.029109 0.1284013,0.043025 0.1169516,0.089117 -0.072577,0.2921887 -0.1527346,1.307266 -0.1520941,1.9260463 7.461e-4,0.7202744 0.054848,0.7953529 0.5715163,0.7930942 0.1573622,-7.048e-4 0.3191201,-0.00983 0.3594618,-0.020317 L 7.0980625,5.3797793 7.0473008,5.2654598 C 6.9359539,5.0146974 6.855994,4.4193383 6.855994,3.8410435 6.855994,3.497932 6.857114,3.4915322 6.928805,3.425879 7.028403,3.334666 7.1163799,3.3178922 7.2254977,3.36931 c 0.1835536,0.086498 0.1900947,0.1235161 0.1808077,1.0233027 -0.00911,0.8822976 0.00534,1.0162857 0.1306341,1.2115197 0.107284,0.1671697 0.2365288,0.2309459 0.4710959,0.2324534 0.1518237,9.799e-4 0.2124625,-0.012806 0.3406106,-0.077431 z M 6.9497937,2.246133 C 6.9827793,1.9852424 7.0970316,1.5299102 7.1678814,1.3769823 7.2247977,1.2541297 7.2466144,1.2308219 7.2979291,1.2380469 7.4324204,1.2569849 7.4975434,1.6150001 7.4165674,1.8902615 7.3640604,2.0687422 7.2062302,2.2568647 7.0377212,2.341817 L 6.930886,2.3956763 Z m 2.5717737,3.4390467 c -0.012881,-0.065634 -0.054364,-0.06845 -0.1314298,-0.00892 l -0.068122,0.052618 0.1041811,5.844e-4 c 0.082783,4.814e-4 0.1023719,-0.00862 0.095371,-0.044291 z M 5.8545989,5.6765813 6.0657773,5.6762031 5.9567821,5.5684966 C 5.8968345,5.5092585 5.8477867,5.4482792 5.8477867,5.4329888 c 0,-0.03247 -0.3222979,0.2184386 -0.3250997,0.2530882 C 5.521647,5.698911 5.54839,5.702105 5.58211,5.693177 5.61583,5.684247 5.7384505,5.676774 5.8545987,5.676572 Z M 4.8980185,5.5694867 C 5.3961074,5.4174045 5.8356044,4.9581221 5.9696329,4.4496303 6.0923169,3.9841784 5.9218614,3.679182 5.5058025,3.6196999 L 5.395434,3.603923 5.3477672,3.7568905 C 5.2454107,4.0853718 4.9303295,4.4539707 4.6362053,4.5893134 4.380649,4.706911 4.084292,4.6615556 3.8963173,4.4760786 3.6089211,4.1925025 3.6052746,3.5990274 3.8865007,2.8783971 l 0.083101,-0.2129413 0.1693116,-0.01895 C 4.8271885,2.5694745 5.4003258,2.3330364 5.7673613,1.974717 6.2497766,1.5037558 6.21165,0.91841153 5.6812591,0.65281773 5.2954144,0.45960531 4.7308903,0.46425345 4.2843795,0.66431775 3.7636464,0.89764101 3.2687552,1.4766337 3.0270529,2.1353185 2.9998807,2.2093673 2.9689392,2.2799593 2.9582928,2.2921847 2.9000502,2.3590808 2.2437829,2.0625521 1.9893711,1.8543914 1.8232381,1.718459 1.6536049,1.5049282 1.5481307,1.2989695 1.4827867,1.1713708 1.4064061,0.8955851 1.4058067,0.78508518 1.4050056,0.63709931 1.3780909,0.63780066 1.1122948,0.79272092 0.8309128,0.95672431 0.57089023,1.1923751 0.49581004,1.3514209 0.42237629,1.5069772 0.44615212,1.7060497 0.55575352,1.8533221 0.80554004,2.1889698 1.4775794,2.4585173 2.4008062,2.5933546 c 0.1498685,0.021888 0.3102968,0.039867 0.3565069,0.039956 0.046208,1.719e-4 0.090275,0.00634 0.097925,0.013901 0.00765,0.00756 -0.00456,0.1014684 -0.027131,0.2086833 C 2.8006689,2.9862222 2.7870239,3.2070313 2.78694,3.522058 2.7868025,3.946524 2.7939523,4.0196532 2.8587529,4.2590754 2.9693268,4.6676098 3.0964796,4.8971376 3.3539125,5.1528971 3.5012353,5.2992602 3.6258129,5.395398 3.736001,5.4477515 4.0977463,5.6196313 4.5713078,5.6692412 4.8980185,5.5694867 Z M 4.1583578,2.3678287 c 0,-0.01281 0.026523,-0.05825 0.058941,-0.1009733 C 4.4993473,1.8951314 4.8417174,1.7143042 5.0242577,1.8406498 5.1498768,1.9275979 5.0857541,2.0986302 4.88366,2.2156657 4.6882851,2.3288111 4.1583578,2.4399866 4.1583578,2.3678287 Z M 22.810192,5.5045898 c 0.358675,-0.077005 0.613101,-0.2758252 0.613101,-0.4791109 0,-0.091622 -0.0165,-0.1256975 -0.09731,-0.2010149 -0.05352,-0.04988 -0.11996,-0.090694 -0.147642,-0.090694 -0.02768,0 -0.06815,-0.00675 -0.08992,-0.015014 -0.02633,-0.00998 -0.06378,0.025781 -0.111831,0.1067989 -0.151003,0.254617 -0.40232,0.3510642 -0.588753,0.2259443 C 22.264283,4.9685787 22.17898,4.8130585 22.14673,4.611925 22.13254,4.523438 22.12457,4.4472134 22.12901,4.4425377 c 0.0045,-0.00468 0.06144,0.00619 0.126643,0.024136 0.06521,0.017951 0.210524,0.032504 0.322927,0.032341 0.388163,-5.672e-4 0.663581,-0.1723301 0.825877,-0.5150463 0.153227,-0.3235718 0.126175,-0.8644906 -0.05149,-1.0294222 -0.05336,-0.049533 -0.08397,-0.056684 -0.184415,-0.04308 -0.08496,0.011507 -0.165311,7.392e-4 -0.272777,-0.036597 -0.386195,-0.1341325 -0.79815,0.00266 -1.143402,0.3796658 -0.277459,0.3029835 -0.399135,0.6224813 -0.399673,1.0494794 -5.15e-4,0.4000237 0.08281,0.6520031 0.293746,0.888424 0.257563,0.2886798 0.709019,0.4097739 1.163742,0.3121509 z M 22.156767,4.1656846 c 0.05709,-0.2573238 0.2618,-0.5341563 0.465707,-0.629775 0.117355,-0.055032 0.145452,-0.035423 0.165978,0.1158167 0.04315,0.3179181 -0.157413,0.5476968 -0.514553,0.589494 l -0.137457,0.01609 z m -7.104262,1.2517508 0.08484,-0.016767 -0.0632,-0.1247641 C 14.942573,5.0161877 14.911225,4.8729652 14.915108,4.549237 c 0.0062,-0.5178844 0.103454,-0.9626568 0.284486,-1.3011821 0.09561,-0.1787746 0.320722,-0.4124159 0.485569,-0.5039554 l 0.115966,-0.064395 -0.01709,0.091321 c -0.07989,0.4270651 -0.168757,1.7203037 -0.147825,2.1512366 0.0137,0.2819964 0.05755,0.4002128 0.177183,0.4776979 0.06242,0.040431 0.14723,0.048051 0.578469,0.051979 0.478718,0.00436 0.512885,0.00124 0.648922,-0.059341 C 17.25002,5.299431 17.434483,5.097833 17.578028,4.8054676 17.780615,4.3928418 17.876572,3.852064 17.810537,3.4951318 17.72093,3.0107934 17.485891,2.8046886 17.099802,2.8718941 16.88476,2.9093268 16.734462,2.9911076 16.56443,3.1632109 l -0.144091,0.1458405 0.0027,-0.1694972 c 0.0015,-0.093226 0.01068,-0.2360152 0.02044,-0.3173147 0.01444,-0.1203394 0.02787,-0.1491823 0.07224,-0.1551541 0.657712,-0.088509 1.175818,-0.4971155 1.308443,-1.0319113 C 17.930729,1.2054136 17.78,0.81048321 17.446597,0.64594006 17.265692,0.55665931 16.965391,0.55853301 16.784474,0.65006907 16.484513,0.80183843 16.230914,1.1678022 16.039623,1.7249568 l -0.07459,0.2172679 -0.133388,0.00474 c -0.07337,0.00261 -0.170818,0.023916 -0.216555,0.047358 -0.229069,0.1174034 -0.467614,0.5128237 -0.596518,0.9888181 -0.03719,0.137323 -0.07114,0.2531552 -0.07545,0.2574097 -0.0043,0.00425 -0.0087,-0.1033369 -0.0097,-0.239087 -0.0015,-0.1939568 -0.01498,-0.2762739 -0.06299,-0.3843466 -0.194957,-0.4388694 -0.745516,-0.5503268 -1.126521,-0.2280546 -0.110907,0.093812 -0.210139,0.2654528 -0.211358,0.3655804 -6.02e-4,0.049251 0.01432,0.053091 0.174499,0.044915 0.3147,-0.016066 0.456046,0.1052742 0.512116,0.4396447 0.03054,0.1821387 0.02342,0.2963774 -0.07632,1.2242797 -0.08807,0.8193878 0.03397,1.0180941 0.604308,0.9839344 0.121309,-0.00727 0.25874,-0.020755 0.3054,-0.029977 z m 1.410979,-0.3941981 c -0.01,-0.048132 -0.03005,-0.2898951 -0.04458,-0.5372522 -0.0286,-0.4869735 -0.0189,-0.5466396 0.126425,-0.7776714 0.06212,-0.098756 0.213983,-0.2401098 0.257956,-0.2401098 0.01349,0 0.04627,0.032814 0.07284,0.072918 0.04066,0.061363 0.04831,0.134968 0.04829,0.4644909 0,0.4191217 -0.02926,0.590692 -0.141061,0.8278933 -0.06551,0.1389767 -0.198335,0.2772417 -0.266334,0.2772417 -0.01946,0 -0.04355,-0.039379 -0.05354,-0.08751 z m 0.03864,-2.679483 c 1.89e-4,-0.2140861 0.141306,-0.8120048 0.227691,-0.9641901 0.08062,-0.1420245 0.174787,-0.1469236 0.224189,-0.011663 0.04182,0.1145172 0.04811,0.4092651 0.0115,0.5394697 -0.04646,0.1652634 -0.176009,0.3354277 -0.323759,0.4252671 l -0.139659,0.084916 v -0.0738 z M 4.5009397,4.2481426 C 4.754792,4.1267065 5.0055674,3.7729338 5.0442637,3.481667 5.0779927,3.2277915 5.0516137,3.2445465 5.3942577,3.2593573 5.5612706,3.2665773 5.7182686,3.2810453 5.743142,3.2915093 5.796804,3.3140883 5.809511,3.2802533 5.833533,3.0508356 5.850164,2.89202 5.8490501,2.8885013 5.7679409,2.8437268 5.6986223,2.8054605 5.5958341,2.6793521 5.5682151,2.5986852 5.5642002,2.5869617 5.4936451,2.6142077 5.4114256,2.6592417 5.2127093,2.7680725 4.8046285,2.8978354 4.4853435,2.9537145 L 4.2264801,2.9990218 4.1474742,3.2268804 C 4.0434279,3.526964 4.0169053,3.9919603 4.0953358,4.1410033 4.1811311,4.3040407 4.3118876,4.338582 4.5009397,4.2481426 Z M 21.782955,2.7122948 c 0.0097,-0.023394 -0.299821,-0.048692 -0.325533,-0.026607 -0.0097,0.0083 -0.02245,0.095923 -0.0284,0.1947114 l -0.01082,0.1796135 0.178273,-0.1639449 c 0.09804,-0.090171 0.181961,-0.1728678 0.18648,-0.183773 z m -1.738517,0.069272 c 0,-0.076574 -0.01113,-0.079455 -0.138031,-0.035739 l -0.09166,0.031576 0.09441,0.033691 c 0.131441,0.046908 0.135286,0.04607 0.135286,-0.029527 z" id="path18070"/>
    </g>
  </g>
  <metadata id="metadata7980">
    <rdf:RDF>
      <cc:Work rdf:about="">
        <dc:title>Cahturbate logo</dc:title>
        <dc:date>8 sep 2021</dc:date>
        <cc:license rdf:resource="http://scripts.sil.org/OFL"/>
        <dc:rights>
          <cc:Agent>
            <dc:title>N/A</dc:title>
          </cc:Agent>
        </dc:rights>
      </cc:Work>
      <cc:License rdf:about="http://scripts.sil.org/OFL">
        <cc:permits rdf:resource="http://scripts.sil.org/pub/OFL/Reproduction"/>
        <cc:permits rdf:resource="http://scripts.sil.org/pub/OFL/Distribution"/>
        <cc:permits rdf:resource="http://scripts.sil.org/pub/OFL/Embedding"/>
        <cc:permits rdf:resource="http://scripts.sil.org/pub/OFL/DerivativeWorks"/>
        <cc:requires rdf:resource="http://scripts.sil.org/pub/OFL/Notice"/>
        <cc:requires rdf:resource="http://scripts.sil.org/pub/OFL/Attribution"/>
        <cc:requires rdf:resource="http://scripts.sil.org/pub/OFL/ShareAlike"/>
        <cc:requires rdf:resource="http://scripts.sil.org/pub/OFL/DerivativeRenaming"/>
        <cc:requires rdf:resource="http://scripts.sil.org/pub/OFL/BundlingWhenSelling"/>
      </cc:License>
    </rdf:RDF>
  </metadata>
</svg>