<?xml version="1.0" encoding="UTF-8"?>
<svg xmlns="http://www.w3.org/2000/svg" height="256" width="256" version="1.1" xmlns:xlink="http://www.w3.org/1999/xlink">
<defs>
<linearGradient id="b" y2="196.88" gradientUnits="userSpaceOnUse" x2="148.47" gradientTransform="translate(1.2857 795.08)" y1="196.88" x1="77.249">
<stop stop-color="#fff" offset=".005618"/>
<stop stop-color="#fcfbfa" offset=".020536"/>
<stop stop-color="#d7c7ba" offset=".22389"/>
<stop stop-color="#b99c85" offset=".41813"/>
<stop stop-color="#a17b5c" offset=".59799"/>
<stop stop-color="#90633e" offset=".76048"/>
<stop stop-color="#86542c" offset=".89985"/>
<stop stop-color="#824f26" offset="1"/>
</linearGradient>
<linearGradient id="c" y2="164.62" gradientUnits="userSpaceOnUse" x2="128.87" gradientTransform="translate(1.2857 795.08)" y1="179.43" x1="128.87">
<stop stop-color="#824f26" offset=".005618"/>
<stop stop-color="#5f3a1c" offset=".19033"/>
<stop stop-color="#362110" offset=".43913"/>
<stop stop-color="#180f07" offset=".66569"/>
<stop stop-color="#060402" offset=".86023"/>
<stop offset="1"/>
</linearGradient>
<linearGradient id="d" y2="178.06" gradientUnits="userSpaceOnUse" x2="167.86" gradientTransform="translate(1.2857 795.08)" y1="178.06" x1="89.883">
<stop stop-color="#fff" offset=".005618"/>
<stop stop-color="#fcfbfa" offset=".020536"/>
<stop stop-color="#d7c7ba" offset=".22389"/>
<stop stop-color="#b99c85" offset=".41813"/>
<stop stop-color="#a17b5c" offset=".59799"/>
<stop stop-color="#90633e" offset=".76048"/>
<stop stop-color="#86542c" offset=".89985"/>
<stop stop-color="#824f26" offset="1"/>
</linearGradient>
<linearGradient id="e" y2="186.29" gradientUnits="userSpaceOnUse" x2="186.04" gradientTransform="translate(1.2857 795.08)" y1="186.29" x1="72.252">
<stop stop-color="#c77700" offset=".005618"/>
<stop stop-color="#cb7d07" offset=".022793"/>
<stop stop-color="#e19f30" offset=".13152"/>
<stop stop-color="#f2b84e" offset=".23044"/>
<stop stop-color="#fbc760" offset=".31535"/>
<stop stop-color="#fc6" offset=".37640"/>
<stop stop-color="#f5c25c" offset=".48154"/>
<stop stop-color="#dca943" offset="0.657"/>
<stop stop-color="#b27f19" offset=".87984"/>
<stop stop-color="#960" offset="1"/>
</linearGradient>
<linearGradient id="f" y2="119.07" gradientUnits="userSpaceOnUse" x2="70.983" gradientTransform="translate(1.2857 -1.286)" y1="119.07" x1="130.97">
<stop stop-color="#f0f0f0" offset=".005618"/>
<stop stop-color="#eeedec" offset=".14274"/>
<stop stop-color="#e9e6df" offset=".28846"/>
<stop stop-color="#e1d9ca" offset=".43813"/>
<stop stop-color="#d5c7ac" offset=".59053"/>
<stop stop-color="#c6b186" offset=".74511"/>
<stop stop-color="#b39557" offset=".89929"/>
<stop stop-color="#a8843b" offset=".98315"/>
</linearGradient>
<linearGradient id="g" y2="128.79" gradientUnits="userSpaceOnUse" x2="119.12" gradientTransform="translate(1.2857 -1.286)" y1="128.79" x1="96.525">
<stop stop-color="#fff" offset=".005618"/>
<stop stop-color="#a8843b" offset="1"/>
</linearGradient>
<linearGradient id="h" y2="61.256" gradientUnits="userSpaceOnUse" x2="159.42" gradientTransform="translate(1.2857 795.08)" y1="61.256" x1="118.2">
<stop stop-color="#d6c5a0" offset=".005618"/>
<stop stop-color="#d4c29c" offset=".19188"/>
<stop stop-color="#ceba8f" offset=".38970"/>
<stop stop-color="#c5ac7a" offset=".59288"/>
<stop stop-color="#b7995c" offset=".79833"/>
<stop stop-color="#a8843b" offset=".98315"/>
</linearGradient>
<linearGradient id="i" y2="39.822" gradientUnits="userSpaceOnUse" x2="145.43" gradientTransform="translate(1.2857 795.08)" y1="39.822" x1="117.33">
<stop stop-color="#fff" offset=".005618"/>
<stop stop-color="#a8843b" offset="1"/>
</linearGradient>
<linearGradient id="j" y2="27.985" gradientUnits="userSpaceOnUse" x2="131.38" gradientTransform="translate(1.2857 795.08)" y1="42.276" x1="131.38">
<stop stop-color="#fff" offset=".005618"/>
<stop stop-color="#a8843b" offset="1"/>
</linearGradient>
<linearGradient id="k" y2="46.787" gradientUnits="userSpaceOnUse" x2="101.93" gradientTransform="translate(1.2857 795.08)" y1="46.787" x1="92.714">
<stop stop-color="#fff" offset=".005618"/>
<stop stop-color="#a8843b" offset="1"/>
</linearGradient>
<linearGradient id="l" y2="47.085" gradientUnits="userSpaceOnUse" x2="94.021" gradientTransform="translate(1.2857 795.08)" y1="47.085" x1="70.991">
<stop stop-color="#fff" offset=".005618"/>
<stop stop-color="#a8843b" offset="1"/>
</linearGradient>
<linearGradient id="m" y2="48.144" gradientUnits="userSpaceOnUse" x2="94.021" gradientTransform="translate(1.2857 -1.286)" y1="48.144" x1="70.952">
<stop stop-color="#fff" offset=".005618"/>
<stop stop-color="#fbfbfc" offset=".28258"/>
<stop stop-color="#eeeef2" offset=".57662"/>
<stop stop-color="#d9d9e3" offset=".87760"/>
<stop stop-color="#cecedb" offset="1"/>
</linearGradient>
<linearGradient id="n" y2="34.067" gradientUnits="userSpaceOnUse" x2="90.851" gradientTransform="translate(1.2857 -1.286)" y1="34.067" x1="80.734">
<stop stop-color="#fff" offset=".005618"/>
<stop stop-color="#fcfcfb" offset=".16022"/>
<stop stop-color="#f5f4ee" offset=".32445"/>
<stop stop-color="#e8e5d9" offset=".49317"/>
<stop stop-color="#d6d2bb" offset=".66499"/>
<stop stop-color="#bfb895" offset=".83738"/>
<stop stop-color="#a89f6f" offset=".98315"/>
</linearGradient>
<linearGradient id="o" y2="43.836" gradientUnits="userSpaceOnUse" x2="68.973" gradientTransform="translate(1.2857 795.08)" y1="43.836" x1="83.377">
<stop stop-color="#f0f0f0" offset=".005618"/>
<stop stop-color="#eeedec" offset=".14274"/>
<stop stop-color="#e9e6df" offset=".28846"/>
<stop stop-color="#e1d9ca" offset=".43813"/>
<stop stop-color="#d5c7ac" offset=".59053"/>
<stop stop-color="#c6b186" offset=".74511"/>
<stop stop-color="#b39557" offset=".89929"/>
<stop stop-color="#a8843b" offset=".98315"/>
</linearGradient>
<linearGradient id="p" y2="57.082" gradientUnits="userSpaceOnUse" x2="78.774" gradientTransform="translate(1.2857 -1.286)" y1="57.082" x1="70.28">
<stop stop-color="#fff" offset=".005618"/>
<stop stop-color="#e2e2e2" offset=".56180"/>
<stop stop-color="#cbc7b1" offset="1"/>
</linearGradient>
<linearGradient id="q" y2="49.035" gradientUnits="userSpaceOnUse" x2="71.369" gradientTransform="translate(1.2857 795.08)" y1="49.035" x1="71.111">
<stop stop-color="#fff" offset=".005618"/>
<stop stop-color="#e2e2e2" offset=".56180"/>
<stop stop-color="#cbc7b1" offset="1"/>
</linearGradient>
<linearGradient id="r" y2="26.689" gradientUnits="userSpaceOnUse" x2="177.42" gradientTransform="translate(1.2857 795.08)" y1="26.689" x1="152.83">
<stop stop-color="#e6e6e6" offset=".005618"/>
<stop stop-color="#e4e3e2" offset=".17653"/>
<stop stop-color="#dddcd5" offset=".35801"/>
<stop stop-color="#d2cfc0" offset=".54443"/>
<stop stop-color="#c3bda2" offset=".73422"/>
<stop stop-color="#afa77c" offset=".92490"/>
<stop stop-color="#a89f6f" offset=".98315"/>
</linearGradient>
<linearGradient id="s" y2="140.44" gradientUnits="userSpaceOnUse" x2="181.68" gradientTransform="translate(1.2857 795.08)" y1="140.44" x1="163.29">
<stop stop-color="#fff" offset=".005618"/>
<stop stop-color="#e2e2e2" offset=".56180"/>
<stop stop-color="#cbc7b1" offset="1"/>
</linearGradient>
<linearGradient id="t" y2="45.229" gradientUnits="userSpaceOnUse" x2="183.42" gradientTransform="translate(1.2857 795.08)" y1="45.229" x1="176.79">
<stop stop-color="#fff" offset=".005618"/>
<stop stop-color="#e2e2e2" offset=".56180"/>
<stop stop-color="#cbc7b1" offset="1"/>
</linearGradient>
<linearGradient id="u" y2="96.121" gradientUnits="userSpaceOnUse" x2="161.51" gradientTransform="translate(1.2857 795.08)" y1="96.121" x1="183.42">
<stop stop-color="#fff" offset=".005618"/>
<stop stop-color="#fcfcfb" offset=".16022"/>
<stop stop-color="#f5f4ee" offset=".32445"/>
<stop stop-color="#e8e5d9" offset=".49317"/>
<stop stop-color="#d6d2bb" offset=".66499"/>
<stop stop-color="#bfb895" offset=".83738"/>
<stop stop-color="#a89f6f" offset=".98315"/>
</linearGradient>
<linearGradient id="v" y2="95.163" gradientUnits="userSpaceOnUse" x2="183.42" gradientTransform="translate(1.2857 -1.286)" y1="95.163" x1="68.973">
<stop stop-color="#fff" offset=".005618"/>
<stop stop-color="#e2e2e2" offset=".41573"/>
<stop stop-color="#cbc7b1" offset="1"/>
</linearGradient>
<linearGradient id="w" y2="95.164" gradientUnits="userSpaceOnUse" x2="183.42" gradientTransform="translate(1.2857 795.08)" y1="95.164" x1="68.968">
<stop stop-color="#695600" offset=".005618"/>
<stop stop-color="#7d7a6d" offset="1"/>
</linearGradient>
<linearGradient id="x" y2="229.5" gradientUnits="userSpaceOnUse" x2="187.03" gradientTransform="translate(1.2857 795.08)" y1="229.5" x1="71.587">
<stop stop-color="#033" offset=".005618"/>
<stop stop-color="#003a33" offset=".022793"/>
<stop stop-color="#006333" offset=".13152"/>
<stop stop-color="#008133" offset=".23044"/>
<stop stop-color="#009333" offset=".31535"/>
<stop stop-color="#093" offset=".37640"/>
<stop stop-color="#00902a" offset=".55312"/>
<stop stop-color="#007910" offset=".84711"/>
<stop stop-color="#006a00" offset="1"/>
</linearGradient>
<linearGradient id="y" y2="164.62" gradientUnits="userSpaceOnUse" x2="129.31" gradientTransform="translate(1.2857 795.08)" y1="239.05" x1="129.31">
<stop stop-color="#c76200" offset=".005618"/>
<stop stop-color="#c77100" offset=".023780"/>
<stop stop-color="#c77700" offset=".039326"/>
<stop stop-color="#fc6" offset=".70225"/>
<stop stop-color="#f5c25c" offset=".75245"/>
<stop stop-color="#dca943" offset=".83623"/>
<stop stop-color="#b27f19" offset=".94263"/>
<stop stop-color="#960" offset="1"/>
</linearGradient>
<linearGradient id="a" y2="165.53" gradientUnits="userSpaceOnUse" x2="90.1" gradientTransform="translate(1.2857 795.08)" y1="244.58" x1="169.15">
<stop stop-color="#633" offset=".005618"/>
<stop stop-color="#6f3e2b" offset=".47398"/>
<stop stop-color="#744426" offset="1"/>
</linearGradient>
</defs>
<g transform="translate(0 -796.36)">
<path fill="url(#a)" d="m170.95 955.7-81.897 3.2676c-2.1455 0.0859-3.8408 1.8496-3.8408 3.9961v16.627c-14.662 10.135-15.69 14.684-15.69 16.5 0 0.1602 0.0078 0.3008 0.01465 0.4199 0.16992 3.0684 2.0088 8.3067 3.3594 11.803-0.86816 0.5136-1.8369 1.0859-1.8369 1.0859-1.1904 0.7031-1.9326 1.9727-1.9639 3.3555 0 0-0.21875 9.8594-0.21875 9.8887 0 0.8046 0.24316 1.5918 0.69727 2.2578 1.042 1.5234 11.622 14.836 61.817 13.066 50.794-1.7891 57.813-9.0137 60.65-16.262 0.18164-0.4649 0.27539-0.959 0.27539-1.4571v-9.1484c0-1.0039-0.37695-1.9707-1.0566-2.709 0 0-1.8486-2.0098-3.333-3.6231 1.1504-3.0117 3.6904-9.666 3.6904-9.666 0.17774-0.46288 0.26368-0.94725 0.26368-1.4258 0-1.0293-0.39746-2.041-1.1445-2.8027-1.0664-1.0859-9.5312-9.6348-15.627-13.49v-17.686c0-1.0898-0.44336-2.1309-1.2285-2.8848-0.78516-0.7539-1.8428-1.1562-2.9307-1.1133z"/>
<path fill="url(#y)" d="m89.209 962.96v18.732s-15.9 10.672-15.683 14.594c0.21777 3.9199 4.3564 13.721 4.3564 13.721l-4.792 2.8321-0.21777 9.8008s8.9297 13.068 58.374 11.326c49.441-1.7422 55.105-8.7129 57.066-13.721v-9.1484l-5.0098-5.4453 4.5742-11.979s-11.328-11.545-16.771-13.941v-20.037l-81.897 3.2656z"/>
<path fill="url(#x)" d="m131.25 1028.7c-46.349 1.6328-57.098-9.7481-58.261-11.18l-0.11328 5.0801s8.9297 13.068 58.374 11.326c49.441-1.7422 55.105-8.7129 57.066-13.721v-5.2285c-1.9609 5.0098-7.625 11.98-57.066 13.723z"/>
<path d="m145.3 809.88 0.39-0.49c-1.64 1.39-11.65 5.66-20.38 8.99-3.71-0.43-10.11-0.42-19.13 0.05-14.666 0.76-14.913 0.95-15.953 1.77-0.019 0.01-0.031 0.04-0.05 0.05-1.443 0.37-5.861 0.56-9.971 0.41-2.166-0.08-4.002 1.58-4.138 3.75-0.09 1.43-3.253 5.21-4.719 5.91-4.187 1.68-4.978 6.74-5.055 7.31-0.024 0.18-0.036 0.35-0.036 0.53 0 1.19 0.533 2.33 1.467 3.1 0 0 0.367 0.3 0.578 0.47-0.013 0.22-0.056 0.44-0.056 0.66 0 2.12 0.644 3.97 1.444 5.36-1.017 1.6-1.653 3.63-2.041 5.49-0.03 0.15-0.045 0.3-0.045 0.45 0 0.91 0.518 1.85 1.02 2.61 0.843 0.84 1.089 1.07 1.698 1.51 1.45 0.78 6.941 6.17 11.159 10.73 0.757 0.82 1.82 1.28 2.935 1.28h3.048c1.109 0 2.167-0.46 2.924-1.27 3.458-3.7 8.543-7.95 13.121-7.17 2.98 0.51 5.16 2.98 6.43 4.87-22.906 23.13-36.539 43.91-40.475 61.79-0.843 3.83-1.208 7.34-1.208 10.54 0 10.28 3.752 17.37 7.404 21.85 2.293 2.81 4.121 4.36 5.586 5.21 2.425 2.06 12.644 7.37 53.113 6.77 35.88-0.53 45.37-8.67 47.79-13.72 2.05-0.89 3.47-2.13 4.23-3.73 0.44-0.92 0.59-1.78 0.59-2.52 0-1.09-0.31-1.9-0.45-2.23-0.19-0.4-0.44-0.78-0.75-1.1-0.21-0.23-17.22-18.44-17.22-34.45 0-3.53 0.83-6.96 2.86-10.06 0.06-0.09 0.11-0.19 0.17-0.29 13.3-24.7 17.23-42.68 17.23-55.3 0-10.58-2.76-17.38-5.06-21.22 0.63-0.57 1.12-1.28 1.3-2.12 0.05-0.27 0.08-0.53 0.08-0.8 0-0.8-0.24-1.59-0.7-2.26l-2.84-4.13c-0.66-0.97-1.71-1.6-2.88-1.72 0 0-4.83-0.51-6.81-0.72-8.01-7.9-22.58-8.02-23.23-8.02-1.2 0-2.61 0.92-3.37 1.86zm-55.92 11.27c-0.168 0.25-0.325 0.51-0.432 0.79 0.118-0.31 0.27-0.57 0.432-0.79zm-7.541 144.81c0.441 0.21 0.838 0.34 1.206 0.43-0.425-0.08-0.822-0.22-1.206-0.43zm3.153 0.36c-0.184 0.06-0.371 0.08-0.56 0.11 0.197-0.03 0.398-0.05 0.56-0.11zm-1.509 0.15c0.143 0.02 0.281 0.04 0.411 0.04-0.14 0.01-0.271-0.03-0.411-0.04z" fill="url(#w)"/>
<path d="m148.66 15.656c-1.53 2.396-22.85 10.469-22.85 10.469-7.62-1.307-33.122 0.875-33.122 0.875-0.654 1.742-12.626 1.281-12.626 1.281-0.217 3.486-5.009 8.504-7.187 9.375s-2.625 4.156-2.625 4.156l2.406 1.938c-1.306 3.484 0.875 6.312 0.875 6.312l6.531 0.657c-0.435 1.089-5.656 1.75-5.656 1.75-1.743 0-2.844 5.219-2.844 5.219 1.96 0 12.844 11.781 12.844 11.781h3.063c18.511-19.821 27.441 1.093 27.441 1.093-71.881 71.228-31.16 95.598-31.16 95.598s6.533 6.56 50.53 5.9c44-0.65 44.66-12.87 44.66-12.87 5.01-1.31 3.94-3.69 3.94-3.69s-27.89-29.4-14.82-49.44c30.28-56.193 10-75.591 10-75.591l3.06-1.969-2.84-4.125-8.25-0.875c-6.53-7.841-21.37-7.844-21.37-7.844z" transform="translate(0 796.36)" fill="url(#v)"/>
<path fill="url(#u)" d="m182.87 951.86s-27.881-29.405-14.812-49.443c30.277-56.195 10.02-75.581 10.02-75.581l-4.5742 2.1787 1.5254 3.9199c8.0586 35.721-8.0586 49.226-11.762 75.58-3.7031 26.355 15.682 47.048 15.682 47.048 5.0098-1.3086 3.9219-3.7031 3.9219-3.7031z"/>
<path fill="url(#t)" d="m180.05 829.48-1.9766 1.2715s6.0938 5.834 6.5996 20.374c0.37891-11.363-2.543-18.238-4.623-21.646z"/>
<path fill="url(#s)" d="m164.65 916.59c-1.1836 15.701 12.77 32.982 17.016 37.847 1.8203-1.2266 1.207-2.5781 1.207-2.5781s-16.961-17.889-18.223-35.269z"/>
<path fill="url(#r)" d="m160 823.78 18.713-2.4414-0.41602-0.6084-8.2773-0.87109c-0.0332-0.04-0.0703-0.0771-0.10547-0.11816l-15.795 3.3857 5.8809 0.65332z"/>
<path d="m148.66 15.656c-1.53 2.396-22.85 10.469-22.85 10.469-7.62-1.307-33.122 0.875-33.122 0.875-0.654 1.742-12.626 1.281-12.626 1.281-0.217 3.486-5.009 8.504-7.187 9.375s-2.625 4.156-2.625 4.156l1.188 0.938c0.364-0.495 0.827-0.912 1.437-1.156 2.178-0.871 6.97-5.891 7.187-9.375 0 0 11.972 0.43 12.626-1.313 0 0 25.502-2.181 33.122-0.875 0 0 21.32-8.041 22.85-10.437 0 0 14.84 0.002 21.37 7.844l8.25 0.843 0.97 1.438 1.87-1.219-2.84-4.125-8.25-0.875c-6.53-7.841-21.37-7.844-21.37-7.844z" transform="translate(0 796.36)" fill="#fff"/>
<path fill="url(#q)" d="m72.655 844.04-0.25781-0.21094c0.04297 0.19629 0.0918 0.38477 0.14551 0.56348 0.03711-0.11817 0.06738-0.2334 0.1123-0.35254z"/>
<path d="m73.156 53.406c-0.998 1.5-1.594 4.282-1.594 4.282 0.243 0 0.615 0.184 1.094 0.5 0.457-0.987 1.063-1.782 1.75-1.782 0 0 5.221-0.661 5.656-1.75l-6.531-0.656s-0.164-0.214-0.375-0.594z" transform="translate(0 796.36)" fill="url(#p)"/>
<path fill="url(#o)" d="m73.526 846.44 3.4521 0.3457c-0.61524-0.42871-1.1055-0.68555-1.4004-0.68555 0 0 1.1641-5.5918 3.0273-5.5918 0 0 5.5918-0.69922 6.0576-1.8633l-6.9893-0.69921s-2.3291-3.0283-0.93164-6.7559l-0.1748-0.14356c-1.333 1.459-2.7568 2.6035-3.6943 2.9785-2.1777 0.87109-2.6143 4.1387-2.6143 4.1387l2.3965 1.9609c-1.3066 3.4844 0.87109 6.3154 0.87109 6.3154z"/>
<path d="m88.844 29.344c-2.289 0.105-4.219 4.625-4.219 4.625l-2.594 1.719s12.83 2.627 9.563-3.907c-0.919-1.837-1.855-2.479-2.75-2.437z" transform="translate(0 796.36)" fill="url(#n)"/>
<path d="m80.781 43c-3.479 0.026-6.644 0.345-8.343 0.562l0.218 0.188c-1.306 3.484 0.875 6.312 0.875 6.312l6.469 0.657c12.337-0.103 15.312-3.25 15.312-3.25-2.074-3.688-8.731-4.513-14.531-4.469z" transform="translate(0 796.36)" fill="url(#m)"/>
<path fill="url(#l)" d="m72.432 839.94 0.22266 0.18262c-0.21289 0.56836-0.32617 1.1162-0.37793 1.6406 5.2148-0.58008 17.262-1.3564 21.142 3.2061 1.4014-0.625 1.8887-1.1445 1.8887-1.1445-3.3193-5.9004-18.342-4.4648-22.875-3.8848z"/>
<path fill="url(#k)" d="m94 835.98s9.585 4.1377 8.0596 11.762c0 0 5.6631-10.237-8.0596-11.762z"/>
<path fill="url(#j)" d="m118.61 833.37 7.8408-3.0488s3.9199 13.723 15.9 2.831l4.3574 1.3076s-6.3164-20.039-18.515-6.9707l-9.584 5.8809z"/>
<path fill="url(#i)" d="m142.35 833.15c-11.199 10.183-15.355-1.1465-15.849-2.665l-7.8926 4.8438 7.8408-3.0498s3.9199 13.723 15.9 2.832l4.3574 1.3066s-0.28906-0.91113-0.85937-2.2178l-3.498-1.0498z"/>
<path fill="#fff" d="m138 833.59s3.7031-7.623-6.3164-6.5342c0 0 11.762-4.3555 6.3164 6.5342z"/>
<path fill="url(#h)" d="m158.33 838.06c-1.2598 0.40039-2.0234 1.6797-1.7774 2.9785 1.6856 8.8838 0.32422 15.565-4.0449 19.857-9.9238 9.752-32.27 5.2412-32.494 5.1943-1.3721-0.28516-2.7246 0.56152-3.0674 1.919-0.34277 1.3584 0.44433 2.7451 1.7861 3.1445 19.184 5.7158 32.449 4.5527 39.428-3.459 9.168-10.523 3.4121-28.065 3.3398-28.226-0.54687-1.2041-1.9082-1.8086-3.1699-1.4092z"/>
<path d="m97.812 101.38l22.528 52.28c1.31-29.41-22.528-52.28-22.528-52.28z" transform="translate(0 796.36)" fill="url(#g)"/>
<path d="m118.44 67l-3.53 3.562c-71.881 71.228-31.16 95.598-31.16 95.598s6.34 6.33 48.5 5.9c-37.701-0.39-43.625-6.31-43.625-6.31s-42.2-25.29 29.815-98.75z" transform="translate(0 796.36)" fill="url(#f)"/>
<path fill="url(#e)" d="m171.11 959.7-81.897 3.2656v18.732s-15.424 10.355-15.671 14.41c11.814 4.1934 31.401 6.9356 53.569 6.9356 27.079 0 50.308-4.0899 60.222-9.918-2.3242-2.3203-11.492-11.307-16.223-13.389v-20.037z"/>
<path fill="url(#d)" d="m91.169 964.85v15.48c9.917 2.7031 22.69 4.1992 36.266 4.1992 16.23 0 31.607-2.2188 41.711-5.9336v-16.857c-3.7852 0.15234-74.475 2.9707-77.977 3.1113z"/>
<path fill="url(#c)" d="m89.209 970.46c9.8213 2.5156 22.699 4.0449 36.81 4.0449 18.535 0 34.949-2.6348 45.088-6.6836v-8.127l-81.897 3.2656v7.5z"/>
<path fill="url(#b)" d="m89.426 984.75s-10.021 6.0996-10.892 9.3652c0 0 22.435 9.3672 71.226 2.6153l-60.334-11.98z"/>
</g>
</svg>