<svg width="410" height="100" xmlns="http://www.w3.org/2000/svg">
  <path fill="#444" d="M404.98 69.25c-1.269-.92-2.275-1.05-3.106.7-14.259 30.835-38.272 15.44-35.866 16.795 5.336-2.45 19.333-13.647 17.233-29.174-1.268-9.491-9.404-13.69-18.064-12.16-15.09 2.625-20.601 18.896-17.802 33.286.481 2.493 1.356 4.505 2.275 6.517-17.015 13.865-23.794-12.378-24.582-15.527-.043-.175 13.166-11.154 16.84-37.353 3.849-27.425-4.899-32.455-13.865-32.28-16.577.306-21.039 34.904-15.047 63.728-.481.131-2.843 1.443-6.604 1.575-2.712-8.53-14.303-16.009-17.321-13.122-7.567 7.217 1.837 21.3 8.486 22.394-3.981 24.538-28.912 18.458-24.276-12.29 8.092-15.047 14.303-37.485 13.166-51C286.053 6.57 282.51.142 274.506.448c-15.396.612-17.058 35.21-15.265 59.791-.087-.612-.962 2.974-7.261 4.768-1.487-8.267-14.827-16.621-17.976-12.597-5.861 7.48 4.33 20.82 9.141 21.738-3.98 24.538-28.911 18.458-24.275-12.29 8.136-15.047 14.303-37.441 13.209-50.956-.393-4.768-3.936-11.198-11.941-10.891-15.396.612-17.058 35.21-15.264 59.79-.088-.612-.963 3.106-7.524 4.856-.218-10.76-13.602-15.659-16.839-12.247-5.73 6.123 1.312 18.676 7.829 21.738-3.98 24.538-28.911 18.458-24.275-12.29 8.092-15.047 14.303-37.485 13.166-51-.35-4.724-3.893-11.154-11.898-10.847-15.396.612-16.62 36.959-14.827 61.54-5.074 21.739-22.088 48.857-19.858-5.51.219-3.806.438-5.25-1.443-6.693-1.443-1.093-4.68-.569-6.43-.525-2.143.088-2.711 1.356-3.149 3.237-1.093 4.899-1.312 9.666-1.487 16.183-.087 3.062-.35 4.462-1.531 8.617-1.181 4.155-7.829 11.722-11.503 10.454-5.074-1.75-3.412-16.053-2.45-25.894.788-7.785-1.749-11.24-8.222-12.51-3.806-.786-6.124-.655-10.06-1.924-3.762-1.18-4.593-8.266-12.553-5.904-4.374 1.312-1.575 10.54-2.625 17.408-5.161 33.722-15.877 34.64-20.863 18.282C70.726 21.836 54.762.185 45.445.185c-9.71 0-20.82 6.693-16.14 49.557-2.274-.656-2.974-1.006-5.511-1.006C9.666 48.692 0 60.152 0 74.279c0 14.128 9.666 25.588 23.838 25.588 8.354 0 14.215-3.806 18.676-9.667 2.887 4.156 6.43 9.754 12.903 9.492 19.245-.744 24.844-40.24 25.5-42.47 2.056.305 4.024.918 5.905 1.224 3.15.481 3.412 1.75 3.324 4.899-.83 26.855 4.112 36.26 15.353 36.26 6.254 0 11.853-6.168 15.702-10.542 2.887 5.949 7.435 10.366 13.603 10.541 14.871.35 20.601-23.356 20.076-20.25-.394 2.448 4.811 20.075 20.164 20.163 18.982.087 22.525-20.776 22.919-24.275.087-.613.044-.7 0 0v.218c6.036-1.137 9.141-4.33 9.141-4.33s4.855 28.737 22.745 28.43c18.589-.35 22.131-19.2 22.569-22.875.087-.787.044-.875 0 0v.087c7.173-2.624 9.054-5.204 9.054-5.204s3.849 28.168 22.744 28.43c16.84.219 23.094-17.058 23.138-24.275 2.843.043 8.092-1.706 7.961-1.793 0 0 6.167 24.625 23.4 25.893 8.092.612 14.171-4.549 17.627-6.91 8.135 6.604 35.21 15.002 52.312-13.997 2.449-4.112-2.756-9.054-3.674-9.667zM23.138 90.287c-8.267 0-13.56-7.654-13.56-15.877s4.856-15.878 13.123-15.878c3.717 0 5.773.394 8.704 2.93.524 2.057 2.012 6.824 2.755 9.011.962 2.887 2.143 5.38 3.28 8.048-1.705 6.91-7.129 11.766-14.302 11.766zm20.12-28.605c-.35-.569-.263-.22-.656-.744-1.487-4.111-4.418-13.297-4.768-23.75-.393-11.81 1.575-25.675 7.392-25.675 3.937 0 8.136 28.08-1.968 50.169zm116.389-12.291c-.918-6.998-.962-38.272 6.518-37.397 4.155 1.662-2.625 31.142-6.518 37.397zm54.805 0c-.918-6.998-.962-38.272 6.518-37.397 4.155 1.662-2.625 31.142-6.518 37.397zm54.368.437c-.919-6.998-.962-38.271 6.517-37.397 4.155 1.619-2.624 31.143-6.517 37.397zm60.01-39.715c6.867-.7 6.561 29.262-7.173 48.157-1.794-6.823-4.505-45.795 7.173-48.157zm28.868 64.515c-2.187-11.153 3.499-18.458 9.36-19.245 2.056-.306 5.03 1.006 5.598 3.5.963 4.68-.131 11.634-13.296 20.425.044.044-1.181-2.23-1.662-4.68zM125.05 40.25c4.68 0 8.485-3.805 8.485-8.485s-3.805-8.485-8.485-8.485-8.486 3.805-8.486 8.485 3.806 8.485 8.486 8.485z"/>
</svg>