<?xml version="1.0" encoding="UTF-8" standalone="no"?>
<!DOCTYPE svg PUBLIC "-//W3C//DTD SVG 20010904//EN" "http://www.w3.org/TR/2001/REC-SVG-20010904/DTD/svg10.dtd">
<svg version="1.0" xmlns="http://www.w3.org/2000/svg" width="1581.000000pt" height="441.000000pt" viewBox="0 0 1581.000000 441.000000" preserveAspectRatio="xMidYMid meet">
<metadata>
Created by potrace 1.15, written by Peter Selinger 2001-2017
</metadata>
<g transform="translate(0.000000,441.000000) scale(0.100000,-0.100000)" fill="#000000" stroke="none">
<path d="M0 2205 c0 -1213 3 -2205 7 -2205 6 0 821 151 921 171 l52 10 0 810 0 809 310 0 310 0 0 148 c0 81 3 292 7 470 l6 322 -316 0 -317 0 0 355 0 355 365 0 c201 0 365 2 365 5 0 11 80 865 85 908 l6 47 -901 0 -900 0 0 -2205z"/>
<path d="M14958 4281 l-798 -66 0 -1992 0 -1992 33 -5 c29 -5 1574 -117 1605 -116 9 0 12 106 12 495 l0 495 -340 0 -340 0 0 360 0 360 290 0 290 0 0 430 0 430 -300 0 -300 0 0 285 0 285 23 4 c12 3 114 7 227 11 113 3 260 8 328 12 l122 6 0 533 0 534 -27 -1 c-16 -1 -387 -31 -825 -68z"/>
<path d="M9835 4143 c10 -100 124 -1607 122 -1609 -1 -2 -148 359 -327 802 -178 443 -328 810 -332 817 -6 11 -282 -40 -735 -136 l-43 -9 0 -1719 0 -1719 445 0 445 0 -5 72 c-10 134 -47 1242 -43 1286 3 39 33 -29 317 -715 172 -417 318 -762 322 -768 6 -6 145 3 381 23 205 18 373 34 373 35 1 1 -4 722 -11 1602 -7 880 -13 1711 -13 1848 l-1 247 -450 0 -451 0 6 -57z"/>
<path d="M2795 4139 c-598 -40 -927 -449 -1031 -1279 -21 -172 -30 -756 -15 -960 50 -662 229 -1092 547 -1311 171 -117 428 -180 682 -165 289 16 486 98 663 275 145 145 224 281 300 513 106 324 154 808 130 1312 -27 564 -112 915 -287 1184 -167 256 -431 409 -739 428 -49 3 -101 6 -115 8 -14 1 -74 -1 -135 -5z m141 -786 c73 -79 104 -394 104 -1068 0 -830 -52 -1175 -166 -1101 -49 33 -86 194 -104 461 -13 195 -13 1088 0 1275 19 264 53 410 104 445 28 20 33 19 62 -12z"/>
<path d="M4200 2321 l0 -1821 459 0 458 0 6 127 c4 71 12 301 18 513 6 212 14 398 18 413 5 21 48 -114 180 -570 96 -329 177 -602 181 -606 8 -9 946 65 956 75 3 4 -101 331 -231 729 l-236 722 50 44 c166 145 303 425 342 702 17 121 6 421 -20 532 -100 435 -365 773 -703 899 -147 54 -135 53 -830 57 l-648 4 0 -1820z m1031 958 c71 -35 129 -125 160 -249 21 -83 18 -346 -5 -430 -43 -158 -119 -250 -233 -285 l-23 -6 0 500 0 501 33 -7 c17 -3 48 -14 68 -24z"/>
<path d="M6430 3665 l0 -465 255 0 255 0 0 -1340 0 -1340 480 0 480 0 0 1260 0 1260 260 0 260 0 0 465 0 465 -22 4 c-21 5 -1928 157 -1955 156 -10 0 -13 -100 -13 -465z"/>
<path d="M10940 2215 l0 -1815 495 0 495 0 0 1815 0 1815 -495 0 -495 0 0 -1815z"/>
<path d="M13060 3904 c-542 -29 -993 -53 -1002 -53 -17 -1 -18 -30 -18 -471 l0 -470 255 0 255 0 0 -1315 0 -1315 485 0 485 0 0 1370 0 1370 270 0 270 0 0 470 c0 259 -3 469 -7 469 -5 -1 -451 -25 -993 -55z"/>
</g>
</svg>