<?xml version="1.0" encoding="UTF-8"?>
<svg xmlns:xlink="http://www.w3.org/1999/xlink" xmlns="http://www.w3.org/2000/svg" viewBox="0 0 1631.76 517.06" width="1631.76" height="517.06" class="symbol symbol-logo-outline-full"><path d="M1510,137.41a119.48,119.48,0,0,0-75.43,27l60.12-88.74L1383.6,151.05,1411,19.51l-73.82,112.37L1311.82,0l-25.16,131.87-73.71-112,27.2,131.23-110.9-75,60,88.07a119.78,119.78,0,0,0-75.55-26.71c-41.34,0-77.15,20.59-99.43,51.75-22-31.16-58-51.75-99.3-51.75a121.52,121.52,0,0,0-99.24,51.75,121.49,121.49,0,0,0-99.21-51.75c-40.94,0-77.15,20.59-99.33,51.75a120.86,120.86,0,0,0-99-51.75c-41,0-77.23,20.59-99.53,51.75a120.74,120.74,0,0,0-99-51.75c-41,0-77.12,20.59-99.44,51.75a120.69,120.69,0,0,0-99.12-51.75C54.43,137.41,0,191.87,0,258.72S54.43,380,121.12,380a120.32,120.32,0,0,0,99.12-51.62C242.57,359.61,278.73,380,319.69,380a120.37,120.37,0,0,0,99-51.62C441,359.61,477.28,380,518.25,380a120.49,120.49,0,0,0,99-51.62,121.26,121.26,0,0,0,198.54,0,121.26,121.26,0,0,0,198.54,0c22.28,31.26,58.09,51.62,99.43,51.62,28.3,0,54.33-9.83,75.55-25.91l-60,87.21,111.12-75.21-27.22,131.36,73.73-112.09L1312,517.06l25.5-131.72,73.71,111.88-27.42-131.37,111.12,75.34-59.15-86.55A121.82,121.82,0,0,0,1510,380c67.4,0,121.71-54.42,121.71-121.26S1577.44,137.41,1510,137.41Zm.76,225.84c-46,0-78.72-26.79-121-53.28l51.68,77.52-79.84-55.27,24.57,98.27-55.27-86-18.36,98.26-18.49-98.26-55.27,86,24.57-98.27-79.85,55.27,51.14-76.71c-42.47,26.22-76.33,52.46-121.17,52.46a104.7,104.7,0,0,1-99.32-71.68,104.65,104.65,0,0,1-198.64,0,104.65,104.65,0,0,1-198.64,0,104.65,104.65,0,0,1-198.64,0,104.65,104.65,0,0,1-198.64,0,104.73,104.73,0,1,1,0-66.1,104.65,104.65,0,0,1,198.64,0,104.65,104.65,0,0,1,198.64,0,104.65,104.65,0,0,1,198.64,0,104.65,104.65,0,0,1,198.64,0,104.7,104.7,0,0,1,99.32-71.68c46.59,0,78.7,26.25,121.17,52.46l-51.14-76.71,79.85,55.28-24.57-98.27,55.27,86,18.38-98.27L1331,172.55l55.27-86-24.57,98.27,79.84-55.28-50.64,76c42.19-26,78.93-51.72,119.94-51.72a104.73,104.73,0,0,1,0,209.46Z" fill="#000000"/><path d="M136.2,280.15a8.92,8.92,0,0,1-2.94,6.85c-1.92,1.72-4.39,2.16-7.18,2.16a24,24,0,0,1-18.81-8.58c-5.25-5.91-7.81-13.08-7.81-21.85s2.67-16.52,8.4-22.61c6.21-6.63,14.41-10,24.91-10a55.78,55.78,0,0,1,15.21,2,63,63,0,0,1,10.67,3.53l3.81-14.57c-9.32-3.41-14.58-5.11-15.65-5.33-6.91-1.74-15.26-2.47-25.82-2.47-16.12,0-29.36,4.71-39.86,14.36C70.9,233,66,244.69,66,258.6c0,13.6,5.25,25.2,15.2,34.84a52.57,52.57,0,0,0,36.92,14.26,73.35,73.35,0,0,0,15.16-1.85c12.42-2.57,20.39-3.85,23.52-3.85a18.05,18.05,0,0,1,10.4,2.77V260.23h-31Z" fill="#000000"/><path d="M308.4,212.23l-43.31,92.56H283.8l6.92-15h42.42l6.9,15h34.07l-43.5-92.56Zm-9.81,60.86,13.24-28.58,13.32,28.58Z" fill="#000000"/><polygon points="517.91 252.84 489.36 212.22 463.43 212.22 463.43 304.78 480.56 304.78 480.56 253.16 500.7 282.49 517.91 282.49 541.47 248.89 541.47 304.78 572.38 304.78 572.38 212.22 546.73 212.22 517.91 252.84" fill="#000000"/><polygon points="677.93 304.78 754.15 304.78 754.15 287.99 709.2 287.99 709.2 263.12 740.28 263.12 740.28 246.19 709.2 246.19 709.2 229.06 754.15 229.06 754.15 212.22 677.93 212.22 677.93 304.78" fill="#000000"/><path d="M924.15,245.87c-6.33-2.34-10.84-4.62-13.66-6.65s-3.9-4-3.9-5.65a5,5,0,0,1,2.39-4.4,13.87,13.87,0,0,1,6.92-1.63,57.86,57.86,0,0,1,16,2.27,70.33,70.33,0,0,1,14,6.76L954.25,224A70.11,70.11,0,0,0,936,214.15a66.35,66.35,0,0,0-24.85-4.79q-16.81,0-27.49,8.68c-6.69,5.34-10.17,12-10.17,19.93,0,6.43,2.28,11.89,7,16.89s11.62,9.48,21.33,13c14.46,5.57,21.74,10.1,21.74,13.61A6.14,6.14,0,0,1,920.4,287c-2.36,1.72-5.24,2.16-9.21,2.16-6.11,0-11.68-.76-16.67-2.92a54.94,54.94,0,0,1-14.66-8.9l-9.34,11.38a61.93,61.93,0,0,0,18.58,13.18,59.16,59.16,0,0,0,26.15,5.8c13.07,0,23.57-2.92,31.63-8.9,7.49-5.57,11.13-12,11.13-19.48a25.2,25.2,0,0,0-7-17.78C945.58,255.5,936.79,249.93,924.15,245.87Z" fill="#000000"/><path d="M1157.51,221.11c-7.93-6-17.35-8.88-28.29-8.88h-52.83v92.56h31.3V273.94h21.53c10.94,0,20.36-3.13,28.29-9.21,7.72-6,11.48-13.38,11.48-21.84S1165.23,227.13,1157.51,221.11Zm-24.43,31.38a20.71,20.71,0,0,1-13.05,4.11h-12.34V229.06H1120a22.34,22.34,0,0,1,13.05,4.18c3.55,2.78,5.36,6.19,5.36,9.66C1138.43,246.85,1136.62,249.93,1133.07,252.48Z" fill="#000000"/><path d="M1349.28,223.58c-9.75-9.53-21.94-14.23-36.65-14.23-14.22,0-26.44,4.71-36.61,14.23-9.87,9.66-14.9,21.35-14.9,35s5,25.2,14.9,34.84a52.15,52.15,0,0,0,36.61,14.26c14.7,0,26.9-4.72,36.65-14.26,10.41-9.64,15.33-21.24,15.33-34.84S1359.45,233.24,1349.28,223.58Zm-23.56,56.78c-3.74,6.13-7.95,8.81-12.87,8.81s-9.4-2.61-13.16-8.58a46.53,46.53,0,0,1,0-43.73c4-6.19,8.24-9.33,13.16-9.33s9.57,3.14,13.09,9c3.74,6.09,5.56,13.37,5.56,22C1331.5,267.07,1329.69,274.48,1325.72,280.36Z" fill="#000000"/><polygon points="1464.79 229.06 1495.11 229.06 1495.11 304.78 1525.79 304.78 1525.79 229.06 1555.98 229.06 1555.98 212.22 1464.79 212.22 1464.79 229.06" fill="#000000"/></svg>