<?xml version="1.0" encoding="UTF-8" standalone="no"?>
<svg xmlns:dc="http://purl.org/dc/elements/1.1/" xmlns:cc="http://creativecommons.org/ns#" xmlns:rdf="http://www.w3.org/1999/02/22-rdf-syntax-ns#" xmlns:svg="http://www.w3.org/2000/svg" xmlns="http://www.w3.org/2000/svg" viewBox="0 0 223.33333 204.89906" height="204.89906" width="223.33333" xml:space="preserve" id="svg4504" version="1.1"><metadata id="metadata4510"><rdf:RDF><cc:Work rdf:about=""><dc:format>image/svg+xml</dc:format><dc:type rdf:resource="http://purl.org/dc/dcmitype/StillImage"/><dc:title/></cc:Work></rdf:RDF></metadata><defs id="defs4508"><clipPath id="clipPath4520" clipPathUnits="userSpaceOnUse"><path id="path4518" d="M 0,600 H 600 V 0 H 0 Z"/></clipPath></defs><g transform="matrix(1.3333333,0,0,-1.3333333,-288.33333,502.44932)" id="g4512"><g id="g4514"><g clip-path="url(#clipPath4520)" id="g4516"><g transform="translate(300,362.4287)" id="g4522"><path id="path4524" style="fill:#33a0ff;fill-opacity:1;fill-rule:nonzero;stroke:none" d="m 0,0 c -44.183,0 -80,-35.817 -80,-80 0,-15.254 4.271,-29.509 11.679,-41.639 l 20.9,22.191 105.783,-0.661 -0.766,-35.407 C 71.467,-121.129 80,-101.562 80,-80 80,-35.817 44.183,0 0,0"/></g><g transform="translate(263.8363,339.6274)" id="g4526"><path id="path4528" style="fill:#3dcc8e;fill-opacity:1;fill-rule:nonzero;stroke:none" d="m 0,0 c -3.899,0.239 -6.887,3.608 -6.66,7.511 l 0.529,8.547 c 0.232,3.739 3.35,6.669 7.097,6.669 0.14,0 0.281,-0.004 0.422,-0.013 L 9.93,22.185 c 1.89,-0.115 3.627,-0.962 4.885,-2.386 1.26,-1.424 1.888,-3.256 1.767,-5.156 L 16.058,6.129 C 16.027,5.637 15.928,5.247 15.867,5.034 L 15.563,3.547 9.942,-0.615 Z"/></g><g transform="translate(264.8025,366.6468)" id="g4530"><path id="path4532" style="fill:#282828;fill-opacity:1;fill-rule:nonzero;stroke:none" d="m 0,0 c -6.01,0 -11.009,-4.698 -11.381,-10.696 l -0.529,-8.532 -10e-4,-0.016 -0.001,-0.015 c -0.364,-6.259 4.43,-11.662 10.686,-12.045 l 8.375,-0.518 3.123,-0.193 2.515,1.862 3.042,2.251 2.643,1.957 0.607,2.967 c 0.12,0.455 0.25,1.068 0.297,1.818 l 0.524,8.522 c 0.192,3.045 -0.817,5.98 -2.839,8.266 -2.013,2.278 -4.8,3.638 -7.843,3.823 L 0.7,-0.021 H 0.688 L 0.675,-0.02 C 0.451,-0.007 0.224,0 0,0 m 6.378,-18.621 0.314,5.075 -5.076,0.314 -0.315,-5.076 5.077,-0.313 M 0,-8.585 c 0.056,0 0.113,-0.002 0.17,-0.005 l 8.528,-0.529 c 0.747,-0.045 1.436,-0.38 1.933,-0.943 0.5,-0.565 0.749,-1.29 0.701,-2.041 l -0.525,-8.524 c -0.008,-0.132 -0.061,-0.248 -0.086,-0.374 l -3.042,-2.252 -8.38,0.518 c -1.546,0.095 -2.73,1.43 -2.64,2.977 l 0.529,8.531 c 0.092,1.489 1.327,2.642 2.812,2.642"/></g><g transform="translate(300,320.9623)" id="g4534"><path id="path4536" style="fill:#ffffff;fill-opacity:1;fill-rule:nonzero;stroke:none" d="m 0,0 c -33.402,0 -60.48,-27.078 -60.48,-60.48 0,-12.421 3.746,-23.965 10.167,-33.569 H 52.742 c 5.424,9.907 7.738,21.637 7.738,33.569 C 60.48,-29.566 33.402,0 0,0"/></g><g transform="translate(299.9999,325.255)" id="g4538"><path id="path4540" style="fill:#282827;fill-opacity:1;fill-rule:nonzero;stroke:none" d="m 0,0 c -35.716,0 -64.773,-29.057 -64.773,-64.773 0,-12.28 3.436,-23.774 9.396,-33.569 h 10.347 c -7.005,9.372 -11.157,20.995 -11.157,33.569 0,30.982 25.205,56.188 56.187,56.188 14.716,0 28.811,-6.161 39.688,-17.348 10.486,-10.783 16.5,-24.94 16.5,-38.84 0,-9.517 -1.572,-22.45 -8.405,-33.569 h 9.799 c 4.729,9.519 7.191,20.9 7.191,33.569 0,16.116 -6.899,32.454 -18.929,44.826 C 33.336,-7.084 17.055,0 0,0"/></g><g transform="translate(287.7891,242.9254)" id="g4542"><path id="path4544" style="fill:#282827;fill-opacity:1;fill-rule:nonzero;stroke:none" d="m 0,0 c 0,-3.207 -2.599,-5.806 -5.806,-5.806 -3.207,0 -5.806,2.599 -5.806,5.806 0,3.207 2.599,5.806 5.806,5.806 C -2.599,5.806 0,3.207 0,0"/></g><g transform="translate(323.8228,242.9254)" id="g4546"><path id="path4548" style="fill:#282827;fill-opacity:1;fill-rule:nonzero;stroke:none" d="m 0,0 c 0,-3.207 -2.599,-5.806 -5.806,-5.806 -3.207,0 -5.806,2.599 -5.806,5.806 0,3.207 2.599,5.806 5.806,5.806 C -2.599,5.806 0,3.207 0,0"/></g><g transform="translate(234.0117,245.2287)" id="g4550"><path id="path4552" style="fill:#ff6f21;fill-opacity:1;fill-rule:nonzero;stroke:none" d="M 0,0 32.228,34.18 24.471,9.861 c 25.161,18.31 51.575,15.415 70.174,9.953 19.741,-5.796 33.562,11.639 20.032,30.238 C 108.248,58.891 99.429,66.23 89.412,70.681 63.139,82.352 36.724,75.547 18.905,57.547 0.029,38.479 0,17.33 0,0"/></g><g transform="translate(296.9716,317.3886)" id="g4554"><path id="path4556" style="fill:#282827;fill-opacity:1;fill-rule:nonzero;stroke:none" d="m 0,0 c -3.741,0 -7.456,-0.373 -11.107,-1.124 -11.135,-2.29 -21.473,-7.999 -29.897,-16.509 -13.993,-14.135 -16.901,-29.306 -17.505,-43.549 l 37.603,39.881 -9.955,-31.208 c 18.708,9.781 40.099,11.228 63.755,4.282 7.528,-2.21 14.351,-0.535 17.808,4.371 3.551,5.041 2.633,12.227 -2.456,19.223 -6.081,8.36 -14.44,15.189 -23.537,19.231 C 16.641,-1.818 8.259,0 0,0 m -67.252,-82.97 v 10.81 c 0,17.917 0,40.215 20.146,60.567 9.62,9.717 21.47,16.245 34.269,18.878 13.474,2.772 27.662,1.098 41.032,-4.841 10.453,-4.644 20.04,-12.467 26.994,-22.026 7.243,-9.958 8.213,-21.154 2.531,-29.218 -5.555,-7.885 -16.247,-10.892 -27.245,-7.664 -25.364,7.448 -47.718,4.317 -66.438,-9.306 l -10.6,-7.713 6.005,18.825 z"/></g><g transform="translate(315.4395,324.1835)" id="g4558"><path id="path4560" style="fill:#ff6f21;fill-opacity:1;fill-rule:nonzero;stroke:none" d="m 0,0 c -3.821,-9.956 -14.901,-15.515 -25.167,-12.625 -11.566,3.257 -17.673,12.552 -16.207,24.342 1.459,11.725 9.382,22.005 18.515,34.677 -7.502,-15.969 -1.129,-17.465 0.887,-17.385 1.992,0.079 4.9,-0.261 9.039,-1.634 C -1.656,23.632 4.305,11.218 0,0"/></g><g transform="translate(285.8294,353.465)" id="g4562"><path id="path4564" style="fill:#282827;fill-opacity:1;fill-rule:nonzero;stroke:none" d="m 0,0 c -3.962,-6.212 -6.744,-11.986 -7.504,-18.094 -1.203,-9.673 3.698,-17.03 13.111,-19.68 8.172,-2.301 16.954,2.105 19.996,10.03 1.649,4.298 1.477,8.947 -0.484,13.091 -1.963,4.148 -5.441,7.228 -9.794,8.672 -3.82,1.268 -6.198,1.469 -7.516,1.419 C 4.85,-4.678 2.119,-3.3 0.509,-0.872 0.323,-0.592 0.153,-0.302 0,0 m 9.977,-46.963 c -2.226,0 -4.475,0.299 -6.697,0.925 -6.666,1.877 -11.993,5.587 -15.404,10.729 -3.401,5.126 -4.749,11.445 -3.9,18.275 1.5,12.057 8.931,22.329 17.535,34.223 0.58,0.802 1.166,1.612 1.758,2.433 l 7.367,-4.335 C 7,7.546 7.417,4.68 7.608,4.026 c 2.925,0.089 6.431,-0.534 10.421,-1.858 6.601,-2.191 11.875,-6.86 14.85,-13.149 2.974,-6.284 3.236,-13.33 0.739,-19.839 C 29.83,-40.689 20.172,-46.963 9.977,-46.963"/></g><g transform="translate(304.5916,286.1613)" id="g4566"><path id="path4568" style="fill:#3dcc8e;fill-opacity:1;fill-rule:nonzero;stroke:none" d="m 0,0 c -1.503,0 -2.911,0.668 -3.861,1.832 l -2.888,3.537 c -1.674,2.05 -1.434,5.049 0.501,6.811 -0.625,0.306 -1.184,0.747 -1.638,1.303 l -0.659,0.807 c -1.734,2.123 -1.417,5.26 0.705,6.993 l 0.415,0.339 -4.23,5.192 c -1.881,2.304 -1.536,5.713 0.77,7.597 0.967,0.788 2.179,1.219 3.417,1.219 1.626,0 3.151,-0.722 4.182,-1.982 L 14.757,11.441 C 16.635,9.14 16.29,5.731 13.984,3.847 13.348,3.327 12.586,2.953 11.784,2.768 11.386,2.676 10.976,2.63 10.567,2.63 v 0 C 9.161,2.63 7.832,3.169 6.831,4.128 L 3.15,1.123 C 2.263,0.399 1.144,0 0,0"/></g><g transform="translate(304.0229,322.0345)" id="g4570"><path id="path4572" style="fill:#282828;fill-opacity:1;fill-rule:nonzero;stroke:none" d="m 0,0 c -1.701,2.078 -4.216,3.269 -6.899,3.269 -2.044,0 -4.044,-0.712 -5.631,-2.004 -3.814,-3.116 -4.382,-8.741 -1.275,-12.547 l 2.35,-2.885 c -1.726,-2.968 -1.539,-6.824 0.758,-9.637 l 0.442,-0.542 c -1.039,-2.741 -0.63,-5.95 1.354,-8.379 l 2.888,-3.538 c 1.619,-1.984 4.018,-3.122 6.581,-3.122 1.952,0 3.86,0.679 5.372,1.914 l 1.73,1.412 c 1.082,-0.455 2.257,-0.697 3.466,-0.697 0.674,0 1.349,0.077 2.006,0.229 1.324,0.305 2.58,0.921 3.633,1.781 3.805,3.109 4.373,8.734 1.267,12.54 L 0.017,-0.021 Z m -6.899,-3.755 c 0.547,0 1.09,-0.238 1.464,-0.696 L 12.6,-26.647 c 0.66,-0.809 0.539,-1.999 -0.269,-2.659 -0.233,-0.19 -0.496,-0.314 -0.769,-0.377 -0.14,-0.033 -0.283,-0.049 -0.426,-0.049 -0.548,0 -1.091,0.237 -1.465,0.695 l -1.796,2.213 -6.377,-5.205 c -0.273,-0.224 -0.602,-0.332 -0.93,-0.332 -0.426,0 -0.849,0.185 -1.14,0.541 l -2.888,3.537 c -0.508,0.622 -0.415,1.538 0.207,2.046 l 6.408,5.231 -2.618,3.228 -3.17,-2.59 c -0.26,-0.211 -0.572,-0.314 -0.882,-0.314 -0.404,0 -0.805,0.175 -1.081,0.512 l -0.66,0.809 c -0.509,0.623 -0.417,1.541 0.206,2.05 l 3.133,2.558 -6.447,7.913 c -0.66,0.808 -0.539,1.998 0.269,2.658 0.353,0.287 0.776,0.427 1.196,0.427"/></g></g></g></g></svg>