<svg width="279.933px" height="279.933px" viewBox="60.033 10.052000000000007 279.933 279.933" xmlns="http://www.w3.org/2000/svg"><title>Artbox</title><path d="M323.85 148.534c8.902 0 16.116 7.183 16.116 16.045 0 8.861-7.214 16.044-16.116 16.044s-16.115-7.183-16.115-16.044c-.001-8.86 7.212-16.045 16.115-16.045z" fill="#3db4e7"/><path d="M194.108 205.552l-29.206-.001.031-72.647 29.172.102.003 72.546z" fill="#82bc23"/><path d="M179.514 190.711c7.967 0 14.424 6.559 14.424 14.649s-6.458 14.649-14.424 14.649-14.427-6.559-14.427-14.649 6.46-14.649 14.427-14.649zM179.514 117.915c7.967 0 14.424 6.559 14.424 14.652s-6.458 14.651-14.424 14.651-14.427-6.56-14.427-14.651c0-8.093 6.46-14.652 14.427-14.652zM74.61 191.072c7.878 0 14.263 6.475 14.263 14.463 0 7.986-6.384 14.462-14.263 14.462-7.878 0-14.263-6.476-14.263-14.462 0-7.988 6.385-14.463 14.263-14.463zM74.673 80.022c7.909 0 14.32 6.546 14.32 14.623 0 8.076-6.411 14.623-14.32 14.623-7.908 0-14.321-6.547-14.321-14.623 0-8.077 6.413-14.623 14.321-14.623z" fill="#82bc23"/><path d="M60.034 95.149l29.113.309.145 53.625 26.95-26.356 21.496 20.043-18.963 18.673 26.502 35.727-23.634 17.151-25.251-33.753-7.353 6.82-.001 18.977-29.006-1.132.002-110.084z" fill="#82bc23"/><path d="M127.051 117.923c8.045 0 14.566 6.543 14.566 14.616 0 8.072-6.521 14.618-14.566 14.618-8.043 0-14.566-6.546-14.566-14.618s6.523-14.616 14.566-14.616zM132.937 190.631c7.996 0 14.478 6.575 14.478 14.685 0 8.107-6.481 14.683-14.478 14.683s-14.48-6.574-14.48-14.683c0-8.11 6.483-14.685 14.48-14.685zM229.094 191.072c7.878 0 14.262 6.475 14.262 14.463 0 7.986-6.384 14.462-14.262 14.462-7.881 0-14.264-6.476-14.264-14.462 0-7.988 6.385-14.463 14.264-14.463zM229.156 80.022c7.908 0 14.32 6.546 14.32 14.623 0 8.076-6.41 14.623-14.32 14.623-7.908 0-14.32-6.547-14.32-14.623 0-8.077 6.412-14.623 14.32-14.623z" fill="#82bc23"/><path d="M214.516 95.149l29.113.309.144 53.625 26.952-26.356 21.494 20.043-18.961 18.673 26.502 35.727-23.635 17.151-25.25-33.753-7.353 6.82-.001 18.977-29.007-1.132.002-110.084z" fill="#82bc23"/><path d="M281.533 117.923c8.045 0 14.566 6.543 14.566 14.616 0 8.072-6.521 14.618-14.566 14.618-8.043 0-14.566-6.546-14.566-14.618.002-8.072 6.524-14.616 14.566-14.616zM287.42 190.631c7.996 0 14.477 6.575 14.477 14.685 0 8.107-6.48 14.683-14.477 14.683s-14.48-6.574-14.48-14.683c-.001-8.11 6.483-14.685 14.48-14.685z" fill="#82bc23"/></svg>