<?xml version="1.0" encoding="UTF-8"?>
<svg width="600" height="229.42" version="1.1" viewBox="0 0 600 229.42" xmlns="http://www.w3.org/2000/svg">
 <g fill="#c79b3b">
  <path d="m566.8 164.82c-10.2-2.6-19-4.8-19-13.2 0-6.6 5-10.8 13-10.8 7.4-0.4 14.2 4.6 15.6 12l20-9.6c-5.4-13.2-18.4-21.2-35-21.2-21.6 0-36.6 13.2-36.6 32 0 23 16.6 27.4 31.4 31.2 10.4 2.6 19.2 5 19.2 13.6 0 7.2-5.8 11.8-14.6 11.8s-16.2-4.8-18.2-12l-20 9.6c5.6 13.2 19.8 21.2 37.4 21.2 23.4 0 38.4-13 38.4-33.4 0-23.2-17.6-27.6-31.6-31.2z"/>
  <path d="m600 29.019v10.6h-17v10h14.8l-2.8 10.2h-12v15.8h-11.6v-46.6z"/>
  <path d="m542.2 39.819c7.2 0 13 5.8 13 13s-5.8 13-13 13-13-5.8-13-13 5.8-13 13-13zm0 37.2c13.4 0 24.2-11 24.2-24.4s-11-24.2-24.4-24.2-24.2 11-24.2 24.2c0 13.6 11 24.6 24.4 24.4z"/>
  <path d="m329 226.42h21.6v-68.2l49 68.2h22.6v-103.8h-21.8v69.2l-48.4-69.2h-28l5 10.2z"/>
  <path d="m495.4 186.82c-3 7.4-9 13.2-16.2 16.4-3.8 1.6-7.8 2.4-12 2.4h-12.4v-62h12.4c4.2 0 8.2 0.8 12 2.4 7.4 3 13.2 9 16.2 16.4 3.2 8 3.2 16.6 0 24.4zm-7.2-60c-6.6-2.6-13.6-4-20.6-4.4h-35.4v103.8h35.4c14 0 27.4-5.2 37.6-14.8 4.8-4.6 8.8-10.2 11.4-16.4 8.6-19.6 4-42.4-11.4-57.2-5-4.6-10.6-8.4-17-11z"/>
  <path d="m138.4 226.42h-61.8v-103.8h61.8v20.2h-39.2v21h35.8l-5.4 19.6h-30.4v22.8l39.2 0.2z"/>
  <path d="m279.6 142.82h39.2v-20.2h-61.6v103.8h61.6v-20l-39.2-0.2v-22.8h30.4l5.4-19.6h-35.8z"/>
  <path d="m358 82.019c-2-5.8-3-11.8-2.8-17.8l0.40002-64h22.4l-0.1999 63c0 7 1.6 12.6 4.8 16.6 7.6 8 20.4 8.2 28.2 0.4l0.4-0.4c3.4-4 5-9.6 5-16.6l0.2001-63.2h22.8l-0.40002 64.6c0 6-0.79999 12-2.8 17.8-1.8 5-4.8 9.6-8.4 13.6-3.8 3.8-8.2 6.8-13.2 8.6-11.4 4-23.8 4-35.2-0.2001-5-2-9.4-4.8-13-8.8-3.6-3.8-6.4-8.4-8.2-13.6z"/>
  <path d="m245.6 74.019c-2.8-6.6-4.2-13.8-4.2-20.8 0-7.2 1.6-14.2 4.4-20.8 2.8-6.4 6.8-12.2 11.8-17 5-5 11-8.8 17.4-11.4 6.6-2.8 13.8-4.2 21.2-4 9.8-0.20011 19.6 2.4 28.2 7.2 8 4.6 14.6 11.4 18.8 19.8l-20.4 9.6c-2.4-4.8-6.2-8.8-10.8-11.6-4.8-2.8-10.4-4-16-4-4.2 0-8.6 0.80001-12.4 2.4-3.8 1.6-7.2 4-10 7-3 3-5.2 6.6-6.8 10.4-3.4 8.2-3.4 17.2-0.2 25.4 3 7.8 9.2 14.2 16.8 17.6 4 1.8 8.2 2.8 12.6 2.6 6.4 0.2001 12.8-1.8 18-5.4 4.8-3.4 8.2-8.6 9.6-14.4h-37l9.2-18.8h51.6c0.2001 4 0 12.6-0.2001 14.4-0.6 4.8-1.8 9.6-3.6 14.2-5 12.4-14.8 22-27.2 27-20.4 8.2-43.6 3.4-59.2-12.2-5-5-8.8-10.8-11.6-17.2z"/>
  <path d="m5.2 93.619v-82.6l-5.2-10.8h27.6v83.8h41.4l-5.8 20.4h-63.2z"/>
  <path d="m5.2 215.62v-82.6l-5.2-10.8h27.6v83.8h41.4l-5.8 20.4h-63.2z"/>
  <path d="m138.4 104.42h-61.8v-103.8h61.8v20.2h-39.2v21h35.8l-5.4 19.6h-30.4v22.6l39.2 0.2001z"/>
  <path d="m510.8 104.42h-61.6v-103.8h61.8v20.2h-39.2v21h35.8l-5.4 19.6h-30.4v22.6l39.2 0.2001v20.2z"/>
  <path d="m197.6 29.419 13 35h-26.6zm-29 75 7.8-20.2h41.6l8 20.2h23.4l-41.8-104.2h-32l6.8 13.6-36.8 90.6z"/>
  <path d="m185.2 228.02c3.8 0.8 7.6 1.2 11.6 1.2 7 0.2 14-1.2 20.6-3.8 12.4-5 22.2-14.6 27.2-27 1.8-4.6 3-9.4 3.6-14.2 0.4-4.8 0.4-9.6 0.2-14.6h-51.6v0.2l-9.2 18.8h36.8c-1.4 5.8-4.8 11-9.6 14.4-5.2 3.8-11.4 5.6-17.8 5.4-2 0-3.8-0.2-5.8-0.6l-4.6-1.2c-0.8-0.19999-1.4-0.6-2.2-0.8-7.6-3.4-13.8-9.6-16.8-17.6-3.2-8.2-3.2-17.4 0.19999-25.6 1.6-3.8 4-7.4 6.8-10.4s6.4-5.2 10.2-6.8c4-1.6 8.2-2.4 12.4-2.4 5.6-0.2 11.2 1.2 16 4 4.6 2.8 8.4 6.8 10.8 11.6l20.4-9.6c-4.2-8.4-10.6-15.2-18.8-19.8-8.6-4.8-18.2-7.2-28.2-7.2-14.4-0.2-28.2 5.4-38.6 15.6-5 4.8-9 10.6-11.8 17-5.8 13.2-5.8 28.4-0.2 41.6 2.8 6.4 6.6 12.2 11.4 17.2 4.4 4.4 9.6 8 15.2 10.8 3.9333 1.7718 7.8667 3.2094 11.8 3.8z"/>
 </g>
</svg>