<svg width="300.44px" height="300.44px" viewBox="0.185 0.015 300.44 300.44" xmlns="http://www.w3.org/2000/svg"><path fill="#fff" d="M2.225 2.025h296.431v296.422H2.225z"/><path d="M278.93 125.244c-.5 9.238-3.433 20.744-6.021 28.43-10.426 30.974-22.512 50.163-50.49 50.163-8.236 0-22.865-2.182-28.238-16.836l-1.285-3.484-2.293 2.906c-8.748 11.093-21.754 17.491-35.676 17.554-10.678.051-19.265-3.528-24.81-10.342l-1.526-1.882-1.618 1.785c-5.934 6.547-16.258 10.299-28.333 10.299-9.479 0-17.665-3.208-23.051-9.056l-1.466-1.604-1.531 1.552c-5.985 6.038-15.417 9.083-27.281 8.814-14.396-.345-23.158-8.384-23.438-21.502-.436-20.228 19.139-62.792 27.247-75.729 5.267-8.643 12.498-12.834 22.124-12.834 6.556 0 11.031 1.371 13.701 4.191 2.419 2.57 2.902 4.735 3.113 9.937l.285 6.728 3.549-5.719c8.595-13.852 22.831-15.758 36.946-15.758 9.812 0 18.372 3.604 21.809 9.194l1.272 2.053 1.837-1.562c7.271-6.184 17.535-9.591 28.887-9.591 12.395 0 21.406 3.08 26.781 9.169 1.215 1.38 2.025 2.346 3.146 4.701l1.381 2.898 2.078-2.45c7.857-9.308 18.605-14.025 31.939-14.025 10.557 0 18.561 2.803 23.805 8.332 6.586 6.944 7.528 16.708 7.157 23.668M2.225 298.447h296.431V2.025H2.225v296.422z" fill="#ff0"/><path d="M287.277 136.621c-1.346 10.781-8.641 30.768-12.506 38.753-10.401 21.416-24.289 37.873-51.035 37.873-14.291 0-26.049-4.57-32.922-13.316-10.065 8.814-22.529 13.438-35.941 13.438-10.346 0-19.476-2.983-26.437-8.505-7.693 5.417-18.061 8.436-29.563 8.436-9.6 0-18.238-2.631-25.004-7.504-7.478 4.959-17.28 7.428-28.791 7.15-19.148-.449-32.37-12.593-32.75-30.223-.504-23.428 19.226-66.303 28.528-81.155 6.952-11.428 17.578-17.569 30.585-17.569 14.124 0 19.247 4.037 21.761 9.168 10.902-9.263 25.35-9.79 35.63-9.79 11.36 0 18.479 3.011 24.539 7.841 8.375-5.021 17.967-7.625 29.404-7.625 14.627 0 25.479 3.398 33.051 10.886 8.832-7.357 19.906-10.705 32.285-10.705 16.377 0 27.15 5.909 33.482 14.707 8.911 12.42 7.324 24.926 5.684 38.14M2.225 298.447h296.431V2.025H2.225v296.422z" fill="red"/><path d="M4.316 4.155H296.49v292.17H4.316V4.155zM.185 300.456h300.438V.015H.185v300.441z"/><path d="M287.141 83.455a7.187 7.187 0 0 0-7.193 7.211 7.172 7.172 0 0 0 7.193 7.186c3.994 0 7.211-3.2 7.211-7.186a7.196 7.196 0 0 0-7.211-7.211m0 1.423c3.199 0 5.805 2.587 5.805 5.788 0 3.183-2.604 5.787-5.805 5.787-3.191 0-5.762-2.604-5.762-5.787 0-3.2 2.57-5.788 5.762-5.788zm3.666 9.539l-.863-1.5c-.75-1.319-.965-1.518-1.596-1.751v-.034c1.26-.146 2.012-.966 2.012-2.088 0-1.181-.752-2.078-2.354-2.078h-3.709v7.452h1.534v-3.053h.275c.656 0 .924.069 1.226.371.294.302.751.931 1.019 1.466l.596 1.216 1.86-.001zm-4.978-4.251V88.13h1.38c1.02 0 1.553.354 1.553 1.01 0 .525-.336 1.025-1.371 1.025l-1.562.001zM249.947 124.649c-.311 7.677-11.557 38.374-15.551 45.144-1.732 2.941-3.682 5.365-7.201 5.356-3.07 0-4.434-2.174-4.52-4.657-.227-6.927 12.488-41.651 16.836-47.301 1.932-2.977 4.088-3.458 6.555-3.424 3.608.044 3.967 2.649 3.881 4.882m20.494 12.533c-2.553 12.722-8.297 27.771-14.543 38.985-10.178 18.303-22.537 20.863-33.326 20.734-10.781-.129-22.961-4.113-23.047-20.761-.068-11.955 5.088-28.826 9.472-39.884 7.624-20.054 15.421-36.397 40.071-36.104 28.741.338 23.618 25.903 21.373 37.03zm-91.261-17.829c-4.166 0-6.884 2.631-8.91 5.477-4.451 6.253-14.111 31.326-15.611 41.625-1.018 7.057 2.02 8.487 5.355 8.487 5.34 0 11.325-5.649 13.369-14.973 0 0-10.17-.251-7.365-9.266 2.717-8.754 7.893-10.643 16.457-10.997 16.879-.689 15.207 11.773 13.86 18.415-4.384 21.581-19.743 38.917-41.472 38.917-14.874 0-24.102-8.236-24.102-23.398 0-10.801 5.361-27.766 9.607-37.692 9.044-21.132 18.532-35.924 42.7-35.924 14.498 0 25.937 5.209 24.254 18.794-1.225 9.971-6.211 15.827-15.273 16.534-2.537.197-12.912-.069-9.471-9.884 1.197-3.424 1.697-6.115-3.398-6.115zm-75.614 37.366c-1 2.698-2.88 8.331-4.398 14.309 4.929-1.225 8.629-2.095 14.969-1.932 7.228.172 11.847 3.175 11.847 9.143 0 14.481-16.004 18.734-27.109 18.734-12.196 0-22.9-6.944-22.9-20.271 0-15.638 8.47-39.331 16.418-55.115 9.768-19.39 19.748-21.969 36.929-21.969 7.552 0 16.25 3.227 16.25 10.351 0 9.885-8.371 13.653-16.677 14.137-3.541.198-8.996.396-12.256.164 0 0-2.765 4.218-5.706 11.713 15.375-2.165 21.896 1.329 19.299 10.221-3.507 12.006-13.922 12.8-26.666 10.515zm-48.965 13.893c15.038-2.612 18.821 2.83 18.342 7.85-1.41 15.076-15.241 18.44-27.247 18.164-8.707-.207-16.535-4.19-16.754-14.3-.379-17.682 17.656-58.591 26.151-72.149 3.916-6.442 8.694-9.617 16.314-9.617 7.215 0 9.009 3.7 8.901 8.142-.28 11.841-19.428 47.843-25.707 61.91zm193.364-79.437c-15.525 0-26.255 6.158-33.518 14.749-1.225-2.569-2.166-3.699-3.477-5.184-5.943-6.719-15.509-9.859-28.334-9.859-12.531 0-22.979 3.916-30.23 10.083-3.769-6.124-12.744-10.187-23.573-10.187-14.149 0-29.559 2.01-38.709 16.742-.212-5.306-.699-8.108-3.683-11.273-3.623-3.83-9.488-4.839-15.202-4.839-10.415 0-18.247 4.546-23.884 13.811-8.176 13.066-28.006 56.055-27.553 76.867.28 13.455 9.307 23.142 25.453 23.521 12.619.302 22.512-3.071 28.808-9.419 5.646 6.124 14.266 9.729 24.574 9.729 11.479 0 23.042-3.44 29.869-10.979 5.753 7.055 14.796 11.161 26.427 11.107 15.215-.067 28.566-7.278 37.297-18.337 4.777 13.032 16.922 18.208 30.188 18.208 29.066 0 41.822-19.976 52.458-51.579 2.397-7.125 5.591-19.001 6.125-28.979.878-16.612-6.151-34.182-33.036-34.182z"/></svg>