<?xml version="1.0" encoding="iso-8859-1"?>
<!-- Generator: Adobe Illustrator 19.0.0, SVG Export Plug-In . SVG Version: 6.00 Build 0)  -->
<svg version="1.1" id="Layer_1" xmlns="http://www.w3.org/2000/svg" xmlns:xlink="http://www.w3.org/1999/xlink" x="0px" y="0px"
	 viewBox="0 0 473.931 473.931" style="enable-background:new 0 0 473.931 473.931;" xml:space="preserve">
<circle style="fill:#1B468E;" cx="236.966" cy="236.966" r="236.966"/>
<path style="fill:#16467C;" d="M404.518,69.38c92.545,92.549,92.552,242.59,0,335.142c-92.541,92.541-242.593,92.545-335.142,0
	L404.518,69.38z"/>
<path style="fill:#143E68;" d="M469.625,281.859L311.913,124.155l-46.892,46.892l-34.334-34.338l-34.144,34.144l-27.595-27.595
	l-34.559,34.559l61.93,61.93l-22.189,22.192l-17.186-17.186l-38.147,38.144l182.205,182.205
	C386.651,441.105,452.663,370.225,469.625,281.859z"/>
<path style="fill:#FFFFFF;" d="M285.186,195.829c-22.409,0-40.591-18.14-40.591-40.497c0-22.365,18.181-40.501,40.591-40.501
	s40.587,18.14,40.587,40.501C325.773,177.689,307.595,195.829,285.186,195.829L285.186,195.829z M251.981,234.848
	c0-22.372-18.17-40.493-40.591-40.493c-22.421,0-40.587,18.125-40.587,40.493c0,0.913,0.075,1.804,0.135,2.705h-0.135v70.192h81.177
	v-70.192h-0.138C251.903,236.655,251.981,235.765,251.981,234.848L251.981,234.848z M211.387,188.948
	c16.434,0,29.762-13.291,29.762-29.695c0-16.393-13.328-29.695-29.762-29.695c-16.43,0-29.762,13.302-29.762,29.695
	C181.625,175.657,194.957,188.948,211.387,188.948L211.387,188.948z M340.538,258.421c0-30.51-24.774-55.236-55.348-55.236
	s-55.348,24.722-55.348,55.236c0,1.235,0.101,2.455,0.183,3.667h-0.183v95.729h110.696v-95.725h-0.187
	C340.437,260.879,340.538,259.656,340.538,258.421L340.538,258.421z M152.353,189.936c-18.353,0-33.208,14.829-33.208,33.133
	c0,0.741,0.056,1.478,0.109,2.215h-0.109v57.44h66.416v-57.44h-0.109c0.049-0.737,0.109-1.474,0.109-2.215
	C185.558,204.76,170.692,189.936,152.353,189.936L152.353,189.936z M152.353,185.52c13.44,0,24.348-10.881,24.348-24.299
	c0-13.418-10.907-24.295-24.348-24.295c-13.444,0-24.359,10.877-24.359,24.295C127.994,174.639,138.909,185.52,152.353,185.52
	L152.353,185.52z"/>
<g>
</g>
<g>
</g>
<g>
</g>
<g>
</g>
<g>
</g>
<g>
</g>
<g>
</g>
<g>
</g>
<g>
</g>
<g>
</g>
<g>
</g>
<g>
</g>
<g>
</g>
<g>
</g>
<g>
</g>
</svg>
