<?xml version="1.0" encoding="iso-8859-1"?>
<!-- Generator: Adobe Illustrator 19.0.0, SVG Export Plug-In . SVG Version: 6.00 Build 0)  -->
<svg version="1.1" id="Layer_1" xmlns="http://www.w3.org/2000/svg" xmlns:xlink="http://www.w3.org/1999/xlink" x="0px" y="0px"
	 viewBox="0 0 512 512" style="enable-background:new 0 0 512 512;" xml:space="preserve">
<path style="fill:#47B0D3;" d="M469.333,0H42.667C19.14,0,0,19.14,0,42.667v426.667C0,492.86,19.14,512,42.667,512h426.667
	C492.86,512,512,492.86,512,469.333V42.667C512,19.14,492.86,0,469.333,0z"/>
<path style="fill:#FFFFFF;" d="M118.174,223.159c0-76.119,61.707-137.826,137.826-137.826s137.826,61.707,137.826,137.826
	S256,435.2,256,435.2S118.174,299.279,118.174,223.159z"/>
<path style="fill:#E5E5E5;" d="M149.98,223.159c0-70.74,53.296-129.022,121.923-136.908c-5.219-0.599-10.524-0.918-15.903-0.918
	c-76.119,0-137.826,61.707-137.826,137.826S256,435.2,256,435.2s6.18-6.097,15.903-16.406
	C235.655,380.363,149.98,283.18,149.98,223.159z"/>
<path style="fill:#E35336;" d="M256,138.343c-2.626,0-5.219,0.137-7.785,0.37c4.845,5.582,7.785,12.862,7.785,20.833
	c0,17.566-14.24,31.806-31.806,31.806c-15.262,0-28.006-10.751-31.09-25.092c-13.621,15.047-21.92,35.003-21.92,56.898
	c0,46.843,37.973,84.816,84.816,84.816s84.816-37.973,84.816-84.816S302.843,138.343,256,138.343z"/>
<path style="fill:#3298BA;" d="M494.933,486.4H51.2c-14.139,0-25.6-11.461-25.6-25.6V17.067c0-5.098,0.897-9.984,2.537-14.516
	C11.743,8.507,0,24.24,0,42.667v426.667C0,492.86,19.14,512,42.667,512h426.667c18.427,0,34.16-11.743,40.116-28.137
	C504.917,485.503,500.031,486.4,494.933,486.4z"/>
<g>
</g>
<g>
</g>
<g>
</g>
<g>
</g>
<g>
</g>
<g>
</g>
<g>
</g>
<g>
</g>
<g>
</g>
<g>
</g>
<g>
</g>
<g>
</g>
<g>
</g>
<g>
</g>
<g>
</g>
</svg>
