<?xml version="1.0" encoding="UTF-8" standalone="no"?>
<svg xmlns:dc="http://purl.org/dc/elements/1.1/" xmlns:cc="http://creativecommons.org/ns#" xmlns:rdf="http://www.w3.org/1999/02/22-rdf-syntax-ns#" xmlns:svg="http://www.w3.org/2000/svg" xmlns="http://www.w3.org/2000/svg" xmlns:sodipodi="http://sodipodi.sourceforge.net/DTD/sodipodi-0.dtd" xmlns:inkscape="http://www.inkscape.org/namespaces/inkscape" viewBox="0 0 100 20" version="1.1" id="svg34" sodipodi:docname="Fake Taxi logo.svg" width="100" height="20" inkscape:version="0.92.4 (5da689c313, 2019-01-14)">
  <title id="title38">RedTube logo</title>
  <metadata id="metadata38">
    <rdf:RDF>
      <cc:Work rdf:about="">
        <dc:format>image/svg+xml</dc:format>
        <dc:type rdf:resource="http://purl.org/dc/dcmitype/StillImage"/>
        <dc:title>RedTube logo</dc:title>
        <cc:license rdf:resource="http://scripts.sil.org/OFL"/>
        <dc:date>14 enero 2020</dc:date>
        <dc:creator>
          <cc:Agent>
            <dc:title>EEIM</dc:title>
          </cc:Agent>
        </dc:creator>
      </cc:Work>
      <cc:License rdf:about="http://scripts.sil.org/OFL">
        <cc:permits rdf:resource="http://scripts.sil.org/pub/OFL/Reproduction"/>
        <cc:permits rdf:resource="http://scripts.sil.org/pub/OFL/Distribution"/>
        <cc:permits rdf:resource="http://scripts.sil.org/pub/OFL/Embedding"/>
        <cc:permits rdf:resource="http://scripts.sil.org/pub/OFL/DerivativeWorks"/>
        <cc:requires rdf:resource="http://scripts.sil.org/pub/OFL/Notice"/>
        <cc:requires rdf:resource="http://scripts.sil.org/pub/OFL/Attribution"/>
        <cc:requires rdf:resource="http://scripts.sil.org/pub/OFL/ShareAlike"/>
        <cc:requires rdf:resource="http://scripts.sil.org/pub/OFL/DerivativeRenaming"/>
        <cc:requires rdf:resource="http://scripts.sil.org/pub/OFL/BundlingWhenSelling"/>
      </cc:License>
    </rdf:RDF>
  </metadata>
  <sodipodi:namedview pagecolor="#ffffff" bordercolor="#666666" borderopacity="1" objecttolerance="10" gridtolerance="10" guidetolerance="10" inkscape:pageopacity="0" inkscape:pageshadow="2" inkscape:window-width="1366" inkscape:window-height="705" id="namedview36" showgrid="false" inkscape:showpageshadow="false" inkscape:zoom="1" inkscape:cx="57.003165" inkscape:cy="12.829931" inkscape:window-x="-8" inkscape:window-y="-8" inkscape:window-maximized="1" inkscape:current-layer="svg34" showguides="false"/>
  <defs id="defs4">
    <style id="style2">.cls-1{fill:#eb2227;}</style>
  </defs>
  <path inkscape:connector-curvature="0" style="fill:#af181e;stroke-width:0.11138222" d="m 6.3194845,0.43895546 c -1.1138226,0.00304 -2.227635,0.011079 -3.3414677,0.011079 -0.066862,0 -0.1336527,0.02227 -0.2784557,0.055691 1.1249628,0.79081614 2.2164643,1.48142964 3.2411852,2.27223864 0.7239846,0.5569133 1.4704121,0.9133791 2.4060282,0.7685832 0.1447959,-0.02227 0.3006864,-4.26e-5 0.4566256,0.011079 1.0024373,0.089102 1.9491019,0.3119149 2.5839779,1.1584191 C 12.623723,6.3645028 11.699293,8.759126 9.6498617,9.137834 8.925878,9.271496 8.15738,9.193534 7.4111179,9.249216 7.1772131,9.271536 6.9097658,9.338296 6.7204221,9.47198 c -1.2920363,0.868779 -2.5840217,1.748788 -3.8537876,2.650986 -0.1447929,0.111383 -0.2784556,0.356509 -0.2784556,0.534722 -0.022321,2.082853 -0.011059,4.176744 -0.011059,6.259596 0,0.122523 0.022321,0.233905 0.033482,0.389838 h 2.9849187 c 0.5457609,0 0.5458116,0 0.5458116,-0.556911 v -5.847569 c 0,-0.556911 0.011161,-0.556911 0.5458116,-0.556911 0.3564273,0 0.7017549,0.02232 1.0470379,-0.01106 0.4455311,-0.04454 0.6681616,0.133571 0.8686517,0.523419 1.0469943,2.027151 2.1162636,4.032072 3.1743946,6.059234 0.144796,0.278455 0.323096,0.400968 0.646098,0.389837 1.058133,-0.02232 2.116264,-0.01106 3.174396,-0.01106 0.122519,0 0.244954,-0.01126 0.46772,-0.02242 -1.425692,-2.561792 -2.806749,-5.056621 -4.199021,-7.551581 0.133658,-0.06686 0.211536,-0.122563 0.300642,-0.155984 2.171952,-0.868778 3.24122,-2.5171506 3.39716,-4.8116231 C 15.686743,4.9946531 15.308087,3.4018848 13.993778,2.1321311 12.790845,0.96261146 11.287147,0.49480586 9.6609644,0.46139226 8.5471388,0.43911176 7.4333172,0.43619986 6.3194946,0.43898996 Z m 22.8111675,0 c -3.753576,0.01114 -7.518432,0.011079 -11.272008,0.011079 -0.155939,0 -0.300649,0.011262 -0.467721,0.022402 V 19.307133 h 0.445531 11.984683 c 0.07796,0 0.178343,0.02232 0.245169,-0.01106 0.100242,-0.06686 0.244955,-0.156065 0.244955,-0.245177 0.02227,-0.99129 0.01108,-1.971369 0.01108,-3.0295 -0.222765,0 -0.389793,-9.1e-5 -0.568008,0.02222 -2.806827,0 -5.624714,-0.01116 -8.431548,0 -0.334148,0 -0.456839,-0.08908 -0.456839,-0.445529 0.02227,-1.336587 0.01132,-2.673175 0.01132,-4.009762 0,-0.144792 0.02215,-0.278415 0.03329,-0.456628 h 0.479035 c 1.102682,-0.01116 2.194184,-0.01116 3.296866,0 0.289597,0 0.400979,-0.08918 0.389842,-0.378739 -0.01114,-0.50122 0,-1.002441 0,-1.503661 V 8.0129976 h -0.723984 c -1.024718,0 -2.038342,-4.26e-5 -3.051917,0.011079 -0.32301,0 -0.445573,-0.1000695 -0.434436,-0.4342102 0.02227,-1.1026884 0.01132,-2.194409 0.01132,-3.2970914 0,-0.6014631 -9.1e-5,-0.6012866 0.579097,-0.6012866 h 7.640781 0.545812 c 0,-0.9467492 -0.02233,-1.8490814 0.01108,-2.75127354 0.01114,-0.4121175 -0.133573,-0.5012192 -0.523409,-0.5012192 z m 3.486133,0 c -0.412111,-0.01114 -0.545598,0.089234 -0.545598,0.5236286 0.02228,2.97390414 0.01108,5.95886134 0.01108,8.93276794 0,2.962771 0.01114,5.925622 0,8.888382 0,0.389838 0.08911,0.534549 0.501219,0.523409 1.603907,-0.02222 3.196628,0.01116 4.800534,-0.01106 0.857641,-0.02232 1.726378,-0.03338 2.572883,-0.167083 3.018461,-0.47894 5.079115,-2.138534 6.048145,-5.067893 0.59032,-1.793246 0.690438,-3.653283 0.534504,-5.5245123 C 46.439309,7.1665939 46.116381,5.8409695 45.45923,4.626905 44.033537,2.0094229 41.705647,0.76198226 38.831986,0.55036106 36.771418,0.39442186 34.688482,0.48352966 32.61677,0.43897776 Z M 0.51651764,1.8536379 V 10.897793 C 2.710742,9.371851 4.8381857,7.8905127 7.02128,6.3757129 4.8270556,4.849776 2.710742,3.3684376 0.51651764,1.8536379 Z M 36.005893,3.6783934 c 0.04309,-0.00183 0.09033,-0.00122 0.141838,0.00183 0.813091,0.044551 1.648457,-0.011079 2.450411,0.1002826 2.149676,0.300729 3.575411,1.6485426 4.05436,3.7648065 0.378699,1.6596005 0.356247,3.3191545 -0.01132,4.9676085 -0.501218,2.238775 -1.926782,3.397067 -4.26581,3.475039 -0.779673,0.03338 -1.559351,8.1e-5 -2.339022,0.03348 -0.334148,0.01116 -0.423341,-0.100344 -0.423341,-0.42334 0.02227,-1.915769 0.01108,-3.842597 0.01108,-5.758367 0,-1.8712308 0.0112,-3.7535483 -0.02222,-5.6359085 0,-0.3800927 0.102308,-0.513032 0.403975,-0.5253624 z" id="path4"/>
  <path inkscape:connector-curvature="0" d="M 73.616759,0.42786086 V 19.307143 h 0.478815 c 1.837804,0 3.675613,0.01116 5.513417,0 0.735121,0 1.470334,-0.01096 2.205455,-0.07782 3.074151,-0.289596 5.012199,-2.417172 4.900817,-5.413352 C 86.648433,11.833361 85.85762,10.25182 83.930709,9.449873 83.540873,9.2828 83.117491,9.204788 82.627404,9.071125 82.827894,9.015424 82.939319,8.993204 83.061839,8.9597428 84.019726,8.6812871 84.910872,8.2804003 85.434366,7.378207 86.537054,5.4735714 86.258509,2.3993795 83.674441,1.0962072 82.694278,0.60612626 81.636146,0.42791156 80.555739,0.42791156 h -6.426666 z m -27.734174,0.02222 V 2.042935 c 0.189347,0 0.333971,4.26e-5 0.489904,-0.011079 1.414555,0 2.840382,0.011201 4.254936,-0.011079 0.412112,-0.01114 0.512314,0.1113397 0.512314,0.5123138 -0.01114,5.4020405 -0.01108,10.8040742 -0.01108,16.2061132 0,0.111383 -0.02234,0.233905 0.01108,0.334147 0.02227,0.08908 0.122434,0.211675 0.189261,0.211675 0.523499,0.02232 1.046994,0.01106 1.615044,0.01106 V 2.0318526 h 5.234963 V 0.45009366 Z m 13.521625,0 c 0,0.2116273 9.2e-5,0.3786986 -0.02221,0.55690724 0,4.0208984 -4.3e-5,8.0418973 0.01108,12.0627789 0.01114,0.646013 0.05575,1.303177 0.155982,1.94919 0.400974,2.606343 2.004966,4.221304 4.600172,4.644563 1.136095,0.178213 2.272154,0.167073 3.408249,-0.0557 1.949192,-0.389837 3.330286,-1.470158 3.965168,-3.363656 0.256178,-0.735115 0.434386,-1.537163 0.445531,-2.316839 0.04455,-4.41074 0.03347,-8.821333 0.03347,-13.23207444 0,-0.077962 -0.03347,-0.1559331 -0.04461,-0.2227584 H 70.21952 V 1.040492 c 0,4.0208984 0.01096,8.041875 -0.01132,12.062777 -0.01114,0.701704 -0.08902,1.414386 -0.244949,2.10495 -0.32301,1.45911 -1.213979,2.417081 -2.695366,2.762368 -1.058132,0.245045 -2.127571,0.233985 -3.185703,-0.02222 -1.258624,-0.311866 -2.160647,-1.080442 -2.494794,-2.327928 -0.233903,-0.868777 -0.356508,-1.782116 -0.367646,-2.673174 -0.03341,-3.9986219 -0.01108,-7.986053 -0.01108,-11.98467594 v -0.5125329 z m 28.580854,0 V 19.273672 h 11.639442 v -1.615033 h -0.523623 c -2.940491,0 -5.869803,-0.01096 -8.810295,0.01136 -0.412111,0 -0.545812,-0.100344 -0.545812,-0.534723 0.02227,-1.915778 0.01108,-3.842606 0.01108,-5.758375 0,-0.99131 2.25e-4,-0.991351 1.013751,-0.991351 h 2.238741 V 8.7148195 H 89.755855 V 8.2914796 c 0,-1.9157758 0.0112,-3.8426016 -0.01108,-5.7583744 0,-0.4009741 0.12252,-0.4901235 0.501219,-0.4901235 2.773415,0.022281 5.535649,0.011079 8.309071,0.011079 h 0.512532 V 0.45011806 Z M 75.721708,2.0651191 c 1.793252,0.033411 3.586597,0.022392 5.37985,0.078104 0.512356,0.01114 1.024712,0.1559757 1.503656,0.3230461 0.790816,0.2673224 1.292034,0.8463336 1.503661,1.6594251 0.556913,2.0939814 -0.490038,3.720206 -2.684265,4.110054 -0.512362,0.089082 -1.024804,0.133744 -1.537166,0.1448842 -1.35886,0.022321 -2.728773,-5.07e-5 -4.087639,0.011059 -0.311867,0 -0.423383,-0.089081 -0.412245,-0.4009325 0.02227,-0.935612 0.01132,-1.8600421 0.01132,-2.7956541 0,-0.9244676 -1.1e-4,-1.8379371 -0.0224,-2.7512675 0,-0.24504 0.05563,-0.3787464 0.345243,-0.3787464 z m 0.04461,7.9527459 c 1.525932,0.02232 3.06314,-0.01106 4.589078,0.02242 1.202926,0.02232 2.350165,0.289595 3.28577,1.113832 1.236346,1.091542 1.548085,2.48377 1.091417,4.020851 -0.445525,1.525921 -1.648366,2.227584 -3.14089,2.405818 -0.935612,0.111382 -1.882404,0.07802 -2.829152,0.08918 -0.957887,0.01116 -1.915859,-0.02232 -2.873745,0.01106 -0.412118,0.01116 -0.512363,-0.133784 -0.501225,-0.523622 0.02227,-1.113833 0.01132,-2.227645 0.01132,-3.341468 0,-1.136103 -2.25e-4,-2.272165 -0.01132,-3.408258 0,-0.289596 0.08915,-0.389839 0.378747,-0.389839 z" id="path10" style="stroke-width:0.11138222"/>
</svg>