<svg xmlns="http://www.w3.org/2000/svg" viewBox="0 0 161.16949 28.077354"><path fill="#e2231a" d="M31.81098 0l-5.74694 22.33042 22.33042 5.746935L54.1414 5.746936zm74.11124 2.500623v23.058023h23.05802V2.500623zm25.81341 0l9.00668 11.389485-9.00668 11.668538h11.08046l3.52795-4.580599 3.65249 4.580599h11.17296l-9.28471-11.730033 8.72764-11.32799h-11.07995l-3.24993 4.240568-3.40496-4.240568zM0 2.501139v23.058024h10.21385v-8.542114c2.75449 0 4.05437 2.413659 4.48758 8.542114h10.58488c-.46425-4.42595-1.98078-8.23236-4.45657-11.048938 1.70215-1.176161 2.63084-2.971818 2.63084-5.107182 0-3.435702-2.56888-6.901904-8.3876-6.901904zm56.52213 0v23.058024h16.09411c5.3855 0 7.89254-2.81631 7.89254-6.375838 0-1.980847-.71161-3.7449-3.62097-5.292183 2.32128-1.331031 3.00189-3.064603 3.00189-4.95267 0-2.661708-1.48554-6.437333-8.94468-6.437333zm27.11566 0v23.058024h19.158V19.77192h-8.94467V2.501139zM66.73598 7.14375h.61908c2.07363 0 2.69286.958993 2.69286 2.228288 0 1.640064-.83592 2.259293-3.06441 2.259293h-.24753zm-56.52213.0925h.61908c1.91876 0 2.41381 1.300216 2.41381 2.290816 0 1.485547-.89734 2.166276-2.75436 2.166276h-.27853zm28.26959 4.061251l4.35891 1.121378-1.1219 4.359424-4.35891-1.121896zm76.71625.481107h4.50101v4.500501h-4.50101zm-48.46371 3.721737h.71158c2.13572 0 2.84737 1.082897 2.84737 2.599841 0 1.733197-.89761 2.383317-3.24993 2.383317h-.30902z"/></svg>