<?xml version="1.0" encoding="UTF-8" standalone="no"?>
<!-- Generator: Adobe Illustrator 21.1.0, SVG Export Plug-In . SVG Version: 6.00 Build 0)  -->
<svg xmlns:dc="http://purl.org/dc/elements/1.1/" xmlns:cc="http://creativecommons.org/ns#" xmlns:rdf="http://www.w3.org/1999/02/22-rdf-syntax-ns#" xmlns:svg="http://www.w3.org/2000/svg" xmlns="http://www.w3.org/2000/svg" xmlns:sodipodi="http://sodipodi.sourceforge.net/DTD/sodipodi-0.dtd" xmlns:inkscape="http://www.inkscape.org/namespaces/inkscape" version="1.1" id="Layer_1" x="0px" y="0px" viewBox="0 0 193.7 49.135204" xml:space="preserve" inkscape:version="0.48.4 r9939" width="100%" height="100%" sodipodi:docname="Rumble logo.svg"><metadata id="metadata17"><rdf:RDF><cc:Work rdf:about=""><dc:format>image/svg+xml</dc:format><dc:type rdf:resource="http://purl.org/dc/dcmitype/StillImage"/></cc:Work></rdf:RDF></metadata><defs id="defs15"/><sodipodi:namedview pagecolor="#ffffff" bordercolor="#666666" borderopacity="1" objecttolerance="10" gridtolerance="10" guidetolerance="10" inkscape:pageopacity="0" inkscape:pageshadow="2" inkscape:window-width="1366" inkscape:window-height="705" id="namedview13" showgrid="false" fit-margin-top="0" fit-margin-left="0" fit-margin-right="0" fit-margin-bottom="0" inkscape:zoom="1.43" inkscape:cx="96.8" inkscape:cy="24.098682" inkscape:window-x="-8" inkscape:window-y="-8" inkscape:window-maximized="1" inkscape:current-layer="g5"/>
<style type="text/css" id="style3">
	.st0{fill:#FFFFFF;}
	.st1{fill-rule:evenodd;clip-rule:evenodd;fill:#FFFFFF;}
</style>
<g id="g5" style="fill:#699c39;fill-opacity:1" transform="translate(-3.2,-2.9634781)">
	
	
	<g id="g3767" transform="translate(1.5258789e-6,-6.5591486e-8)"><g id="g3762"><path class="st0" d="m 14.5,48.1 c 0.5,0.7 1.1,1.2 1.8,1.6 3.5,2 9.5,0.1 18.6,-5.2 l 0,0 C 44.1,39.2 48.7,35 48.8,31 c 0,-0.6 -0.1,-1.1 -0.3,-1.7 -5.8,7.9 -25.2,17.7 -34,18.8 m 0.8,-42 c 7.9,1.4 27.8,12.4 33.2,19.7 0.2,-0.5 0.2,-1.1 0.3,-1.6 0,-4 -4.5,-8.3 -13.8,-13.6 l 0,0 C 25.9,5.4 20,3.4 16.4,5.4 16,5.6 15.7,5.8 15.3,6.1 z M 9,6.8 C 10.2,6.1 11.7,5.8 13.3,5.9 14,5 14.7,4.4 15.6,3.9 19.7,1.6 26.2,3.6 35.8,9.2 h 0 c 9.8,5.7 14.7,10.3 14.7,15.1 0,1.1 -0.3,2.2 -0.8,3.3 0.6,1.1 0.8,2.3 0.8,3.4 0,4.7 -5,9.3 -14.7,14.9 h 0 c -9.7,5.6 -16.1,7.6 -20.3,5.2 -1.1,-0.6 -2.1,-1.6 -2.9,-2.9 -1.4,0 -2.6,-0.4 -3.7,-1 C 4.8,44.9 3.2,38.4 3.2,27 3.2,15.6 4.9,9.1 9,6.8 z m 3.3,0.7 c -0.9,0.1 -1.8,0.3 -2.5,0.7 -3.5,2 -4.9,8 -4.9,18.8 0,10.7 1.3,16.8 4.9,18.8 0.6,0.3 1.3,0.6 2.1,0.7 -3.8,-7.6 -3.8,-31.8 0.4,-39 z m 4.1,4.6 c -6.8,3.8 -6.8,27 -0.1,30.8 7,4 25.9,-9.8 25.9,-15.8 C 42.3,19.3 23,8.4 16.4,12.1 z" id="path7" style="fill:#699c39;fill-opacity:1" inkscape:connector-curvature="0"/><path class="st1" d="m 29.3,28.8 c -0.9,0.5 -1.9,1.1 -2.8,1.6 -0.9,0.5 -1.9,1.1 -2.8,1.6 -2.9,1.7 -2.8,1.8 -2.8,-1.6 0,-1.1 0,-2.1 0,-3.2 0,-1.1 0,-2.1 0,-3.2 0,-3.3 -0.2,-3.3 2.8,-1.6 0.9,0.5 1.9,1.1 2.8,1.6 0.9,0.5 1.9,1.1 2.8,1.6 2.9,1.7 2.9,1.6 0,3.2" id="path9" style="fill:#699c39;fill-opacity:1;fill-rule:evenodd" inkscape:connector-curvature="0"/><path class="st0" d="m 180.8,26.8 h 9.4 c -0.1,-1.7 -0.6,-2.9 -1.3,-3.7 -0.8,-0.9 -1.9,-1.3 -3.4,-1.3 -1.4,0 -2.5,0.4 -3.3,1.3 -0.9,0.9 -1.3,2.2 -1.4,3.7 m 11.1,7.2 h 4.6 c -0.7,2.6 -2,4.5 -3.9,5.9 -1.9,1.4 -4.3,2.1 -7.2,2.1 -3.5,0 -6.2,-1.1 -8.2,-3.4 -2,-2.2 -2.9,-5.4 -2.9,-9.5 0,-3.9 1,-7 2.9,-9.2 2,-2.3 4.7,-3.4 8.2,-3.4 3.7,0 6.5,1.1 8.6,3.3 2,2.3 2.9,5.4 2.9,9.5 0,0.2 0,0.5 0,0.6 0,0.2 0,0.3 0,0.4 0,0.3 0,0.5 -0.1,0.6 h -15.9 c 0.1,1.9 0.5,3.3 1.4,4.2 0.8,1 2,1.5 3.6,1.5 1,0 1.9,-0.2 2.7,-0.6 0.2,-0.1 0.4,-0.2 0.5,-0.3 0.2,-0.2 0.3,-0.3 0.5,-0.5 0.1,-0.2 0.3,-0.4 0.7,-0.7 0.3,-0.3 0.9,-0.5 1.6,-0.5 z M 165.1,9.9 h 3.3 c 0.9,0 1.6,0.3 2.2,0.9 0.6,0.6 0.9,1.3 0.9,2.2 v 28.7 h -6.4 V 9.9 z m -10,19.3 c 0,-2.2 -0.5,-3.9 -1.4,-5.2 -0.9,-1.3 -2.2,-1.9 -3.8,-1.9 -1.7,0 -3,0.6 -4,1.8 -0.9,1.3 -1.4,3 -1.4,5.3 0,2.6 0.4,4.5 1.3,5.6 0.9,1.3 2.2,1.9 3.9,1.9 1.7,0 3,-0.6 4,-1.9 0.9,-1.3 1.4,-3.2 1.4,-5.6 z M 144.6,12.9 v 7.4 c 0.7,-1.2 1.7,-2.1 2.9,-2.9 1.1,-0.6 2.5,-0.9 4.1,-0.9 2.9,0 5.3,1.2 7.1,3.6 1.8,2.4 2.8,5.5 2.8,9.3 0,3.8 -0.9,6.9 -2.8,9.3 -0.9,1.2 -2.2,2 -3.7,2.5 -1.6,0.5 -3.1,0.8 -4.7,0.8 -7.1,0 -12,-3.7 -12,-11.1 V 9.8 h 3.1 c 0.9,0 1.6,0.3 2.2,0.9 0.7,0.6 1,1.4 1,2.2 z M 119.3,41.6 H 113 V 27.2 25.9 c 0,-1.5 -0.4,-2.5 -1.3,-3.2 -0.9,-0.7 -1.9,-1 -3,-1 -1.1,0 -2.1,0.3 -2.9,1 -0.9,0.7 -1.3,1.8 -1.3,3.2 V 41.6 H 98.1 V 27.2 c 0,-4.2 1.1,-7 3.3,-8.4 2.2,-1.4 4.6,-2.2 7.2,-2.3 1.4,0 2.8,0.2 4.1,0.5 1.4,0.3 2.6,0.9 3.7,1.8 0.9,-0.8 2,-1.4 3.3,-1.7 1.3,-0.3 2.6,-0.5 3.9,-0.6 2.7,0 5.2,0.7 7.5,2.1 2.3,1.4 3.4,4.3 3.4,8.6 v 14.4 h -3.2 c -0.9,0 -1.7,-0.3 -2.3,-0.9 -0.6,-0.6 -0.9,-1.3 -0.9,-2.3 V 25.9 c 0,-1.5 -0.4,-2.5 -1.3,-3.2 -0.9,-0.7 -1.9,-1 -3,-1 -1.1,0 -2.1,0.3 -3,1 -0.9,0.7 -1.3,1.8 -1.3,3.2 v 1.3 14.4 z M 94.7,17.1 v 14.4 c 0,4.4 -1.1,7.2 -3.4,8.6 -2.3,1.4 -4.8,2 -7.5,2 C 81.2,42 78.7,41.2 76.6,39.9 74.4,38.5 73.3,35.7 73.3,31.5 V 17.1 h 6.4 v 15.7 c 0,1.5 0.4,2.5 1.3,3.2 0.9,0.7 1.8,1 2.9,1 1.1,0 2.1,-0.3 3,-1 0.9,-0.7 1.3,-1.8 1.3,-3.2 V 20.2 c 0,-0.9 0.3,-1.6 0.9,-2.2 0.6,-0.6 1.3,-0.9 2.3,-0.9 h 3.3 z M 56.6,41.6 V 29.7 c 0,-2.4 0.4,-4.4 1.1,-6 0.7,-1.6 1.7,-2.9 2.9,-3.9 1.2,-0.9 2.5,-1.6 4.1,-2 1.6,-0.4 3.2,-0.6 4.8,-0.6 0.1,0 0.3,0 0.5,0 0.2,0 0.3,0 0.5,0 v 6.5 h -2.1 c -1.8,0 -3.1,0.4 -4,1.3 -0.9,0.9 -1.3,2.2 -1.3,4.1 v 12.6 h -6.5 z" id="path11" style="fill:#1b1d21;fill-opacity:1" inkscape:connector-curvature="0"/></g></g>
</g>
</svg>