<?xml version="1.0" encoding="UTF-8"?>
<svg xmlns="http://www.w3.org/2000/svg" xmlns:xlink="http://www.w3.org/1999/xlink" width="348pt" height="144.77pt" viewBox="0 0 348 144.77" version="1.1">
<defs>
<clipPath id="clip1">
  <path d="M 253 40 L 292 40 L 292 144.769531 L 253 144.769531 Z M 253 40 "/>
</clipPath>
<clipPath id="clip2">
  <path d="M 68 81 L 183 81 L 183 144.769531 L 68 144.769531 Z M 68 81 "/>
</clipPath>
<clipPath id="clip3">
  <path d="M 186 81 L 250 81 L 250 144.769531 L 186 144.769531 Z M 186 81 "/>
</clipPath>
<clipPath id="clip4">
  <path d="M 0 81 L 63 81 L 63 144.769531 L 0 144.769531 Z M 0 81 "/>
</clipPath>
<clipPath id="clip5">
  <path d="M 285 81 L 348 81 L 348 144.769531 L 285 144.769531 Z M 285 81 "/>
</clipPath>
</defs>
<g id="surface1">
<path style=" stroke:none;fill-rule:nonzero;fill:rgb(43.138123%,75.389099%,25.097656%);fill-opacity:1;" d="M 256.011719 0.210938 C 263.230469 -0.53125 270.679688 0.6875 277.199219 3.921875 C 285.035156 7.703125 291.519531 14.230469 295.25 22.09375 C 300.164063 32.199219 300.320313 44.472656 295.679688 54.703125 C 291.605469 63.929688 283.777344 71.382813 274.382813 75.050781 C 273.296875 75.421875 272.214844 76.035156 271.03125 76.003906 C 269.695313 75.855469 269.332031 73.789063 270.570313 73.230469 C 271.875 72.617188 273.296875 72.285156 274.601563 71.664063 C 283.023438 67.976563 289.914063 60.917969 293.359375 52.386719 C 297.164063 43.195313 296.839844 32.441406 292.550781 23.476563 C 288.652344 15.277344 281.539063 8.644531 273.035156 5.425781 C 266.222656 2.789063 258.59375 2.320313 251.503906 4.101563 C 245.027344 5.691406 239.039063 9.164063 234.417969 13.96875 C 228.082031 20.464844 224.351563 29.460938 224.371094 38.542969 C 224.210938 46.765625 227.113281 54.984375 232.296875 61.355469 C 236.464844 66.542969 242.125 70.539063 248.425781 72.691406 C 248.996094 72.902344 249.65625 73.148438 249.902344 73.761719 C 250.417969 74.703125 249.472656 76 248.425781 75.84375 C 247.265625 75.648438 246.195313 75.121094 245.109375 74.691406 C 238.449219 71.914063 232.644531 67.207031 228.457031 61.339844 C 223.714844 54.675781 221.144531 46.484375 221.308594 38.304688 C 221.394531 29.175781 224.867188 20.132813 230.902344 13.285156 C 237.238281 5.976563 246.394531 1.214844 256.011719 0.210938 "/>
<path style=" stroke:none;fill-rule:nonzero;fill:rgb(43.138123%,75.389099%,25.097656%);fill-opacity:1;" d="M 255.265625 8.964844 C 261.988281 7.859375 269.074219 9.066406 275.003906 12.441406 C 283.710938 17.238281 289.703125 26.570313 290.390625 36.496094 C 290.820313 42.035156 289.730469 47.714844 287.15625 52.648438 C 284.027344 58.851563 278.644531 63.851563 272.296875 66.640625 C 271.703125 66.902344 270.984375 67.066406 270.429688 66.632813 C 269.449219 66 269.664063 64.3125 270.800781 63.96875 C 275.089844 62.097656 278.964844 59.199219 281.792969 55.449219 C 284.632813 51.8125 286.46875 47.417969 287.148438 42.859375 C 288.03125 36.847656 286.875 30.550781 283.824219 25.289063 C 281.675781 21.574219 278.660156 18.359375 275.050781 16.027344 C 268.246094 11.515625 259.34375 10.386719 251.609375 12.988281 C 243.980469 15.460938 237.617188 21.515625 234.757813 29.007813 C 231.78125 36.570313 232.445313 45.457031 236.550781 52.46875 C 239.332031 57.273438 243.585938 61.226563 248.644531 63.539063 C 249.1875 63.808594 249.828125 64.117188 250.003906 64.757813 C 250.390625 65.800781 249.222656 67.027344 248.160156 66.628906 C 247.214844 66.34375 246.355469 65.835938 245.496094 65.367188 C 238.796875 61.679688 233.609375 55.363281 231.289063 48.074219 C 228.8125 40.316406 229.597656 31.554688 233.539063 24.414063 C 237.878906 16.277344 246.15625 10.394531 255.265625 8.964844 "/>
<path style=" stroke:none;fill-rule:nonzero;fill:rgb(43.138123%,75.389099%,25.097656%);fill-opacity:1;" d="M 258.589844 17.941406 C 264.96875 17.4375 271.5 20.050781 275.757813 24.832031 C 279.964844 29.46875 281.960938 36.066406 280.859375 42.246094 C 280.148438 46.761719 277.878906 51.023438 274.511719 54.125 C 273.613281 54.9375 272.738281 55.878906 271.574219 56.289063 C 270.421875 56.546875 269.402344 55.203125 269.9375 54.152344 C 270.402344 53.417969 271.210938 53.015625 271.839844 52.441406 C 277.300781 47.894531 279.542969 39.910156 277.175781 33.199219 C 275.953125 29.460938 273.433594 26.167969 270.160156 23.984375 C 266.613281 21.570313 262.175781 20.535156 257.929688 21.078125 C 253.558594 21.613281 249.425781 23.839844 246.578125 27.1875 C 243.839844 30.386719 242.199219 34.582031 242.296875 38.8125 C 242.160156 44.261719 244.835938 49.660156 249.152344 52.960938 C 249.539063 53.296875 249.988281 53.664063 250.070313 54.203125 C 250.226563 55.03125 249.554688 55.96875 248.679688 55.945313 C 248.078125 56.019531 247.589844 55.628906 247.148438 55.296875 C 243.652344 52.523438 241.078125 48.609375 239.914063 44.300781 C 238.679688 39.523438 239.078125 34.28125 241.257813 29.828125 C 244.367188 23.144531 251.238281 18.453125 258.589844 17.941406 "/>
<g clip-path="url(#clip1)" clip-rule="nonzero">
<path style=" stroke:none;fill-rule:nonzero;fill:rgb(66.209412%,66.209412%,65.429688%);fill-opacity:1;" d="M 257.980469 40.933594 C 260.007813 40.332031 262.332031 40.921875 263.789063 42.46875 C 264.996094 43.648438 265.492188 45.371094 265.480469 47.03125 C 265.472656 69.128906 265.484375 91.226563 265.472656 113.324219 C 265.425781 117.886719 267.144531 122.414063 270.066406 125.898438 C 273.300781 129.78125 278.074219 132.347656 283.105469 132.859375 C 284.558594 133.035156 286.089844 132.828125 287.460938 133.429688 C 289.574219 134.285156 291.085938 136.476563 291.019531 138.777344 C 291.105469 141.160156 289.480469 143.421875 287.261719 144.242188 C 285.347656 144.878906 283.265625 144.558594 281.300781 144.359375 C 272.5 143.304688 264.296875 138.277344 259.3125 130.949219 C 257.105469 127.730469 255.488281 124.097656 254.617188 120.285156 C 253.640625 116.25 253.753906 112.0625 253.761719 107.933594 C 253.761719 87.71875 253.769531 67.5 253.761719 47.289063 C 253.769531 45.847656 254 44.339844 254.878906 43.15625 C 255.636719 42.109375 256.730469 41.289063 257.980469 40.933594 "/>
</g>
<g clip-path="url(#clip2)" clip-rule="nonzero">
<path style=" stroke:none;fill-rule:nonzero;fill:rgb(66.209412%,66.209412%,65.429688%);fill-opacity:1;" d="M 80.585938 88.097656 C 88.628906 81.917969 99.773438 80.109375 109.375 83.363281 C 115.679688 85.402344 121.210938 89.570313 125.097656 94.914063 C 128.015625 91.054688 131.660156 87.695313 135.96875 85.453125 C 144.957031 80.585938 156.347656 80.546875 165.351563 85.378906 C 174.148438 89.929688 180.503906 98.871094 181.851563 108.695313 C 182.347656 112.097656 182.183594 115.539063 182.210938 118.964844 C 182.210938 124.703125 182.203125 130.449219 182.210938 136.191406 C 182.195313 137.652344 182.324219 139.160156 181.886719 140.578125 C 181.300781 142.464844 179.675781 143.964844 177.765625 144.433594 C 175.605469 144.996094 173.183594 144.171875 171.8125 142.414063 C 170.789063 141.199219 170.480469 139.566406 170.484375 138.015625 C 170.496094 129.785156 170.484375 121.5625 170.496094 113.332031 C 170.644531 107.820313 168.203125 102.351563 164.148438 98.648438 C 160.503906 95.234375 155.511719 93.328125 150.523438 93.40625 C 146.050781 93.433594 141.613281 95.050781 138.167969 97.902344 C 133.742188 101.507813 130.992188 107.101563 130.957031 112.824219 C 130.894531 120.355469 130.945313 127.886719 130.925781 135.417969 C 130.902344 136.878906 131.011719 138.34375 130.84375 139.792969 C 130.46875 142.53125 127.859375 144.785156 125.074219 144.640625 C 122.03125 144.761719 119.308594 142.03125 119.316406 139.007813 C 119.269531 130.960938 119.320313 122.910156 119.292969 114.859375 C 119.246094 112.886719 119.285156 110.894531 118.839844 108.960938 C 117.808594 104.207031 114.953125 99.871094 110.976563 97.070313 C 107.628906 94.660156 103.496094 93.359375 99.371094 93.40625 C 95.015625 93.40625 90.683594 94.929688 87.265625 97.628906 C 82.640625 101.21875 79.769531 106.949219 79.703125 112.8125 C 79.6875 121.464844 79.710938 130.125 79.695313 138.78125 C 79.695313 140.660156 78.75 142.53125 77.171875 143.578125 C 75.316406 144.886719 72.671875 144.953125 70.769531 143.703125 C 69.109375 142.660156 68.035156 140.746094 68.078125 138.773438 C 68.074219 130.035156 68.066406 121.300781 68.082031 112.558594 C 68.175781 103.058594 72.957031 93.753906 80.585938 88.097656 "/>
</g>
<g clip-path="url(#clip3)" clip-rule="nonzero">
<path style=" stroke:none;fill-rule:nonzero;fill:rgb(66.209412%,66.209412%,65.429688%);fill-opacity:1;" d="M 190.964844 81.878906 C 193.339844 81.40625 195.933594 82.582031 197.097656 84.71875 C 198.027344 86.292969 197.898438 88.179688 197.890625 89.9375 C 197.886719 97.128906 197.890625 104.324219 197.890625 111.515625 C 197.890625 113.148438 197.828125 114.800781 198.121094 116.417969 C 198.78125 120.484375 200.773438 124.324219 203.703125 127.222656 C 206.671875 130.183594 210.59375 132.167969 214.746094 132.761719 C 219.023438 133.421875 223.507813 132.585938 227.28125 130.46875 C 233.5 127.082031 237.550781 120.164063 237.449219 113.085938 C 237.457031 104.597656 237.4375 96.113281 237.457031 87.628906 C 237.421875 85.589844 238.550781 83.621094 240.289063 82.585938 C 242.296875 81.375 245.039063 81.542969 246.867188 83.023438 C 248.34375 84.15625 249.148438 86.035156 249.085938 87.882813 C 249.078125 95.164063 249.085938 102.453125 249.085938 109.734375 C 249.070313 112.128906 249.167969 114.535156 248.855469 116.921875 C 247.765625 126.683594 241.746094 135.699219 233.179688 140.496094 C 226.773438 144.179688 219.015625 145.46875 211.757813 144.046875 C 204.78125 142.761719 198.332031 138.96875 193.738281 133.578125 C 190.632813 129.933594 188.355469 125.578125 187.195313 120.929688 C 185.828125 115.765625 186.242188 110.378906 186.175781 105.097656 C 186.167969 99.871094 186.179688 94.644531 186.167969 89.417969 C 186.160156 87.890625 186.160156 86.285156 186.882813 84.898438 C 187.695313 83.34375 189.238281 82.1875 190.964844 81.878906 "/>
</g>
<g clip-path="url(#clip4)" clip-rule="nonzero">
<path style=" stroke:none;fill-rule:nonzero;fill:rgb(66.209412%,66.209412%,65.429688%);fill-opacity:1;" d="M 15.707031 82.167969 C 16.773438 82.011719 17.847656 81.921875 18.929688 81.914063 C 30.746094 81.917969 42.5625 81.917969 54.382813 81.914063 C 55.917969 81.898438 57.503906 82.316406 58.664063 83.371094 C 60.234375 84.699219 60.996094 86.90625 60.558594 88.917969 C 60.113281 91.253906 58.074219 93.195313 55.710938 93.496094 C 54.421875 93.675781 53.117188 93.589844 51.828125 93.601563 C 40.683594 93.601563 29.542969 93.589844 18.40625 93.601563 C 15.054688 93.59375 12.011719 96.410156 11.683594 99.730469 C 11.289063 102.632813 12.972656 105.644531 15.628906 106.859375 C 17.039063 107.59375 18.667969 107.566406 20.210938 107.542969 C 28.273438 107.511719 36.332031 107.539063 44.390625 107.496094 C 48.152344 107.546875 51.882813 108.777344 54.929688 110.980469 C 58.695313 113.667969 61.410156 117.796875 62.328125 122.332031 C 63.179688 126.296875 62.640625 130.539063 60.867188 134.1875 C 58.699219 138.726563 54.605469 142.292969 49.8125 143.824219 C 47.574219 144.558594 45.203125 144.796875 42.855469 144.769531 C 31.109375 144.75 19.367188 144.769531 7.625 144.761719 C 6.226563 144.75 4.800781 144.375 3.691406 143.492188 C 2.257813 142.398438 1.398438 140.59375 1.492188 138.785156 C 1.453125 136.546875 2.929688 134.414063 4.984375 133.566406 C 6.632813 132.871094 8.460938 133.078125 10.207031 133.054688 C 21.597656 133.050781 32.996094 133.0625 44.386719 133.050781 C 48.058594 133.058594 51.292969 129.601563 51.03125 125.933594 C 51.121094 122.277344 47.746094 119.050781 44.117188 119.136719 C 37.003906 119.132813 29.890625 119.160156 22.78125 119.15625 C 19.769531 119.121094 16.695313 119.394531 13.761719 118.523438 C 9.332031 117.351563 5.398438 114.441406 2.933594 110.582031 C 1.007813 107.597656 -0.03125 104.046875 0 100.492188 C -0.015625 95.660156 1.976563 90.863281 5.410156 87.464844 C 8.152344 84.652344 11.824219 82.777344 15.707031 82.167969 "/>
</g>
<g clip-path="url(#clip5)" clip-rule="nonzero">
<path style=" stroke:none;fill-rule:nonzero;fill:rgb(66.209412%,66.209412%,65.429688%);fill-opacity:1;" d="M 306.058594 96.421875 C 302.0625 98.902344 299.070313 102.859375 297.617188 107.320313 C 310.238281 107.386719 322.867188 107.339844 335.492188 107.339844 C 334.664063 104.78125 333.367188 102.363281 331.605469 100.332031 C 328.464844 96.632813 323.917969 94.164063 319.105469 93.566406 C 314.601563 92.980469 309.894531 93.980469 306.058594 96.421875 M 306.796875 83.324219 C 316.402344 80.109375 327.515625 81.957031 335.539063 88.148438 C 342.554688 93.402344 347.183594 101.738281 347.871094 110.488281 C 348.027344 112.34375 348.226563 114.371094 347.238281 116.046875 C 346.214844 117.925781 344.105469 119.050781 341.984375 119.027344 C 327.195313 119.070313 312.40625 118.988281 297.617188 119.070313 C 298.8125 122.644531 300.925781 125.921875 303.835938 128.335938 C 308.007813 131.875 313.695313 133.558594 319.113281 132.804688 C 323.925781 132.214844 328.445313 129.738281 331.59375 126.0625 C 332.671875 124.878906 333.386719 123.417969 334.378906 122.171875 C 335.953125 120.234375 338.851563 119.589844 341.117188 120.621094 C 343.636719 121.699219 345.179688 124.714844 344.410156 127.378906 C 343.894531 129.132813 342.71875 130.582031 341.691406 132.070313 C 336.019531 139.65625 326.792969 144.457031 317.304688 144.589844 C 308.421875 144.875 299.519531 141.089844 293.523438 134.539063 C 289.894531 130.667969 287.296875 125.847656 286.039063 120.699219 C 285.433594 118.375 285.21875 115.96875 285.070313 113.578125 C 285.128906 108.988281 285.996094 104.375 287.945313 100.195313 C 291.503906 92.273438 298.527344 85.980469 306.796875 83.324219 "/>
</g>
</g>
</svg>