<svg width="1024px" height="1024px" viewBox="0 0 1024 1024" xmlns="http://www.w3.org/2000/svg">
   <style>
      .st1{fill:#fff}
   </style>
   <g id="Icon">
      <circle cx="512" cy="512" r="512" style="fill:#f60"/>
      <path class="st1" d="M548.2 525.8c0-83.5-29.7-121.5-45.5-135.9-3.1-2.6-7.9-.4-7.4 3.9 3.1 47.2-56.4 59-56.4 132.9v.4c0 45 34.1 81.7 76 81.7s76-36.7 76-81.7v-.4c0-21-7.9-41.1-15.7-55.9-1.7-3.1-6.1-1.7-5.7.9 14.5 63.7-21.3 103-21.3 54.1z"/>
      <path class="st1" d="M457.7 701.9c-1.7 0-3.9-.9-5.2-2.2L258 505.2c-2.6-2.6-2.6-7.4 0-10.5l205.4-205.4c1.3-.9 3.1-1.7 4.8-1.7h59c3.5 0 5.7 2.2 6.6 4.4.9 2.2.9 5.2-1.7 7.9L339.3 493c-3.9 3.9-3.9 10.1 0 14l152.5 153c2.6 2.6 2.6 7.4 0 10.5l-29.3 29.7c-1.3.8-3.1 1.7-4.8 1.7zm38.9 34.1c-3.5 0-5.7-2.2-6.6-4.4-.9-2.2-.9-5.2 1.7-7.9L685 530.6c1.7-1.7 3.1-4.4 3.1-7s-.9-5.2-3.1-7l-153-153c-2.6-2.6-2.6-7.4 0-10.5l29.7-29.7c1.3-1.3 3.1-2.2 5.2-2.2s3.5 1.3 4.8 2.6l194 194.5c1.3 1.3 2.2 3.1 2.2 5.2s-.9 3.9-2.2 5.2L560.4 734.2c-1.3 1.3-3.1 2.2-5.2 2.2h-58.6v-.4z"/>
   </g>
</svg>
