<svg width="1024px" height="1024px" viewBox="0 0 1024 1024" xmlns="http://www.w3.org/2000/svg">
   <circle cx="512" cy="512" r="512" style="fill:#2962ff"/>
   <path d="M734 465.54a96.89 96.89 0 0 1 17.05 50.86 79.72 79.72 0 0 1-26.47 154.88H326.13a105.89 105.89 0 0 1-74.77-30.76l169-133.81a44.38 44.38 0 0 0 39.7 1l80.58 70.5a44.27 44.27 0 1 0 83.42-2.78zm-25-25L599.09 550.37a44.44 44.44 0 0 0-35.09 1.17L483.46 481a44.27 44.27 0 1 0-85-2.09L230.64 611.75a106.25 106.25 0 0 1 96.57-153 141.69 141.69 0 0 1 276.7-21.73 97.51 97.51 0 0 1 105 3.45zm0 0" style="fill:#fff"/>
</svg>
