<?xml version="1.0" encoding="iso-8859-1"?>
<!-- Generator: Adobe Illustrator 18.1.1, SVG Export Plug-In . SVG Version: 6.00 Build 0)  -->
<svg version="1.1" id="Capa_1" xmlns="http://www.w3.org/2000/svg" xmlns:xlink="http://www.w3.org/1999/xlink" x="0px" y="0px"
	 viewBox="0 0 29.242 29.242" style="enable-background:new 0 0 29.242 29.242;" xml:space="preserve">
<g>
	<g id="c68_twitter">
		<path d="M26.918,0.668H2.326C1.039,0.668,0,1.707,0,2.992v23.259c0,1.282,1.039,2.323,2.326,2.323h24.592
			c1.281,0,2.324-1.041,2.324-2.323V2.992C29.242,1.707,28.199,0.668,26.918,0.668z M14.549,17.318
			c0.41,0.41,0.908,0.617,1.496,0.617h4.227c0.59,0,1.09,0.211,1.51,0.629c0.422,0.418,0.629,0.922,0.629,1.508
			s-0.209,1.089-0.629,1.506c-0.42,0.42-0.92,0.631-1.508,0.631h-4.227c-1.76,0-3.266-0.627-4.514-1.875
			c-1.25-1.25-1.873-2.754-1.873-4.514V7.293c0-0.604,0.207-1.111,0.623-1.522c0.416-0.409,0.924-0.615,1.523-0.615
			c0.584,0,1.082,0.208,1.5,0.628c0.416,0.42,0.623,0.921,0.623,1.508v2.136h6.334c0.592,0,1.094,0.209,1.514,0.629
			c0.426,0.418,0.633,0.919,0.633,1.508c0,0.583-0.209,1.088-0.629,1.508c-0.42,0.417-0.92,0.627-1.51,0.627H13.93v2.117
			C13.93,16.406,14.135,16.905,14.549,17.318z"/>
	</g>
	<g id="Capa_1_241_">
	</g>
</g>
<g>
</g>
<g>
</g>
<g>
</g>
<g>
</g>
<g>
</g>
<g>
</g>
<g>
</g>
<g>
</g>
<g>
</g>
<g>
</g>
<g>
</g>
<g>
</g>
<g>
</g>
<g>
</g>
<g>
</g>
</svg>
