<?xml version="1.0" encoding="iso-8859-1"?>
<!-- Generator: Adobe Illustrator 18.0.0, SVG Export Plug-In . SVG Version: 6.00 Build 0)  -->
<!DOCTYPE svg PUBLIC "-//W3C//DTD SVG 1.1//EN" "http://www.w3.org/Graphics/SVG/1.1/DTD/svg11.dtd">
<svg version="1.1" id="Capa_1" xmlns="http://www.w3.org/2000/svg" xmlns:xlink="http://www.w3.org/1999/xlink" x="0px" y="0px"
	 viewBox="0 0 455.731 455.731" style="enable-background:new 0 0 455.731 455.731;" xml:space="preserve">
<g>
	<rect x="0" y="0" style="fill:#1AB7EA;" width="455.731" height="455.731"/>
	<path style="fill:#FFFFFF;" d="M49.642,157.084l17.626,22.474c0,0,22.033-17.186,29.965-17.186c4.927,0,15.423,5.729,22.033,25.558
		c6.61,19.83,34.441,122.62,36.134,127.351c7.607,21.26,17.626,60.811,48.473,66.54s70.065-25.558,91.657-48.473
		c21.592-22.914,106.64-120.741,110.165-179.349c3.26-54.191-14.517-66.765-22.474-71.828c-14.542-9.254-38.778-12.338-61.692-4.407
		s-57.726,33.931-66.98,80.2c0,0,31.287-11.457,42.744-0.441s8.373,35.253-1.322,53.32s-37.015,59.93-47.151,61.252
		c-10.135,1.322-18.067-18.508-19.389-23.796c-1.322-5.288-18.067-77.997-24.236-120.3s-33.049-49.354-45.829-49.354
		C146.587,78.646,124.554,88.341,49.642,157.084z"/>
</g>
<g>
</g>
<g>
</g>
<g>
</g>
<g>
</g>
<g>
</g>
<g>
</g>
<g>
</g>
<g>
</g>
<g>
</g>
<g>
</g>
<g>
</g>
<g>
</g>
<g>
</g>
<g>
</g>
<g>
</g>
</svg>
