<?xml version="1.0" encoding="iso-8859-1"?>
<!-- Generator: Adobe Illustrator 18.0.0, SVG Export Plug-In . SVG Version: 6.00 Build 0)  -->
<!DOCTYPE svg PUBLIC "-//W3C//DTD SVG 1.1//EN" "http://www.w3.org/Graphics/SVG/1.1/DTD/svg11.dtd">
<svg version="1.1" id="Capa_1" xmlns="http://www.w3.org/2000/svg" xmlns:xlink="http://www.w3.org/1999/xlink" x="0px" y="0px"
	 viewBox="0 0 455.731 455.731" style="enable-background:new 0 0 455.731 455.731;" xml:space="preserve">
<g>
	<rect x="0" y="0" style="fill:#01B488;" width="455.731" height="455.731"/>
	<path style="fill:#FFFFFF;" d="M275.297,171.076c-1.142-9.132-6.849-50.796,22.83-50.796c29.679,0,13.127,66.206,13.127,66.206
		h49.596c3.356-11.18,5.766-24.85,5.766-41.094c0-53.65-38.24-72.485-65.065-72.485s-75.909,10.844-75.909,85.612
		s57.645,98.168,57.645,98.168c-15.41,34.245-54.792,76.48-54.792,76.48c-71.914-81.046-81.616-214.029-81.616-214.029
		l-50.878,1.515c33.387,251.686,132.494,262.169,132.494,262.169c43.947-7.257,99.88-114.149,99.88-114.149
		c9.132,1.141,37.098-4.566,37.098-4.566v-37.098C290.707,243.561,276.439,180.208,275.297,171.076z"/>
</g>
<g>
</g>
<g>
</g>
<g>
</g>
<g>
</g>
<g>
</g>
<g>
</g>
<g>
</g>
<g>
</g>
<g>
</g>
<g>
</g>
<g>
</g>
<g>
</g>
<g>
</g>
<g>
</g>
<g>
</g>
</svg>
