<?xml version="1.0" encoding="UTF-8" standalone="no"?>
<svg height="45" viewBox="0 0 219.59776 45" width="219.59776" xmlns="http://www.w3.org/2000/svg">
  <g fill-rule="evenodd">
    <g fill="none" transform="translate(54.000186 10)">
      <g fill="#4c4c4e">
        <path d="m36.642274 1.2325625h4.457984v22.5348745h-4.457984v-9.432h-8.328734v9.432h-4.456847v-22.5348745h4.456847v9.1754995h8.328734z"/>
        <path d="m51.280972 15.19055h4.880361l-1.397881-5.068687-.977209-3.4953755h-.163153l-.916382 3.4801875zm5.855865 3.540937h-6.994522l-1.724754 4.989938h-4.456848l8.198553-22.6963125h3.285788l8.199122 22.6963125h-4.685375z"/>
        <path d="m70.294486 23.767719h-3.816744v-22.5354378h4.164651l5.65633 9.5439378 1.402998 2.475h.130181l1.294987-2.535188 5.323772-9.4837498h4.15044v22.5354378h-4.104962v-11.59425l.02274-4.5495002h-.234212l-1.648579 3.4610622-4.154419 8.55h-1.431421l-4.816124-8.775-1.758294-3.2956873h-.237623l.056279 4.3846873z"/>
        <path d="m103.25748 17.715219c0-.686813-.25525-1.24425-.76403-1.674-.51049-.429188-1.15003-.820688-1.91974-1.1745-.770289-.354375-1.605948-.719438-2.505844-1.095188-.900466-.375187-1.735556-.837-2.505272-1.384312-.769715-.54675-1.409819-1.227938-1.919173-2.044125-.509922-.8156252-.764599-1.8562502-.764599-3.1230003 0-1.0940625.184186-2.044125.553695-2.8485.367803-.8049374.894212-1.4754374 1.576951-2.0120625.683876-.536625 1.491111-.93375 2.423979-1.1908125.9323-.25818745 1.973747-.38699995 3.123773-.38699995 1.32284 0 2.57008.1125 3.7417.33806245 1.17106.2255625 2.67752.6665625 3.50693 1.249875l-1.36377 3.767625c-.47809-.300375-1.83959-.9073125-2.79406-1.15425-.95504-.2469375-1.98512-.370125-3.0908-.370125-1.041447 0-1.83845.2041875-2.391577.6114375-.552558.4083751-.829405.9556875-.829405 1.641375 0 .6440625.254677 1.1806876.764599 1.6104376.509354.4291875 1.148889.8263124 1.919743 1.1908125.76915.3656252 1.6048.7408122 2.5047 1.1266872.90047.386438 1.73556.853875 2.50527 1.400625.76972.547313 1.40982 1.223438 1.91974 2.028375.50936.804375.76404 1.808438.76404 3.009938 0 1.202625-.20011 2.237062-.60145 3.106125-.40135.870187-.96527 1.594125-1.69178 2.1735-.72708.579375-1.60595 1.009125-2.63489 1.287562-1.03121.278438-2.16362.4185-3.40005.4185-1.626976 0-3.058398-.150187-4.294832-.450562s-1.34217-.293625-2.226718-.595125v-4.376813c.560517.280125 1.47292.572625 1.852093.72225.379173.15075.808372.289688 1.285323.419063.477519.12825.981189.23625 1.513282.32175.530956.0855 1.078966.12825 1.642894.12825 1.322278 0 2.336998-.219375 3.042478-.65925.70378-.439875 1.0568-1.110938 1.0568-2.012625"/>
        <path d="m127.88548 5.1599375h-6.63695v18.6074995h-4.45741v-18.6074995h-6.72109l1.42005-3.927375h16.3954z"/>
        <path d="m135.469 19.839838h9.06832v3.927937h-13.52516v-22.5354375h13.50186v3.927375h-9.04502v5.2481245h6.0537v3.927376h-6.0537z"/>
        <path d="m156.20124 4.8379625c-.45591 0-.90614.01125-1.35069.032063-.44455.021937-.7862.064687-1.0244.129375v6.5351245h1.88734c1.23587 0 2.22274-.278437 2.96062-.837.73732-.558562 1.10569-1.481062 1.10569-2.7686245 0-.966375-.30414-1.722375-.9107-2.2696875-.6077-.547875-1.4968-.82125-2.66786-.8212505zm-6.83193-3.3795c.49798-.086062 1.03519-.1665 1.60992-.2424375.57473-.07425 1.15003-.1333125 1.72475-.176625.57416-.04275.40703-.0748125.94936-.09675.54176-.021375 1.04145-.0320625 1.49679-.0320625 1.06248 0 2.83499.09675 3.86564.2896875 1.02951.1935 1.95157.5259375 2.76506.997875s1.46439 1.121625 1.95215 1.9479375c.48775.8263125.73219 1.861875.73219 3.106125 0 1.8466875-.44568 3.3401245-1.30124 4.5073125-.51276.699188-1.86914 1.6245-3.32217 2.075063 0 0 1.24212.952875 1.61277 1.692.32403.645749 4.14305 8.241187 4.14305 8.241187h-4.97019l-4.52335-9.214875-2.27789-.02475v9.239625h-4.45684z"/>
      </g>
      <path d="m15.056351 1.2485937h5.10491l-6.821705 11.2500003 6.821705 11.25h-5.080465l-4.583618-7.47675-4.5478033 7.47675h-5.11627909l6.82170539-11.25-6.82170539-11.2500003h5.11855299l4.5478034 7.2421875z" fill="#e14449"/>
    </g>
    <g fill="#4c4c4e" transform="translate(.000186)">
      <path d="m46.612088 25.4025c-.756641 2.087437-3.139122 5.439375-5.034419 7.733813-2.052196 2.483437-4.338036 4.488187-7.109922 6.148125-2.702533 1.618874-6.646047 3.214124-9.893747 3.313125-3.247132-.099-7.190646-1.694251-9.893178-3.313125-2.771887-1.659938-5.0577264-3.664688-7.1099228-6.148125-1.8952971-2.294438-4.2777777-5.646376-5.0344186-7.733813-.3035659-.837563-.3354005-1.717875-.0244444-2.640375.5389147-1.491188 1.7423772-2.889563 3.0419121-3.786188.4729716-.32625.9539018-.552375 1.3256848-.493874 1.0727131.169874 1.6770026 1.650375 2.0976744 2.481749-.2859432.281813-.6048579.506813-.8942119.818438-1.8333333 1.974375-1.5581912 4.471875-.4240827 6.872625 1.5320414 3.179812 4.5620151 6.347812 7.2179331 8.621438-1.862894-4.398188-1.149458-10.035001 3.38925-12.591563-.400206 5.469188 12.182998 6.399562 12.616176 0 4.538708 2.556562 5.252145 8.193375 3.389251 12.591563 2.655917-2.273626 5.685323-5.441626 7.217933-8.621438 1.134108-2.40075 1.40925-4.89825-.424083-6.872625-.289354-.311625-.608269-.536625-.894212-.818438.420672-.831374 1.024961-2.311875 2.097674-2.481749.371783-.0585.852714.167624 1.325117.493874 1.300103.896625 2.502997 2.295 3.04248 3.786188.310956.9225.279122 1.802812-.02444 2.640375m-37.4812961-19.9665c1.0499741-.6361875 2.6490961.41175 3.3233071 1.1851875 1.041447 1.1925 1.329096 2.6780625.47752 4.0466255-.758915 1.199249-1.995349 2.315812-3.1385532 3.162937-.2512662-.682312-.5025323-1.30275-.75323-1.86075-.2876486-.682312-.5377778-1.42425-.695814-2.1830625-.2381912-1.14975-.3842894-3.641625.7867701-4.3509375m6.0718861 7.083562c1.122739-.662062 3.094212-.860062 4.169199.05513.940258.800437 1.087494 2.3265.662274 3.562312-.08584.24975-.319483.790875-.512765.981 0-1.847812-1.269974-3.366562-3.208475-3.294-.829406.0315-1.490543.430312-2.000465 1.061438-.878863 1.116-.878863 2.294437-.126202 3.472874-.403617-.03769-.690698-.189-.890233-.408937-.397364-.437063-.491731-1.055812-.461033-1.623375.08413-1.53225 1.029509-3.01725 2.3677-3.806438m3.551835-5.010187c.138139-.2908125.56677-.4336875.852145-.531 1.089198-.372379 2.96801-.622129 4.874108-.680629l.09323-.00225.0938.00225c1.90553.0585 3.78491.30825 4.874109.680625.285375.097313.714005.2401875.851576.531.06481.1366875.06537.2818125.0023.4190625-.137571.298125-1.179018 1.130625-1.503049 1.3933125-1.754884 1.421437-2.877623 2.554875-3.467132 4.843687-.305271 1.188001-.260362 2.3625.123359 3.534188.608269 1.855125 1.948734 2.959875 2.595659 4.63725.326874.84825.443411 1.776938.09096 2.512687-.582119 1.21725-2.32279 1.425375-3.528527 1.449l-.133023.0017-.132455-.0017c-1.205736-.02362-2.946408-.23175-3.529095-1.449-.352455-.735749-.235349-1.664437.09152-2.512687.646925-1.677375 1.98739-2.782125 2.595659-4.63725.383721-1.171688.428631-2.346187.123359-3.534188-.589537-2.288812-1.712276-3.42225-3.46716-4.843687-.324031-.2626875-1.365478-1.0951875-1.503049-1.3933125-.0631-.13725-.0631-.282375.0017-.4190625m15.191369 5.010187c1.338192.789188 2.283566 2.274188 2.367132 3.806438.03127.567563-.0631 1.186312-.460465 1.623375-.199535.219937-.486615.37125-.890801.408937.75323-1.178437.75323-2.356874-.125633-3.472874-.510491-.631126-1.17106-1.029938-2.000465-1.061438-1.938502-.07256-3.209044 1.446188-3.209044 3.294-.192713-.190125-.426925-.73125-.512197-.981-.425219-1.235812-.277984-2.761875.662274-3.562312 1.074419-.915188 3.04646-.717188 4.169199-.05513m2.748017-5.8983705c.67478-.7734375 2.273901-1.821375 3.323876-1.1851875 1.170491.7093125 1.024961 3.2011875.786201 4.3509375-.157468.7588125-.407597 1.5007505-.695245 2.1830625-.251267.558-.501964 1.178438-.75323 1.86075-1.143773-.847125-2.379638-1.963688-3.138553-3.162937-.852145-1.368563-.563928-2.8541255.476951-4.0466255m11.978346 15.0980625c-1.211421-2.74725-2.724703-3.647813-4.58646-4.995563-.703773-.510187-1.384806-.962999-1.735556-1.550249-.209199-.349313-.292765-.718313-.297312-1.094625-.006254-.461813.106873-.935438.252971-1.395563.655452-2.06325 1.022119-3.492 1.028372-5.6694375.007959-2.7151875-1.094315-7.012125-4.518811-7.0138125-.496848 0-.95845.079875-1.388217.232875-.815762.29025-1.448476.8004375-1.991938 1.4056875-.673075.750375-2.669561 3.7366875-3.360258 4.0269375-.127339.054-.278553.037125-.435453-.010125-2.624651-.784125-4.211834-1.126125-7.065581-1.1835-2.853178.057375-4.440362.399375-7.065013 1.1835-.156899.04725-.308114.064125-.436021.010125-.690697-.29025-2.687183-3.2765625-3.35969-4.0269375-.543462-.60525-1.176175-1.1154375-1.991937-1.4056875-.430336-.153-.89137-.232875-1.388218-.232875-3.4244957.0016875-4.5267696 4.298625-4.5188109 7.0138125.0056847 2.1774375.3729199 3.6061875 1.0283721 5.6694375.1460982.460125.2592248.93375.2529716 1.395563-.0045479.376312-.0881138.745312-.2973127 1.094625-.3507494.58725-1.031783 1.040062-1.7361241 1.550249-1.8611886 1.34775-3.3744702 2.248313-4.58589142 4.995563-.36666667.830812-.48093023 1.739813-.47638243 2.584125.00909561 1.473187.55312662 2.725312 1.31545215 4.251937 1.7202068 3.448688 5.1680104 7.364813 7.5317313 9.406126 4.5506464 3.930187 10.2405164 6.725249 15.1845474 7.017187.180776.01069.361551.018.542326.02137.181344-.0034.362119-.01069.542326-.02137 4.944031-.291938 10.63447-3.087 15.185116-7.017187 2.363152-2.041313 5.811524-5.957438 7.531731-9.406126.761757-1.526625 1.306357-2.77875 1.314884-4.251937.0051-.844312-.109147-1.753313-.475814-2.584125"/>
      <path d="m27.291028 37.504688c-.09039.180562-.203514.313874-.333695.417375-.239328.189562-.539483.280687-.875452.384749-.415555.12825-.860103.232313-1.036899.232313v-5.335875c1.067028.744187 2.196589.8685 3.452351.806062 0 .275625-.813488 2.713501-1.206305 3.495376zm-3.187441 1.034437c-.176796 0-.621344-.104063-1.037468-.232313-.335401-.104062-.635556-.195187-.874884-.384749-.130181-.103501-.243307-.236813-.333695-.417375-.392816-.781875-1.206305-3.219751-1.206305-3.495376 1.255194.06244 2.385323-.06188 3.452352-.806062zm4.785426-5.849438c-.472403.144563-.974367.240188-1.593437.208125-.804961-.04219-1.574677-.352687-2.007287-1.196437-.0739-.144563-.226821-.14625-.631576-.14625l-.02785.0011-.02729-.0011-.02729.0011-.02729-.0011c-.405323 0-.557674.0017-.632144.14625-.432042.84375-1.201757 1.15425-2.007287 1.196437-.61907.03206-1.121034-.06356-1.593437-.208125-1.821964-.559687-1.907803-.80325-3.946356-.779625 1.88677 4.289626 4.83602 7.488001 8.183772 7.462126l.02274-.000563.02217.000563h.0051.0051l.02217-.000563.02274.000563c3.347752.02587 6.297002-3.1725 8.183772-7.462126-2.038553-.02362-2.124392.219938-3.946356.779625z"/>
    </g>
  </g>
</svg>