<svg xmlns="http://www.w3.org/2000/svg" width="100" height="25" enable-background="new 0 0 584 149">
  <path stroke-width=".044" d="M.434.703h99.207v23.824H.434z"/>
  <path d="M11.067 9.893l2.666-5.457h4.34l-4.635 8.015 4.992 8.154h-4.557l-2.76-5.565-2.76 5.565h-4.34l4.76-8.154-4.636-8.015h4.294z" fill="#de2600"/>
  <path d="M74.3 4.188c-2.046 0-3.704.637-4.976 1.939-1.271 1.302-1.906 2.943-1.906 4.928v2.916c0 2 .635 3.643 1.906 4.93 1.272 1.286 2.946 1.937 4.992 1.937 2.031 0 3.69-.651 4.946-1.938 1.256-1.302 1.89-2.93 1.89-4.93h.016v-2.915c0-2-.635-3.626-1.906-4.928-1.287-1.287-2.93-1.94-4.961-1.94zm15.007.015c-1.798 0-3.287.42-4.465 1.256-1.178.837-1.768 1.939-1.768 3.287 0 1.395.481 2.45 1.473 3.193.977.745 2.497 1.427 4.543 2.079.977.356 1.659.682 2.031.992.387.31.574.743.574 1.316 0 .497-.202.9-.558 1.225-.372.31-.962.465-1.737.465-1.023 0-1.798-.2-2.295-.604-.511-.403-.76-1.07-.76-2h-3.657l-.016.063c-.047 1.736.62 3.07 1.953 3.984 1.333.915 2.915 1.379 4.76 1.379 1.83 0 3.301-.402 4.402-1.21 1.1-.79 1.658-1.907 1.658-3.333 0-1.396-.464-2.496-1.394-3.303-.93-.79-2.31-1.47-4.155-2.013-1.194-.435-1.999-.792-2.433-1.07-.434-.28-.652-.652-.652-1.132 0-.496.218-.915.652-1.24.434-.326 1.022-.496 1.781-.496.775 0 1.38.2 1.815.604.434.403.652.915.652 1.566h3.643l.015-.063c.047-1.457-.513-2.65-1.66-3.564-1.147-.915-2.604-1.38-4.402-1.38zm-34.244.233v16.17H66.3v-2.883h-7.47V13.69h6.339v-2.9h-6.342v-3.47h7.504V4.435h-11.27zm-36.772.002l5.225 16.183h4.06l5.24-16.183H28.88l-3.21 11.826-.108.543H25.5l-.11-.588L22.23 4.438H18.29zm15.813 0v16.167h3.751V4.438h-3.751zm6.308 0v16.181h5.846c1.906 0 3.486-.62 4.773-1.86 1.288-1.239 1.924-2.82 1.924-4.773V11.07c0-1.937-.637-3.533-1.924-4.773-1.271-1.24-2.867-1.86-4.773-1.86h-5.846zm33.858 2.65c.992 0 1.767.37 2.31 1.115.543.729.82 1.675.82 2.838l.002 2.93c0 1.178-.264 2.122-.806 2.867-.543.744-1.303 1.117-2.295 1.117-1.023 0-1.8-.373-2.342-1.117s-.82-1.705-.82-2.867v-2.93c0-1.163.263-2.109.806-2.853.527-.73 1.317-1.1 2.325-1.1zm-30.09.246h1.83c.992 0 1.781.341 2.34 1.023.558.683.838 1.581.838 2.698v2.931c0 1.116-.28 2.031-.838 2.713-.559.682-1.333 1.022-2.34 1.022h-1.83V7.334z" fill="#fff" stroke-width=".219"/>
</svg>