<svg width="200" height="65" viewBox="0 0 200 65" fill="none" xmlns="http://www.w3.org/2000/svg">
<rect width="200" height="65" rx="5" fill="#0069FF"/>
<path d="M73.8134 33.544C72.3797 32.5873 70.6 32.085 68.5236 32.085H64V45.9816H68.5236C70.6 45.9816 72.3797 45.4794 73.8134 44.4509C74.6044 43.9247 75.2224 43.1593 75.6426 42.2265C76.0628 41.2936 76.2853 40.1934 76.2853 38.9496C76.2853 37.7298 76.0628 36.6295 75.6426 35.6967C75.2224 34.7878 74.6044 34.0703 73.8134 33.544ZM66.6449 34.4529H68.0786C69.6606 34.4529 70.9707 34.7639 71.9595 35.3379C73.0471 35.9837 73.6157 37.2036 73.6157 38.9496C73.6157 40.7674 73.0471 42.0351 71.9595 42.7287C71.0202 43.3267 69.7101 43.6376 68.1033 43.6376H66.6449V34.4529Z" fill="white"/>
<path d="M79.4494 31.9415C79.0044 31.9415 78.6337 32.0851 78.337 32.3721C78.0404 32.6591 77.8674 33.0179 77.8674 33.4245C77.8674 33.855 78.0157 34.2138 78.337 34.5008C78.6337 34.7878 79.0044 34.9553 79.4494 34.9553C79.8943 34.9553 80.2651 34.8118 80.5617 34.5008C80.8584 34.2138 81.0314 33.8311 81.0314 33.4245C81.0314 32.994 80.8831 32.6352 80.5617 32.3721C80.2651 32.0851 79.8696 31.9415 79.4494 31.9415Z" fill="white"/>
<path d="M80.6853 36.2229H78.1393V46.0295H80.6853V36.2229Z" fill="white"/>
<path d="M89.9548 37.0361C89.1885 36.3664 88.3234 35.9837 87.4088 35.9837C85.9998 35.9837 84.838 36.4621 83.9234 37.371C83.0088 38.2799 82.5639 39.4758 82.5639 40.887C82.5639 42.2743 83.0088 43.4463 83.9234 44.403C84.838 45.3119 85.9998 45.7903 87.4088 45.7903C88.3975 45.7903 89.238 45.5272 89.9301 45.001V45.2162C89.9301 46.0295 89.7076 46.6514 89.2627 47.1058C88.8178 47.5363 88.1998 47.7516 87.4335 47.7516C86.247 47.7516 85.5301 47.2972 84.6155 46.1251L82.8852 47.7277L82.9347 47.7994C83.3054 48.3017 83.874 48.804 84.6403 49.2824C85.4066 49.7608 86.3459 49.9999 87.4829 49.9999C88.9908 49.9999 90.2267 49.5455 91.1166 48.6605C92.0312 47.7755 92.4762 46.5796 92.4762 45.0967V36.2229H89.9796V37.0361H89.9548ZM89.2874 42.8244C88.8425 43.3028 88.2739 43.542 87.5324 43.542C86.7908 43.542 86.2223 43.3028 85.8021 42.8244C85.3571 42.346 85.1346 41.7002 85.1346 40.9109C85.1346 40.1216 85.3571 39.4519 85.8021 38.9735C86.247 38.4952 86.8155 38.2321 87.5324 38.2321C88.2739 38.2321 88.8425 38.4712 89.2874 38.9735C89.7324 39.4519 89.9548 40.1216 89.9548 40.9109C89.9548 41.7002 89.7076 42.346 89.2874 42.8244Z" fill="white"/>
<path d="M97.1728 36.2229H94.6267V46.0295H97.1728V36.2229Z" fill="white"/>
<path d="M95.9369 31.9415C95.492 31.9415 95.1212 32.0851 94.8245 32.3721C94.5279 32.6591 94.3549 33.0179 94.3549 33.4245C94.3549 33.855 94.5032 34.2138 94.8245 34.5008C95.1212 34.7878 95.492 34.9553 95.9369 34.9553C96.3818 34.9553 96.7526 34.8118 97.0492 34.5008C97.3459 34.2138 97.5189 33.8311 97.5189 33.4245C97.5189 32.994 97.3706 32.6352 97.0492 32.3721C96.7526 32.0851 96.3571 31.9415 95.9369 31.9415Z" fill="white"/>
<path d="M102.759 33.568H100.263V36.223H98.8043V38.4713H100.263V42.5374C100.263 43.8051 100.535 44.714 101.054 45.2402C101.573 45.7664 102.487 46.0295 103.797 46.0295C104.218 46.0295 104.638 46.0056 105.033 45.9817H105.157V43.7334L104.292 43.7812C103.674 43.7812 103.278 43.6855 103.081 43.4703C102.883 43.255 102.784 42.8245 102.784 42.1787V38.4713H105.157V36.223H102.784V33.568H102.759Z" fill="white"/>
<path d="M119.618 32.109H117.072V46.0056H119.618V32.109Z" fill="white"/>
<path d="M145.35 42.5135C144.905 43.0157 144.435 43.4463 144.065 43.6615C143.719 43.8768 143.274 43.9964 142.755 43.9964C142.013 43.9964 141.395 43.7333 140.901 43.1832C140.406 42.6331 140.159 41.9394 140.159 41.1023C140.159 40.2651 140.406 39.5715 140.876 39.0453C141.37 38.4952 141.964 38.2321 142.705 38.2321C143.521 38.2321 144.386 38.7343 145.128 39.5715L146.808 38.0168C145.721 36.6295 144.312 35.9837 142.631 35.9837C141.222 35.9837 140.011 36.486 139.022 37.4427C138.033 38.3995 137.539 39.6432 137.539 41.1023C137.539 42.5613 138.033 43.7811 139.022 44.7618C140.011 45.7425 141.222 46.2208 142.631 46.2208C144.485 46.2208 145.968 45.4554 146.957 44.0442L145.35 42.5135Z" fill="white"/>
<path d="M155.806 37.5863C155.435 37.1079 154.941 36.7013 154.348 36.4143C153.73 36.1272 153.038 35.9837 152.247 35.9837C150.813 35.9837 149.651 36.486 148.786 37.4906C147.945 38.4952 147.501 39.715 147.501 41.174C147.501 42.657 147.97 43.8768 148.91 44.8335C149.824 45.7664 151.085 46.2447 152.593 46.2447C154.298 46.2447 155.732 45.575 156.77 44.2356L156.82 44.1638L155.163 42.6091C155.015 42.8005 154.793 42.9918 154.595 43.1832C154.348 43.4224 154.101 43.5898 153.853 43.7094C153.483 43.9007 153.038 43.9725 152.568 43.9725C151.851 43.9725 151.283 43.7811 150.838 43.3745C150.417 43.0157 150.17 42.5135 150.121 41.8916H156.869L156.894 40.9827C156.894 40.3369 156.795 39.7389 156.622 39.1649C156.449 38.6147 156.177 38.0646 155.806 37.5863ZM150.244 39.8824C150.368 39.4041 150.59 39.0214 150.912 38.7104C151.258 38.3756 151.703 38.2081 152.247 38.2081C152.865 38.2081 153.334 38.3756 153.656 38.7104C153.952 39.0214 154.125 39.4041 154.175 39.8585H150.244V39.8824Z" fill="white"/>
<path d="M165.595 36.9405C164.828 36.2947 163.766 35.9837 162.431 35.9837C161.59 35.9837 160.799 36.1751 160.082 36.5099C159.415 36.8448 158.772 37.371 158.352 38.0885L158.377 38.1125L160.008 39.6193C160.676 38.5908 161.417 38.2321 162.406 38.2321C162.95 38.2321 163.37 38.3756 163.716 38.6387C164.062 38.9018 164.21 39.2605 164.21 39.6911V40.1695C163.568 39.9781 162.95 39.8824 162.332 39.8824C161.071 39.8824 160.033 40.1694 159.267 40.7435C158.5 41.3175 158.105 42.1547 158.105 43.1832C158.105 44.0921 158.426 44.8575 159.094 45.4076C159.761 45.9338 160.577 46.2208 161.541 46.2208C162.505 46.2208 163.419 45.8381 164.235 45.1923V46.0056H166.732V39.715C166.781 38.5191 166.386 37.5863 165.595 36.9405ZM161.071 42.2743C161.368 42.0829 161.763 41.9873 162.282 41.9873C162.9 41.9873 163.543 42.1068 164.21 42.346V43.3028C163.667 43.8051 162.925 44.0442 162.011 44.0442C161.566 44.0442 161.22 43.9486 160.997 43.7572C160.775 43.5659 160.651 43.3506 160.651 43.0397C160.651 42.7048 160.799 42.4656 161.071 42.2743Z" fill="white"/>
<path d="M176.57 37.1318C175.853 36.3664 174.864 35.9837 173.604 35.9837C172.59 35.9837 171.775 36.2707 171.157 36.8209V36.2229H168.66V46.0295H171.206V40.6C171.206 39.8585 171.379 39.2605 171.75 38.8539C172.121 38.4234 172.59 38.2321 173.258 38.2321C173.826 38.2321 174.271 38.4234 174.593 38.7822C174.914 39.1649 175.087 39.6672 175.087 40.313V45.9816H177.633V40.3369C177.633 38.9735 177.287 37.8972 176.57 37.1318Z" fill="white"/>
<path d="M113.883 36.9405C113.117 36.2947 112.054 35.9837 110.719 35.9837C109.878 35.9837 109.087 36.1751 108.371 36.5099C107.703 36.8448 107.06 37.371 106.64 38.0885L106.665 38.1125L108.296 39.6193C108.964 38.5908 109.705 38.2321 110.694 38.2321C111.238 38.2321 111.658 38.3756 112.004 38.6387C112.35 38.9018 112.499 39.2605 112.499 39.6911V40.1695C111.856 39.9781 111.238 39.8824 110.62 39.8824C109.359 39.8824 108.321 40.1694 107.555 40.7435C106.789 41.3175 106.393 42.1547 106.393 43.1832C106.393 44.0921 106.714 44.8575 107.382 45.4076C108.049 45.9338 108.865 46.2208 109.829 46.2208C110.793 46.2208 111.708 45.8381 112.523 45.1923V46.0056H115.02V39.715C115.045 38.5191 114.649 37.5863 113.883 36.9405ZM109.359 42.2743C109.656 42.0829 110.051 41.9873 110.571 41.9873C111.188 41.9873 111.831 42.1068 112.499 42.346V43.3028C111.955 43.8051 111.213 44.0442 110.299 44.0442C109.854 44.0442 109.508 43.9486 109.285 43.7572C109.063 43.5659 108.939 43.3506 108.939 43.0397C108.939 42.7048 109.063 42.4656 109.359 42.2743Z" fill="white"/>
<path d="M128.863 46.2209C124.784 46.2209 121.447 43.0158 121.447 39.0453C121.447 35.0749 124.759 31.8698 128.863 31.8698C132.966 31.8698 136.278 35.0749 136.278 39.0453C136.278 43.0158 132.941 46.2209 128.863 46.2209ZM128.863 34.4052C126.218 34.4052 124.067 36.4861 124.067 39.0453C124.067 41.6046 126.218 43.6855 128.863 43.6855C131.507 43.6855 133.658 41.6046 133.658 39.0453C133.658 36.4861 131.507 34.4052 128.863 34.4052Z" fill="white"/>
<path d="M63.998 26V17.7582H66.7829C67.4294 17.7582 67.958 17.8749 68.3685 18.1083C68.7816 18.339 69.0875 18.6516 69.286 19.046C69.4845 19.4403 69.5838 19.8803 69.5838 20.3659C69.5838 20.8515 69.4845 21.2929 69.286 21.6899C69.0902 22.087 68.787 22.4036 68.3765 22.6397C67.966 22.8731 67.4402 22.9898 66.799 22.9898H64.8029V22.1044H66.7668C67.2095 22.1044 67.5649 22.028 67.8332 21.8751C68.1015 21.7221 68.296 21.5156 68.4168 21.2553C68.5402 20.9924 68.6019 20.6959 68.6019 20.3659C68.6019 20.0359 68.5402 19.7408 68.4168 19.4806C68.296 19.2203 68.1002 19.0164 67.8292 18.8689C67.5582 18.7186 67.1987 18.6435 66.7507 18.6435H64.9961V26H63.998ZM73.5075 26.1288C72.9495 26.1288 72.4599 25.996 72.0386 25.7304C71.6201 25.4648 71.2928 25.0932 71.0567 24.6156C70.8233 24.1381 70.7066 23.58 70.7066 22.9415C70.7066 22.2976 70.8233 21.7355 71.0567 21.2553C71.2928 20.7751 71.6201 20.4022 72.0386 20.1365C72.4599 19.8709 72.9495 19.7381 73.5075 19.7381C74.0656 19.7381 74.5539 19.8709 74.9724 20.1365C75.3936 20.4022 75.7209 20.7751 75.9543 21.2553C76.1904 21.7355 76.3085 22.2976 76.3085 22.9415C76.3085 23.58 76.1904 24.1381 75.9543 24.6156C75.7209 25.0932 75.3936 25.4648 74.9724 25.7304C74.5539 25.996 74.0656 26.1288 73.5075 26.1288ZM73.5075 25.2756C73.9314 25.2756 74.2802 25.167 74.5539 24.9496C74.8275 24.7323 75.0301 24.4466 75.1615 24.0925C75.293 23.7383 75.3587 23.3547 75.3587 22.9415C75.3587 22.5283 75.293 22.1433 75.1615 21.7865C75.0301 21.4297 74.8275 21.1413 74.5539 20.9213C74.2802 20.7013 73.9314 20.5913 73.5075 20.5913C73.0836 20.5913 72.7349 20.7013 72.4612 20.9213C72.1875 21.1413 71.985 21.4297 71.8535 21.7865C71.7221 22.1433 71.6563 22.5283 71.6563 22.9415C71.6563 23.3547 71.7221 23.7383 71.8535 24.0925C71.985 24.4466 72.1875 24.7323 72.4612 24.9496C72.7349 25.167 73.0836 25.2756 73.5075 25.2756ZM78.9484 26L77.065 19.8186H78.0631L79.3992 24.5512H79.4635L80.7835 19.8186H81.7977L83.1015 24.5351H83.1659L84.502 19.8186H85.5L83.6167 26H82.683L81.3308 21.2513H81.2342L79.8821 26H78.9484ZM89.137 26.1288C88.5414 26.1288 88.0277 25.9973 87.5957 25.7344C87.1664 25.4688 86.8351 25.0985 86.6017 24.6237C86.371 24.1461 86.2556 23.5908 86.2556 22.9576C86.2556 22.3244 86.371 21.7664 86.6017 21.2835C86.8351 20.7979 87.1597 20.4196 87.5756 20.1486C87.9941 19.875 88.4824 19.7381 89.0404 19.7381C89.3624 19.7381 89.6803 19.7918 89.9942 19.8991C90.3081 20.0064 90.5938 20.1808 90.8514 20.4223C91.1089 20.6611 91.3142 20.9776 91.4671 21.372C91.62 21.7664 91.6965 22.252 91.6965 22.8288V23.2313H86.9317V22.4103H90.7307C90.7307 22.0615 90.6609 21.7503 90.5214 21.4767C90.3846 21.203 90.1887 20.987 89.9338 20.8287C89.6817 20.6704 89.3839 20.5913 89.0404 20.5913C88.6622 20.5913 88.3348 20.6852 88.0585 20.873C87.7849 21.0581 87.5742 21.2996 87.4267 21.5974C87.2791 21.8952 87.2053 22.2144 87.2053 22.5552V23.1025C87.2053 23.5693 87.2858 23.965 87.4468 24.2897C87.6105 24.6116 87.8372 24.8571 88.1269 25.0261C88.4167 25.1925 88.7534 25.2756 89.137 25.2756C89.3865 25.2756 89.6119 25.2407 89.8131 25.171C90.017 25.0985 90.1927 24.9912 90.3403 24.849C90.4879 24.7042 90.6019 24.5244 90.6824 24.3098L91.5999 24.5673C91.5033 24.8786 91.341 25.1522 91.113 25.3883C90.8849 25.6217 90.6032 25.8041 90.2679 25.9356C89.9325 26.0644 89.5556 26.1288 89.137 26.1288ZM93.1412 26V19.8186H94.0588V20.7523H94.1232C94.2359 20.4464 94.4398 20.1983 94.7349 20.0078C95.03 19.8173 95.3627 19.722 95.7329 19.722C95.8027 19.722 95.8899 19.7234 95.9945 19.7261C96.0991 19.7287 96.1783 19.7328 96.2319 19.7381V20.704C96.1997 20.6959 96.126 20.6839 96.0106 20.6678C95.8979 20.649 95.7785 20.6396 95.6524 20.6396C95.3519 20.6396 95.0836 20.7026 94.8476 20.8287C94.6141 20.9521 94.429 21.1239 94.2922 21.3438C94.1581 21.5612 94.091 21.8093 94.091 22.0883V26H93.1412ZM99.7613 26.1288C99.1657 26.1288 98.6519 25.9973 98.2199 25.7344C97.7907 25.4688 97.4593 25.0985 97.2259 24.6237C96.9952 24.1461 96.8798 23.5908 96.8798 22.9576C96.8798 22.3244 96.9952 21.7664 97.2259 21.2835C97.4593 20.7979 97.784 20.4196 98.1998 20.1486C98.6184 19.875 99.1066 19.7381 99.6647 19.7381C99.9866 19.7381 100.305 19.7918 100.618 19.8991C100.932 20.0064 101.218 20.1808 101.476 20.4223C101.733 20.6611 101.938 20.9776 102.091 21.372C102.244 21.7664 102.321 22.252 102.321 22.8288V23.2313H97.5559V22.4103H101.355C101.355 22.0615 101.285 21.7503 101.146 21.4767C101.009 21.203 100.813 20.987 100.558 20.8287C100.306 20.6704 100.008 20.5913 99.6647 20.5913C99.2864 20.5913 98.9591 20.6852 98.6827 20.873C98.4091 21.0581 98.1985 21.2996 98.0509 21.5974C97.9034 21.8952 97.8296 22.2144 97.8296 22.5552V23.1025C97.8296 23.5693 97.9101 23.965 98.071 24.2897C98.2347 24.6116 98.4614 24.8571 98.7512 25.0261C99.0409 25.1925 99.3776 25.2756 99.7613 25.2756C100.011 25.2756 100.236 25.2407 100.437 25.171C100.641 25.0985 100.817 24.9912 100.965 24.849C101.112 24.7042 101.226 24.5244 101.307 24.3098L102.224 24.5673C102.128 24.8786 101.965 25.1522 101.737 25.3883C101.509 25.6217 101.227 25.8041 100.892 25.9356C100.557 26.0644 100.18 26.1288 99.7613 26.1288ZM106.1 26.1288C105.584 26.1288 105.13 25.9987 104.735 25.7384C104.341 25.4755 104.032 25.1053 103.81 24.6277C103.587 24.1475 103.476 23.58 103.476 22.9254C103.476 22.2762 103.587 21.7127 103.81 21.2352C104.032 20.7576 104.342 20.3887 104.739 20.1285C105.136 19.8683 105.595 19.7381 106.116 19.7381C106.518 19.7381 106.836 19.8052 107.069 19.9394C107.306 20.0708 107.485 20.2211 107.609 20.3901C107.735 20.5564 107.833 20.6932 107.902 20.8006H107.983V17.7582H108.933V26H108.015V25.0503H107.902C107.833 25.1629 107.733 25.3051 107.605 25.4768C107.476 25.6459 107.292 25.7974 107.053 25.9316C106.815 26.063 106.497 26.1288 106.1 26.1288ZM106.228 25.2756C106.609 25.2756 106.931 25.1764 107.194 24.9778C107.457 24.7766 107.657 24.4989 107.794 24.1448C107.931 23.788 107.999 23.3761 107.999 22.9093C107.999 22.4479 107.932 22.0441 107.798 21.698C107.664 21.3492 107.465 21.0782 107.202 20.8851C106.939 20.6892 106.615 20.5913 106.228 20.5913C105.826 20.5913 105.491 20.6946 105.222 20.9012C104.957 21.1051 104.757 21.3828 104.623 21.7342C104.491 22.083 104.425 22.4747 104.425 22.9093C104.425 23.3493 104.493 23.7491 104.627 24.1086C104.764 24.4654 104.965 24.7498 105.23 24.9617C105.499 25.171 105.831 25.2756 106.228 25.2756ZM114.12 26V17.7582H115.07V20.8006H115.15C115.22 20.6932 115.317 20.5564 115.44 20.3901C115.566 20.2211 115.746 20.0708 115.979 19.9394C116.215 19.8052 116.535 19.7381 116.937 19.7381C117.458 19.7381 117.916 19.8683 118.313 20.1285C118.71 20.3887 119.02 20.7576 119.243 21.2352C119.466 21.7127 119.577 22.2762 119.577 22.9254C119.577 23.58 119.466 24.1475 119.243 24.6277C119.02 25.1053 118.712 25.4755 118.317 25.7384C117.923 25.9987 117.468 26.1288 116.953 26.1288C116.556 26.1288 116.238 26.063 115.999 25.9316C115.761 25.7974 115.577 25.6459 115.448 25.4768C115.319 25.3051 115.22 25.1629 115.15 25.0503H115.038V26H114.12ZM115.054 22.9093C115.054 23.3761 115.122 23.788 115.259 24.1448C115.396 24.4989 115.596 24.7766 115.859 24.9778C116.122 25.1764 116.443 25.2756 116.824 25.2756C117.221 25.2756 117.553 25.171 117.818 24.9617C118.087 24.7498 118.288 24.4654 118.422 24.1086C118.559 23.7491 118.627 23.3493 118.627 22.9093C118.627 22.4747 118.56 22.083 118.426 21.7342C118.295 21.3828 118.095 21.1051 117.826 20.9012C117.561 20.6946 117.227 20.5913 116.824 20.5913C116.438 20.5913 116.113 20.6892 115.851 20.8851C115.588 21.0782 115.389 21.3492 115.255 21.698C115.121 22.0441 115.054 22.4479 115.054 22.9093ZM121.42 28.318C121.259 28.318 121.116 28.3046 120.99 28.2778C120.864 28.2536 120.776 28.2295 120.728 28.2053L120.969 27.3683C121.2 27.4273 121.404 27.4488 121.581 27.4327C121.758 27.4166 121.915 27.3374 122.052 27.1952C122.192 27.0557 122.319 26.829 122.434 26.5151L122.611 26.0322L120.326 19.8186H121.356L123.062 24.7444H123.127L124.833 19.8186H125.863L123.239 26.9015C123.121 27.2207 122.975 27.485 122.801 27.6942C122.626 27.9062 122.424 28.0631 122.193 28.1651C121.965 28.267 121.707 28.318 121.42 28.318Z" fill="white"/>
<path fill-rule="evenodd" clip-rule="evenodd" d="M39.0979 48V41.8036C45.7129 41.8036 50.7985 35.3032 48.2748 28.3845C47.3571 25.8376 45.2923 23.7848 42.7304 22.8724C35.7713 20.3635 29.2327 25.4574 29.2327 31.9959V31.9959H23C23 21.5419 33.1711 13.3688 44.1835 16.7901C49.0014 18.2727 52.8251 22.1121 54.3546 26.902C57.7959 37.8881 49.6131 48 39.0979 48V48Z" fill="white"/>
<path fill-rule="evenodd" clip-rule="evenodd" d="M39.0976 41.8417H32.9031V35.6833V35.6833H39.0976V35.6833V41.8417Z" fill="white"/>
<path fill-rule="evenodd" clip-rule="evenodd" d="M32.9024 46.5935H28.1227V46.5935V41.8416H32.9024V46.5935V46.5935Z" fill="white"/>
<path fill-rule="evenodd" clip-rule="evenodd" d="M28.1251 41.8417H24.1102V41.8417V37.8882V37.8882H28.0868V37.8882V41.8417H28.1251Z" fill="white"/>
</svg>
